<?xml version="1.0" standalone="no"?>
<!DOCTYPE svg PUBLIC "-//W3C//DTD SVG 1.1//EN" "http://www.w3.org/Graphics/SVG/1.1/DTD/svg11.dtd" >
<svg>
<metadata>
Created by FontForge 20090914 at Tue Aug 23 01:21:39 2011
 By www-data
&#194;&#169; 1993-2002 Apple Computer, Inc.
</metadata>
<defs>
<font id="Skia-Regular" horiz-adv-x="0" >
  <font-face 
    font-family="Skia"
    font-weight="5"
    font-stretch="normal"
    units-per-em="2048"
    panose-1="2 13 5 2 2 2 4 2 2 4"
    ascent="1624"
    descent="-424"
    x-height="1002"
    cap-height="1339"
    bbox="-1024 -803 2765 1896"
    underline-thickness="0"
    underline-position="0"
    unicode-range="U+0008-U+FB04"
  />
<missing-glyph horiz-adv-x="1488" 
d="M161 0v1469h1166v-1469h-1166zM1143 184v1101h-798v-1101h798z" />
    <glyph glyph-name="f_i" unicode="fi" horiz-adv-x="1238" 
d="M1073 1206h-176v172h176v-172zM1056 0h-158q0 16 2 116.5t2 341.5v184t-2 255q-7 0 -104.5 0.5t-153.5 0.5q-63 0 -149 -0.5t-94 -0.5q0 -325 1.5 -603t1.5 -294h-159q0 16 2 281.5t2 615.5l-196 -2v117h196v49q0 88 22.5 157.5t80.5 130.5q50 52 134 85t205 33h26h21
l19 -128h-19h-24q-94 0 -148 -17t-97 -58q-33 -31 -50.5 -85.5t-17.5 -121.5v-45q5 0 110 -0.5t199 -0.5q92 0 217 0.5t131 0.5q-2 -198 -3.5 -325t-1.5 -221q0 -245 2.5 -347.5t2.5 -118.5z" />
    <glyph glyph-name="f_l" unicode="fl" horiz-adv-x="1270" 
d="M752 1339h-17h-23q-94 0 -148 -17t-97 -58q-33 -31 -50.5 -85.5t-17.5 -121.5v-45h350v-115h-350q0 -325 1.5 -603t1.5 -294h-158q0 16 1.5 281.5t2.5 615.5l-197 -2v117h197v49q0 88 22.5 157.5t80.5 130.5q50 52 133.5 85t204.5 33h25h19zM1077 0h-158q1 12 2.5 292.5
t1.5 465.5q0 119 -0.5 300.5t-3.5 407.5h158q-2 -154 -3 -356.5t-1 -341.5q0 -303 2 -530t2 -238z" />
    <glyph glyph-name="f_f" unicode="ff" horiz-adv-x="1408" 
d="M1418 1339h-22.5h-28.5q-94 0 -148 -17t-97 -58q-33 -31 -50.5 -85.5t-17.5 -121.5v-45q14 0 111 -1.5t228 1.5v-115q-79 1 -202 0.5t-137 -0.5q0 -325 1.5 -603t1.5 -294h-159q0 16 2 281.5t2 615.5q-12 0 -106.5 0.5t-140.5 0.5q-66 0 -153 -0.5t-103 -0.5
q0 -325 1.5 -603t1.5 -294h-158q0 16 2 281.5t2 615.5l-197 -2v117h197v49q0 88 23 157.5t81 130.5q50 52 133 85t204 33h30.5h23.5l19 -128h-22h-28q-94 0 -148 -17t-97 -58q-33 -31 -50.5 -85.5t-17.5 -121.5v-45q14 0 91 -0.5t161 -0.5q65 0 151 0.5t100 0.5v49
q0 88 22.5 157.5t80.5 130.5q50 52 134 85t205 33h31h24z" />
    <glyph glyph-name="f_j" unicode="fj" horiz-adv-x="1236" 
d="M1073 1206h-176v172h176v-172zM1055 6q0 -110 -30.5 -189.5t-88.5 -133.5q-55 -51 -145.5 -87.5t-225.5 -49.5l-35 123q106 10 175.5 32t111.5 60q45 41 65 104t20 172q0 245 -1.5 547.5t-1.5 312.5q-12 0 -107 0.5t-150 0.5q-63 0 -148.5 -0.5t-94.5 -0.5
q0 -325 1.5 -603t1.5 -294h-159q0 16 2 281.5t2 615.5l-196 -2v117h196v49q0 88 22.5 157.5t80.5 130.5q50 52 134 85t205 33h26.5h20.5l19 -128h-18.5h-24.5q-94 0 -148 -17t-97 -58q-33 -31 -50.5 -85.5t-17.5 -121.5v-45q8 0 111.5 -0.5t197.5 -0.5q90 0 176 0.5t171 0.5
q0 -13 -1 -154.5t-1 -336.5q0 -126 1 -264.5t1 -250.5z" />
    <glyph glyph-name="f_t" unicode="ft" horiz-adv-x="1453" 
d="M1382 124l-18 -127q-9 -1 -35.5 -2t-46.5 -1q-205 0 -310 85.5t-105 262.5q0 111 1.5 238t1.5 317q-11 0 -80.5 0.5t-139.5 0.5q-65 0 -154.5 -0.5t-96.5 -0.5q0 -325 1.5 -603t1.5 -294h-158q0 16 2 281.5t2 615.5l-197 -2v117h197v49q0 88 23 157.5t81 130.5
q50 52 133 85t204 33h30.5h23.5l19 -128h-22h-28q-94 0 -148 -17t-97 -58q-33 -31 -50.5 -85.5t-17.5 -121.5v-45q12 0 88.5 -0.5t160.5 -0.5q65 0 142.5 0.5t88.5 0.5v237h145v-237h358v-117l-358 2q0 -20 -1.5 -125.5t-1.5 -155.5v-103v-145q0 -130 70 -187.5t216 -57.5
q18 0 43.5 0.5t31.5 0.5z" />
    <glyph glyph-name="f_f_i" unicode="ffi" horiz-adv-x="1895" 
d="M1729 1206h-176v172h176v-172zM1711 0h-158q0 16 2 116.5t2 341.5v184t-2 255q-16 0 -109 0.5t-149 0.5q-63 0 -147 -0.5t-96 -0.5q0 -325 1.5 -603t1.5 -294h-159q0 16 2 281.5t2 615.5q-14 0 -107.5 0.5t-139.5 0.5q-66 0 -155 -0.5t-101 -0.5q0 -325 1.5 -603
t1.5 -294h-158q0 16 2 281.5t2 615.5l-197 -2v117h197v49q0 88 23 157.5t81 130.5q50 52 133 85t204 33h30.5h23.5l19 -128h-22h-28q-94 0 -148 -17t-97 -58q-33 -31 -50.5 -85.5t-17.5 -121.5v-45q16 0 92 -0.5t160 -0.5q65 0 146 0.5t105 0.5v49q0 88 22.5 157.5
t80.5 130.5q50 52 134 85t205 33h26.5h20.5l19 -128h-18.5h-24.5q-94 0 -148 -17t-97 -58q-33 -31 -50.5 -85.5t-17.5 -121.5v-45q12 0 113.5 -0.5t195.5 -0.5q92 0 213 0.5t135 0.5q-2 -198 -3.5 -325t-1.5 -221q0 -245 2.5 -347.5t2.5 -118.5z" />
    <glyph glyph-name="f_f_l" unicode="ffl" horiz-adv-x="1924" 
d="M1731 0h-158q0 16 2 198.5t2 539.5q0 119 -0.5 310.5t-3.5 417.5h158q-2 -162 -3 -345t-1 -373q0 -308 2 -520t2 -228zM1410 1339h-18.5h-24.5q-94 0 -148 -17t-97 -58q-33 -31 -50.5 -85.5t-17.5 -121.5v-45q10 0 134 -1.5t215 1.5v-115q-80 1 -205.5 0.5t-143.5 -0.5
q0 -325 1.5 -603t1.5 -294h-159q0 16 2 281.5t2 615.5q-10 0 -105.5 0.5t-141.5 0.5q-66 0 -156 -0.5t-100 -0.5q0 -325 1.5 -603t1.5 -294h-158q0 16 2 281.5t2 615.5l-197 -2v117h197v49q0 88 23 157.5t81 130.5q50 52 133 85t204 33h30.5h23.5l19 -128h-22h-28
q-94 0 -148 -17t-97 -58q-33 -31 -50.5 -85.5t-17.5 -121.5v-45q12 0 90 -0.5t162 -0.5q65 0 151 0.5t100 0.5v49q0 88 22.5 157.5t80.5 130.5q50 52 134 85t205 33h26.5h20.5z" />
    <glyph glyph-name=".notdef" horiz-adv-x="1488" 
d="M161 0v1469h1166v-1469h-1166zM1143 184v1101h-798v-1101h798z" />
    <glyph glyph-name=".null" 
 />
    <glyph glyph-name=".null" 
 />
    <glyph glyph-name=".null" 
 />
    <glyph glyph-name="nonmarkingreturn" unicode="&#x9;" horiz-adv-x="512" 
 />
    <glyph glyph-name="nonmarkingreturn" unicode="&#xd;" horiz-adv-x="512" 
 />
    <glyph glyph-name="nonmarkingreturn" unicode="&#xa;" horiz-adv-x="512" 
 />
    <glyph glyph-name="space" unicode=" " horiz-adv-x="512" 
 />
    <glyph glyph-name="empty.1" 
 />
    <glyph glyph-name="empty.2" 
 />
    <glyph glyph-name="empty.3" 
 />
    <glyph glyph-name="empty.4" 
 />
    <glyph glyph-name="empty.5" 
 />
    <glyph glyph-name="empty.6" 
 />
    <glyph glyph-name="empty.7" 
 />
    <glyph glyph-name="empty.8" 
 />
    <glyph glyph-name="empty.9" 
 />
    <glyph glyph-name="empty.10" 
 />
    <glyph glyph-name="empty.11" 
 />
    <glyph glyph-name="empty.12" 
 />
    <glyph glyph-name="empty.13" 
 />
    <glyph glyph-name="empty.14" 
 />
    <glyph glyph-name="empty.15" 
 />
    <glyph glyph-name="empty.16" 
 />
    <glyph glyph-name="empty.17" 
 />
    <glyph glyph-name="empty.18" 
 />
    <glyph glyph-name="empty.19" 
 />
    <glyph glyph-name="empty.20" 
 />
    <glyph glyph-name="empty.21" 
 />
    <glyph glyph-name="empty.22" 
 />
    <glyph glyph-name="empty.23" 
 />
    <glyph glyph-name="empty.24" 
 />
    <glyph glyph-name="empty.25" 
 />
    <glyph glyph-name="empty.26" 
 />
    <glyph glyph-name="empty.27" 
 />
    <glyph glyph-name="empty.28" 
 />
    <glyph glyph-name="empty.29" horiz-adv-x="512" 
 />
    <glyph glyph-name="exclam" unicode="!" horiz-adv-x="950" 
d="M571 1339q-6 -529 -10.5 -695.5l-5.5 -203.5h-139q-1 37 -6 203.5t-11 695.5h172zM582 0h-193v201h193v-201z" />
    <glyph glyph-name="quote.double" unicode="&#x22;" horiz-adv-x="760" 
d="M619 1422l-18 -497h-115l-16 497h149zM293 1422l-18 -497h-115l-16 497h149z" />
    <glyph glyph-name="numbersign.oldstyle" unicode="#" horiz-adv-x="1414" 
d="M1223 631h-266l-41.5 -130t-37.5 -111h234v-104h-267l-65 -199.5t-35 -110.5l-90 36l30.5 90.5l60.5 183.5h-223l-64.5 -199l-35.5 -111l-90 36q4 11 30.5 90l60.5 184h-232v104h266l40.5 121l38.5 120h-232v104h266l63 193.5t34 105.5l90 -32l-29 -86.5l-60 -180.5h224
l63 193.5t34 105.5l90 -32l-28.5 -85l-60.5 -182h232v-104zM859 631h-224l-41.5 -130t-37.5 -111h224l40.5 121z" />
    <glyph glyph-name="dollar.oldstyle" unicode="$" horiz-adv-x="860" 
d="M743 293q0 -79 -40.5 -139.5t-109.5 -97.5q-60 -32 -137 -48t-168 -16h-29.5h-24.5l4 -354h-123l2.5 110.5t1.5 104.5q-1 106 -2.5 187t-1.5 87q21 -2 81.5 -4t98.5 -2q18 0 74 2t108 22q46 18 77.5 49t31.5 87q0 37 -20 64.5t-58 51.5q-47 30 -117 60.5t-117 58.5
q-68 41 -100.5 95t-32.5 128q0 60 30 116t90 96q48 32 119 50.5t161 18.5h24h19l-5 340h123l-2 -106.5t-1 -98.5q0 -102 1.5 -182t1.5 -88q-9 1 -54.5 3.5t-115.5 2.5q-41 0 -80.5 -6.5t-72.5 -22.5q-44 -22 -64 -54.5t-20 -60.5q0 -33 21 -61t53 -48q47 -29 114 -57.5
t123 -64.5q58 -37 97.5 -91t39.5 -132z" />
    <glyph glyph-name="percent.oldstyle" unicode="%" horiz-adv-x="2022" 
d="M847 940q0 -81 -29 -155.5t-86 -126.5q-53 -51 -117 -77.5t-151 -26.5q-80 0 -149 28t-117 76q-55 54 -84 126t-29 158q0 81 27 150.5t76 121.5q48 51 120 82t158 31q85 0 156 -30t118 -79q49 -49 78 -121t29 -157zM1478 1283l-238 -358.5l-228 -349.5l-290 -454.5
l-147 -234.5l-101 71l148 227.5l293 449.5l226.5 350.5l235.5 368.5zM1891 355q0 -81 -29 -155.5t-86 -126.5q-53 -51 -117 -77.5t-151 -26.5q-80 0 -149 28t-117 76q-55 54 -84 126t-29 158q0 81 27 150.5t76 121.5q48 51 120 82t158 31q85 0 156 -30t118 -79
q49 -49 78 -121t29 -157zM705 932q0 67 -18.5 121t-58.5 92q-29 31 -70.5 48t-91.5 17q-49 0 -90.5 -16.5t-72.5 -47.5q-34 -32 -55.5 -89.5t-21.5 -116.5q0 -64 19.5 -117.5t62.5 -94.5q30 -30 71 -45.5t85 -15.5t88 16.5t72 44.5q40 39 60.5 89t20.5 115zM1749 347
q0 67 -18.5 121t-58.5 92q-29 31 -70.5 48t-91.5 17q-49 0 -90.5 -16.5t-72.5 -47.5q-34 -32 -55.5 -89.5t-21.5 -116.5q0 -64 19.5 -117.5t62.5 -94.5q30 -30 71 -45.5t85 -15.5t88 16.5t72 44.5q40 39 60.5 89t20.5 115z" />
    <glyph glyph-name="ampersand" unicode="&#x26;" horiz-adv-x="1497" 
d="M1463 97l-86 -116l-330 252h-2q-128 -143 -238 -203.5t-240 -60.5q-185 0 -306.5 102t-121.5 273q0 117 70 222.5t171 183.5v2q-76 62 -114.5 132t-38.5 154q0 145 123.5 241.5t278.5 96.5q176 0 285.5 -91t109.5 -244q0 -107 -61.5 -205.5t-193.5 -211.5v-2
l145.5 -115.5l110.5 -86.5h2q102 137 187 275.5l92 149.5l123 -80l-121 -173.5t-180 -245.5v-2zM867 1025q0 102 -64.5 163.5t-175.5 61.5q-102 0 -171.5 -59t-69.5 -152q0 -77 72.5 -154t217.5 -188h2q107 89 148 167t41 161zM942 306v2l-209 163l-258 204h-2
q-107 -102 -138 -175t-31 -155q0 -112 78 -178t189 -66q115 0 203.5 55.5t167.5 149.5z" />
    <glyph glyph-name="quote.single" unicode="'" horiz-adv-x="430" 
d="M290 1422l-18 -497h-115l-16 497h149z" />
    <glyph glyph-name="paren.left" unicode="(" horiz-adv-x="850" 
d="M825 -321l-52 -110q-114 30 -235.5 108.5t-210.5 187.5q-92 113 -148 256.5t-56 311.5q0 152 49 295.5t131 265.5q88 129 219 234.5t251 158.5l52 -105q-121 -58 -226.5 -148.5t-179.5 -202.5q-66 -100 -106.5 -227t-40.5 -261q0 -148 46 -275t124 -226
q69 -88 177.5 -159.5t205.5 -103.5z" />
    <glyph glyph-name="paren.right" unicode=")" horiz-adv-x="850" 
d="M727 521q0 -150 -50 -297.5t-130 -263.5q-92 -133 -221.5 -237.5t-248.5 -154.5l-52 104q116 56 225.5 148.5t180.5 202.5q70 110 108.5 233.5t38.5 254.5q0 149 -46 276t-124 225q-71 90 -177.5 160t-205.5 103l52 111q113 -30 235 -109t211 -188q93 -115 148.5 -256
t55.5 -312z" />
    <glyph glyph-name="asterisk" unicode="*" horiz-adv-x="744" 
d="M448 1376l-15 -222h-121l-15 222h151zM680 997l-222 15v117l222 15v-147zM287 1012l-223 -15v147l223 -15v-117zM448 764h-151l15 223h121z" />
    <glyph glyph-name="plus.oldstyle" unicode="+" horiz-adv-x="1414" 
d="M1187 452h-426v-426h-110v426h-425v111h425v423h110v-423h426v-111z" />
    <glyph glyph-name="comma.oldstyle" unicode="," horiz-adv-x="532" 
d="M418 200v-8l-260 -493l-105 47q9 17 80 172.5t146 345.5z" />
    <glyph glyph-name="hyphen.oldstyle" unicode="-" horiz-adv-x="698" 
d="M621 512h-543v135h543v-135z" />
    <glyph glyph-name="period.oldstyle" unicode="." horiz-adv-x="532" 
d="M367 0h-201v213h201v-213z" />
    <glyph glyph-name="slash.front" unicode="/" horiz-adv-x="683" 
d="M716 1340l-161.5 -430l-155.5 -422l-217.5 -611t-106.5 -306l-127 47l112.5 305.5l218.5 600.5l154.5 427.5l155.5 434.5z" />
    <glyph glyph-name="zero.oldstyleproportional" unicode="0" horiz-adv-x="1272" 
d="M1159 503q0 -119 -40.5 -220.5t-113.5 -170.5q-72 -69 -166.5 -106t-204.5 -37q-109 0 -203.5 37t-163.5 106q-75 75 -114.5 174.5t-39.5 218.5q0 116 36.5 210.5t104.5 167.5q66 71 166 113t216 42q117 0 214 -40t163 -109q71 -74 108.5 -169.5t37.5 -216.5zM997 494
q0 96 -29.5 178.5t-84.5 138.5q-46 48 -108 74t-138 26q-85 0 -145 -28.5t-102 -70.5q-53 -52 -84 -135t-31 -171q0 -96 29.5 -176.5t92.5 -140.5q44 -43 104 -68t132 -25q74 0 135.5 24.5t106.5 68.5q59 56 90.5 134.5t31.5 170.5z" />
    <glyph glyph-name="one.oldstyleproportional" unicode="1" horiz-adv-x="780" 
d="M563 0h-156q1 32 4 180t3 411q0 46 -0.5 133t-1.5 136l-3 1q-44 -25 -129 -78l-182 -113l-57 88l254.5 177.5l153.5 106.5l114 -79q-2 -145 -3 -297t-1 -179q0 -118 1.5 -286.5t2.5 -200.5z" />
    <glyph glyph-name="two.oldstyleproportional" unicode="2" horiz-adv-x="1049" 
d="M1024 2q-14 0 -188 0.5t-257 0.5q-118 0 -283.5 -0.5t-174.5 -0.5l-38 113q84 41 195.5 103.5t174.5 111.5q99 76 150.5 144.5t51.5 162.5q0 73 -32.5 123.5t-91.5 80.5q-54 27 -123.5 38.5t-147.5 11.5q-27 0 -61.5 -1.5l-59.5 -2.5l14 133q17 1 50.5 2.5t71.5 1.5
q109 0 194 -15.5t158 -50.5q92 -44 143 -120.5t51 -183.5q0 -90 -41 -167t-102 -136q-63 -62 -153.5 -121t-178.5 -102l2 -6q43 4 107 7.5t127 4.5q126 2 277 3.5t165 1.5v-137z" />
    <glyph glyph-name="three.oldstyleproportional" unicode="3" horiz-adv-x="944" 
d="M836 94q0 -96 -55.5 -177.5t-164.5 -135.5q-91 -44 -194.5 -65.5t-262.5 -21.5q-24 0 -49 0.5t-36 1.5l-19 132h43.5h56.5q87 0 173 10t149 31q92 31 142.5 83.5t50.5 134.5q0 72 -52 122t-135 73q-35 10 -78 15t-102 5q-22 0 -41 -1t-33 -2l-18 123q188 19 286.5 81
t98.5 167q0 73 -35.5 118.5t-100.5 71.5q-46 18 -108 26t-122 8q-26 0 -53.5 -0.5t-35.5 -0.5l27 134h22.5h27.5q105 0 192.5 -10.5t172.5 -49.5q81 -37 130 -102t49 -163q0 -102 -68.5 -183.5t-168.5 -121.5v-4q143 -27 227 -98t84 -201z" />
    <glyph glyph-name="four.oldstyleproportional" unicode="4" horiz-adv-x="1203" 
d="M1188 162q-120 2 -206.5 3t-157.5 1q-2 -195 -0.5 -321t2.5 -158h-154q0 32 1.5 167l3.5 312l-572 -4l-64 119l452 507l219 253l117 -69q-4 -171 -4.5 -419t-0.5 -264q49 0 127 1l237 3v-131zM679 830l-2 1l-466 -540l1 -2q11 0 62.5 -0.5t153.5 -0.5h105t144 1v255.5
t2 285.5z" />
    <glyph glyph-name="five.oldstyleproportional" unicode="5" horiz-adv-x="980" 
d="M897 857q-8 0 -174 2t-385 2v-376q107 -7 191.5 -28t146.5 -51q98 -48 145 -125t47 -175t-59 -187t-162 -140q-77 -38 -181 -60t-238 -22h-40h-30l-18 133h26h27q108 0 206 15t161 45q74 36 108 88.5t34 121.5t-41.5 122.5t-131.5 87.5q-46 17 -117 27t-165 13
q-13 0 -30 0.5t-25 0.5q1 11 1 129.5v199.5q0 72 -0.5 190t-0.5 127q8 0 122 -0.5t223 -0.5q92 0 224 0.5t136 0.5v-140z" />
    <glyph glyph-name="six.oldstyleproportional" unicode="6" horiz-adv-x="1177" 
d="M1069 425q0 -92 -38.5 -179.5t-98.5 -144.5q-67 -64 -148.5 -98t-183.5 -34q-98 0 -186 31t-161 100q-57 54 -91.5 132.5t-34.5 181.5q0 108 42 214t173 262q126 150 243.5 274.5l205.5 219.5l115 -93l-190.5 -195l-191.5 -197v-2q64 -9 148 -32.5t157 -63.5
q118 -65 179 -160.5t61 -215.5zM907 415q0 93 -57.5 170.5t-157.5 126.5q-60 29 -134.5 46.5t-117.5 20.5q-68 -71 -109.5 -167.5t-41.5 -193.5q0 -75 27 -138t68 -102q44 -42 97.5 -62t118.5 -20q67 0 124.5 24t93.5 61q44 45 66.5 106t22.5 128z" />
    <glyph glyph-name="seven.oldstyleproportional" unicode="7" horiz-adv-x="992" 
d="M954 891l-433 -808.5l-208 -393.5l-128 61l393.5 730t195.5 381l-1 2h-90.5h-97.5q-184 0 -356 -3t-183 -3v140q9 0 136.5 -0.5t272.5 -0.5q111 0 262.5 0.5t167.5 0.5z" />
    <glyph glyph-name="eight.oldstyleproportional" unicode="8" horiz-adv-x="1184" 
d="M1052 350q0 -166 -134 -273.5t-325 -107.5q-199 0 -330 101.5t-131 269.5q0 97 60 180t177 168v2q-92 49 -143 118t-51 179q0 149 124.5 245.5t293.5 96.5q188 0 306 -92.5t118 -241.5q0 -98 -59 -183t-141 -143v-2q106 -49 170.5 -124t64.5 -193zM855 965
q0 111 -72.5 174t-188.5 63q-112 0 -184.5 -58.5t-72.5 -158.5q0 -65 37.5 -108.5t94.5 -73.5q41 -22 103.5 -46t120.5 -42q74 51 118 113.5t44 136.5zM890 335q0 64 -36.5 116t-113.5 92q-43 22 -115 49.5t-135 47.5q-83 -53 -139.5 -129t-56.5 -169q0 -104 86.5 -175
t208.5 -71q139 0 220 62t81 177z" />
    <glyph glyph-name="nine.oldstyleproportional" unicode="9" horiz-adv-x="1177" 
d="M1051 596q0 -120 -42.5 -218t-132.5 -212q-102 -129 -269.5 -305.5l-212.5 -222.5l-118 96l203.5 201.5l173.5 172.5l-1 2q-89 12 -184 43.5t-172 84.5q-82 56 -135 141.5t-53 206.5q0 98 36 175t95 138q63 65 153 102t191 37q104 0 191.5 -31t153.5 -96
q55 -55 89 -130.5t34 -184.5zM888 589q0 72 -25.5 134t-68.5 105q-39 39 -95.5 61t-119.5 22q-67 0 -123.5 -24t-97.5 -64q-41 -41 -64.5 -102.5t-23.5 -124.5q0 -94 51.5 -169t149.5 -125q61 -31 126 -48.5t140 -25.5q71 79 111 166.5t40 194.5z" />
    <glyph glyph-name="colon" unicode=":" horiz-adv-x="655" 
d="M428 797h-201v213h201v-213zM428 0h-201v213h201v-213z" />
    <glyph glyph-name="semicolon" unicode=";" horiz-adv-x="655" 
d="M438 797h-200v213h200v-213zM456 200v-8l-246 -459l-105 47q12 22 77.5 166t134.5 318z" />
    <glyph glyph-name="less.oldstyle" unicode="&#x3c;" horiz-adv-x="1414" 
d="M1137 167l-56 -104l-835 394v100l835 398l56 -106l-737 -339v-4z" />
    <glyph glyph-name="equal.oldstyle" unicode="=" horiz-adv-x="1414" 
d="M1153 628h-893v109h893v-109zM1153 284h-893v109h893v-109z" />
    <glyph glyph-name="greater.oldstyle" unicode="&#x3e;" horiz-adv-x="1414" 
d="M1168 457l-835 -394l-56 104l736 339v4l-736 339l56 106l835 -398v-100z" />
    <glyph glyph-name="question" unicode="?" horiz-adv-x="1143" 
d="M975 979q0 -91 -41.5 -162t-109.5 -125q-66 -51 -145.5 -94.5l-137.5 -75.5l2 -190h-148v270l139 64.5t133 75.5q75 56 108 107.5t33 119.5q0 93 -54 143.5t-147 72.5q-70 17 -144 19t-148 2l19 143q4 0 39 0.5t67 0.5q94 0 171.5 -12.5t152.5 -47.5q95 -44 153 -120.5
t58 -190.5zM575 0h-192v201h192v-201z" />
    <glyph glyph-name="at" unicode="@" horiz-adv-x="1842" 
d="M1721 574q0 -238 -171 -400.5t-456 -162.5q-85 0 -188 13.5t-159 39.5q-66 31 -111.5 86t-45.5 137q0 89 53 147t139 94q78 33 178 47.5t177 20.5q-5 63 -33.5 102.5t-80.5 61.5q-37 16 -81 22t-108 6q-35 0 -65.5 -2t-77.5 -4l14 125q11 1 52.5 3.5t107.5 2.5
q104 0 181 -21t131 -70q52 -47 76 -118t24 -185v-217v-171q136 24 226.5 148.5t90.5 297.5q0 257 -182.5 416.5t-481.5 159.5q-301 0 -486 -192t-185 -465q0 -317 222 -517t567 -227l-12 -117q-408 32 -659 267t-251 603q0 332 232.5 551t568.5 219q351 0 572.5 -189
t221.5 -512zM1138 314v70t-1 98q-51 -2 -133 -14.5t-147 -37.5q-39 -15 -78 -49.5t-39 -86.5q0 -57 30 -91.5t81 -51.5q48 -16 96.5 -23.5t99.5 -7.5q18 0 48 0.5t42 1.5q0 16 0.5 66.5t0.5 125.5z" />
    <glyph glyph-name="A" unicode="A" horiz-adv-x="1358" 
d="M1346 53l-156 -80q-4 11 -62.5 149l-154.5 355h-598l-162 -361t-63 -143l-134 72q26 52 214.5 458.5l391.5 854.5h130l393 -868zM916 605l-114 255l-126 278h-4l-123 -270.5l-119 -262.5l1 -1h484z" />
    <glyph glyph-name="B" unicode="B" horiz-adv-x="1308" 
d="M1183 394q0 -100 -51.5 -180t-149.5 -131q-87 -45 -191 -65.5t-238 -20.5q-99 0 -203.5 3.5t-116.5 4.5q3 192 4 362.5t1 325.5q0 294 -2.5 465.5t-2.5 178.5q14 1 110.5 5t187.5 4q103 0 190 -13.5t147 -37.5q91 -36 143 -103.5t52 -165.5q0 -103 -65.5 -182.5
t-149.5 -108.5v-10q69 -6 134 -32.5t114 -75.5q43 -43 65 -95t22 -128zM1012 389q0 51 -18 91.5t-54 77.5q-34 34 -93.5 55t-129.5 21q-56 0 -90.5 -1t-45.5 -1l-16 120q74 2 130.5 17.5t100.5 46.5q42 30 69 76.5t27 104.5q0 61 -30 105.5t-82 70.5q-44 21 -108 31.5
t-137 10.5q-47 0 -86.5 -1.5t-50.5 -1.5q-3 -146 -3.5 -310t-0.5 -238q0 -172 1.5 -345.5t1.5 -185.5q20 -1 53.5 -2.5t64.5 -1.5q115 0 213.5 12t166.5 50q56 31 86.5 81t30.5 117z" />
    <glyph glyph-name="C" unicode="C" horiz-adv-x="1182" 
d="M1120 123l-5.5 -50.5t-8.5 -90.5h-17.5h-17.5q-244 0 -434 61.5t-312 178.5q-85 81 -134.5 194t-49.5 258q0 130 49 237.5t128 187.5q115 116 309 184t415 68h25h20q1 -18 4 -57.5t7 -85.5h-17h-17q-125 0 -259 -27.5t-231 -82.5q-126 -72 -194 -184.5t-68 -242.5
q0 -135 61 -245.5t193 -185.5q108 -62 241.5 -90t265.5 -28h19t28 1z" />
    <glyph glyph-name="D" unicode="D" horiz-adv-x="1497" 
d="M1354 662q0 -176 -86.5 -309t-224.5 -214q-120 -71 -267.5 -108t-331.5 -37q-70 0 -137 2t-74 2q0 5 2.5 230.5t2.5 427.5q0 107 -0.5 275t-4.5 408q10 0 91.5 1t87.5 1q207 0 367.5 -37t286.5 -117q146 -93 217 -223.5t71 -301.5zM1183 663q0 130 -56 236t-177 182
q-113 71 -250.5 99t-249.5 28h-31h-21q-2 -158 -2.5 -262t-0.5 -166q0 -44 0.5 -205.5t1.5 -447.5h25.5h25.5q130 0 261 30.5t221 84.5q114 68 183.5 172.5t69.5 248.5z" />
    <glyph glyph-name="E" unicode="E" horiz-adv-x="1237" 
d="M1084 2q-9 0 -133 1t-307 1q-127 0 -232.5 -1t-178.5 -1q2 58 3.5 251t1.5 399q0 113 -1 299t-4 385q71 0 177.5 -1t219.5 -1q191 0 311 1t130 1v-139q-10 0 -125.5 1.5t-287.5 1.5q-75 0 -147 -0.5t-114 -0.5q0 -113 -2 -225.5t-2 -212.5q45 0 106.5 -0.5t109.5 -0.5
q176 0 314.5 1.5t147.5 1.5v-138q-8 0 -165 1.5t-287 1.5q-48 0 -114.5 -0.5t-111.5 -0.5q0 -189 1 -300t2 -186q59 -1 143 -1.5t181 -0.5q149 0 250.5 1t113.5 1v-139z" />
    <glyph glyph-name="F" unicode="F" horiz-adv-x="1167" 
d="M1053 1197q-17 0 -131 1.5t-280 1.5q-75 0 -137.5 -0.5t-106.5 -0.5q0 -113 -2 -245t-2 -232q12 0 69 -0.5t109 -0.5q164 0 309.5 1.5t161.5 1.5v-138q-19 0 -184.5 1.5t-296.5 1.5q-41 0 -98 -0.5t-70 -0.5q0 -177 1.5 -334.5t2.5 -253.5h-165q2 60 3.5 213.5t1.5 441.5
q0 113 -1 298t-4 383q73 0 178.5 -1t222.5 -1q175 0 289 1t130 1v-139z" />
    <glyph glyph-name="G" unicode="G" horiz-adv-x="1410" 
d="M1223 688q-2 -72 -4 -168.5t-2 -159.5q0 -101 2 -225.5t2 -138.5q-9 -1 -60 -4.5t-99 -3.5q-238 0 -420.5 51t-316.5 178q-83 78 -133.5 193.5t-50.5 263.5q0 182 96.5 325.5t265.5 231.5q115 60 261.5 90.5t305.5 30.5q25 0 46.5 -0.5t38.5 -0.5l12 -144q-4 0 -32 0.5
t-45 0.5q-153 0 -280 -26t-222 -76q-129 -68 -202.5 -185t-73.5 -249q0 -167 76.5 -276.5t197.5 -171.5q108 -55 228.5 -77.5t248.5 -22.5q0 16 -1 155.5t-4 408.5h165z" />
    <glyph glyph-name="H" unicode="H" horiz-adv-x="1599" 
d="M1366 0h-165q1 60 2.5 221.5t1.5 402.5q-15 0 -178 0.5t-245 0.5q-99 0 -237.5 -0.5t-150.5 -0.5q0 -278 1.5 -421t2.5 -203h-165q1 60 3 213t2 517q0 110 -1.5 268t-3.5 341h165q0 -152 -2 -298.5t-2 -278.5q12 0 130.5 -0.5t258.5 -0.5q108 0 260 0.5t162 0.5
q0 132 -2 278t-2 299h165q-2 -151 -3.5 -349t-1.5 -323q0 -294 2 -450.5t3 -216.5z" />
    <glyph glyph-name="I" unicode="I" horiz-adv-x="635" 
d="M400 0h-165q1 60 3 214t2 442q0 114 -1 299t-4 384h165q-2 -143 -3.5 -332.5t-1.5 -309.5q0 -304 2 -470.5t3 -226.5z" />
    <glyph glyph-name="J" unicode="J" horiz-adv-x="770" 
d="M564 1339q0 -79 -1.5 -170t-1.5 -284v-211v-234q0 -86 -21 -161t-74 -135q-54 -62 -152.5 -107t-258.5 -60l-20 137q110 13 175.5 31.5t110.5 60.5q44 41 63 100.5t19 154.5q0 103 0.5 202.5t0.5 187.5q0 213 -2 311t-3 177h165z" />
    <glyph glyph-name="K" unicode="K" horiz-adv-x="1292" 
d="M398 0h-165q2 60 3.5 264t1.5 491q0 117 -1.5 271t-3.5 313h165q-2 -153 -3 -346t-1 -333q0 -288 1.5 -444t2.5 -216zM1265 92l-115 -110l-461 433l-254 230v4l265.5 273l406.5 432l113 -101l-353 -351.5l-228 -234.5v-2l197.5 -182.5z" />
    <glyph glyph-name="L" unicode="L" horiz-adv-x="1104" 
d="M1053 2q-12 0 -126.5 1t-292.5 1q-117 0 -222.5 -1t-178.5 -1q2 172 3.5 348.5t1.5 346.5q0 284 -2 433t-3 209h165q-2 -129 -3 -298t-1 -277q0 -263 1 -439t1 -186q41 0 99 -0.5t105 -0.5q179 0 311.5 1.5t141.5 1.5v-139z" />
    <glyph glyph-name="M" unicode="M" horiz-adv-x="1939" 
d="M1849 20l-163 -32l-206 1123h-2l-173 -376l-261 -592h-138l-263 594.5l-169 372.5h-2q-6 -26 -81 -382.5t-143 -737.5l-154 28q100 431 187 854t95 459l159 23l141.5 -322l309.5 -689h6l288 652l158 359l151 -12q3 -22 83 -438.5z" />
    <glyph glyph-name="N" unicode="N" horiz-adv-x="1618" 
d="M1385 1339q-2 -157 -3.5 -359t-1.5 -291q0 -284 2 -451.5t2 -178.5l-133 -65l-564.5 736.5l-303.5 379.5l-2 -1q0 -268 3.5 -658.5t4.5 -450.5h-156q1 25 3 178t2 426q0 109 -1 289.5t-4 382.5l152 72l306.5 -389l543.5 -680l2 1q0 154 -4 518.5t-4 540.5h156z" />
    <glyph glyph-name="O" unicode="O" horiz-adv-x="1548" 
d="M1419 669q0 -162 -55.5 -297.5t-144.5 -223.5q-99 -98 -210 -142.5t-238 -44.5q-124 0 -234 42.5t-198 126.5q-97 91 -156.5 229.5t-59.5 311.5q0 154 47 280.5t141 227.5q87 94 207 145.5t253 51.5q135 0 250 -48.5t199 -134.5q98 -100 148.5 -235.5t50.5 -288.5z
M1248 653q0 130 -43.5 255.5t-132.5 210.5q-60 58 -134.5 90t-166.5 32q-90 0 -167.5 -32.5t-140.5 -95.5q-80 -80 -124.5 -198t-44.5 -246q0 -144 45.5 -258t128.5 -193q57 -55 135 -88.5t167 -33.5t166.5 32.5t140.5 93.5q75 72 123 183.5t48 247.5z" />
    <glyph glyph-name="P" unicode="P" horiz-adv-x="1157" 
d="M1071 881q0 -146 -94.5 -264t-252.5 -160q-68 -18 -148.5 -26t-179.5 -8l2 -423h-165q1 60 3 222.5t2 502.5q0 108 -1 265t-4 349q43 1 84.5 1h67.5q173 0 294.5 -22t204.5 -75q91 -57 139 -148.5t48 -213.5zM900 881q0 103 -47 175.5t-144 114.5q-60 26 -130 32.5
t-144 6.5h-18h-19q0 -11 -2 -150t-2 -220q0 -74 0.5 -175t0.5 -115h21h19q67 0 142.5 9t129.5 33q94 40 143.5 111t49.5 178z" />
    <glyph glyph-name="Q" unicode="Q" horiz-adv-x="1548" 
d="M771 -39q-123 0 -234.5 44t-197.5 125q-97 91 -156.5 229.5t-59.5 311.5q0 154 47 280.5t141 227.5q87 94 207 145.5t253 51.5q135 0 250 -48.5t199 -134.5q98 -100 148.5 -235.5t50.5 -288.5t-69.5 -311.5t-197.5 -259.5q-98 -78 -194.5 -107.5t-186.5 -29.5zM1248 653
q0 130 -43.5 255.5t-132.5 210.5q-60 58 -134.5 90t-166.5 32q-90 0 -167.5 -32.5t-140.5 -95.5q-80 -80 -124.5 -198t-44.5 -246q0 -144 45.5 -258t128.5 -193q57 -55 135 -88.5t167 -33.5q59 0 141.5 20.5t155.5 88.5q85 79 133 199t48 249zM770 425l122 98l203 -244.5
l348 -401.5l-96 -87l-369 404.5z" />
    <glyph glyph-name="R" unicode="R" horiz-adv-x="1298" 
d="M1266 80l-125 -103q-22 23 -156 173.5l-413 469.5l1 9q38 10 101 43.5t106 72.5q37 34 64.5 84t27.5 134q0 77 -40.5 132.5t-111.5 81.5q-58 22 -122 26.5t-118 4.5q-36 0 -55 -0.5t-28 -0.5q-2 -190 -2.5 -335t-0.5 -205q0 -137 1.5 -372t2.5 -295h-165q1 60 3 232.5
t2 429.5v185t-5 492q10 0 100 2t166 2q87 0 169 -10t160 -43q99 -42 157 -123.5t58 -191.5q0 -142 -87.5 -236.5t-165.5 -140.5v-5q137 -160 300.5 -330z" />
    <glyph glyph-name="S" unicode="S" horiz-adv-x="1032" 
d="M903 377q0 -103 -48.5 -180.5t-130.5 -125.5q-75 -44 -172 -66.5t-215 -22.5q-64 0 -132.5 4t-79.5 5l-8 144q14 -2 78 -7.5t151 -5.5q53 0 137 14t129 36q59 29 90.5 70t31.5 104q0 67 -31.5 113.5t-104.5 89.5q-47 28 -122 63t-135 72q-102 62 -145.5 135.5
t-43.5 163.5q0 92 39.5 159.5t102.5 115.5q64 48 156.5 72t205.5 24q62 0 125.5 -3.5t72.5 -4.5l14 -145q-9 1 -73 7t-158 6q-56 0 -115.5 -12.5t-104.5 -38.5q-40 -23 -68 -64t-28 -96q0 -49 29.5 -94.5t110.5 -93.5q41 -25 108.5 -57.5t132.5 -70.5q100 -59 150.5 -135.5
t50.5 -174.5z" />
    <glyph glyph-name="T" unicode="T" horiz-adv-x="1167" 
d="M1157 1197q-16 0 -134 1t-357 1l-3 -311t-1 -289q0 -176 1.5 -357.5t2.5 -241.5h-165q2 60 3.5 245t1.5 362v276.5t-3 315.5q-213 1 -345.5 -0.5t-145.5 -1.5v139q103 0 250.5 -1t314.5 -1q242 0 404.5 1t175.5 1v-139z" />
    <glyph glyph-name="U" unicode="U" horiz-adv-x="1547" 
d="M1324 1339q0 -192 -2 -317.5t-2 -218.5q0 -114 0.5 -194.5t0.5 -139.5q0 -116 -34.5 -204.5t-104.5 -154.5t-172 -103.5t-236 -37.5t-236 37t-173 104q-70 66 -104.5 154.5t-34.5 204.5q0 59 0.5 139.5t0.5 194.5q0 93 -2 218.5t-2 317.5h165q-1 -25 -2.5 -170.5
t-1.5 -382.5q0 -72 0.5 -149t0.5 -158q0 -183 105 -277.5t284 -94.5q194 0 291 90t97 282q0 81 0.5 158t0.5 149q0 237 -2 388t-2 165h165z" />
    <glyph glyph-name="V" unicode="V" horiz-adv-x="1358" 
d="M1341 1292q-5 -12 -211.5 -456l-394.5 -856h-133l-396 873l-198 431l156 78q7 -20 180.5 -416.5l334.5 -746.5h2l340.5 756t182.5 409z" />
    <glyph glyph-name="W" unicode="W" horiz-adv-x="2140" 
d="M2060 1309q-169 -443 -314.5 -869.5t-152.5 -445.5h-139q-5 19 -107.5 318.5t-270.5 745.5h-2l-270.5 -705.5l-131.5 -358.5h-142q-8 29 -128.5 392.5t-321.5 909.5l164 64q4 -14 117 -352l259 -759h2q154 388 268.5 711t119.5 338h155q4 -17 121.5 -366l238.5 -683h2
q160 437 270 766t114 345z" />
    <glyph glyph-name="X" unicode="X" horiz-adv-x="1257" 
d="M1210 86l-131 -111q-12 17 -130 173l-320 419h-2l-311.5 -397t-147.5 -193l-121 101q7 8 120.5 145.5l366.5 453.5v2l-282 363.5t-176 223.5l131 98q13 -18 137 -180l292 -380h2l283 364l152 196l119 -88l-186.5 -234l-281.5 -349v-2l327.5 -407t158.5 -198z" />
    <glyph glyph-name="Y" unicode="Y" horiz-adv-x="1186" 
d="M1176 1274l-198 -249l-306 -386q-2 -181 0.5 -380t3.5 -259h-165q2 60 4 262.5t1 364.5l-302 389.5l-194 245.5l132 100l157 -210l290 -383h2l295.5 381.5t162.5 211.5z" />
    <glyph glyph-name="Z" unicode="Z" horiz-adv-x="1223" 
d="M1174 2q-173 1 -298 1.5t-227 0.5q-225 0 -377.5 -1t-169.5 -1l-45 104l384.5 478.5l476.5 612.5l-1 2q-94 1 -168 1h-124q-191 0 -337.5 -1.5t-166.5 -1.5v139q80 0 196 -1t253 -1q210 0 359 1t167 1l49 -104l-300.5 -375.5l-558.5 -706.5l1 -2q63 -1 150 -2t196 -1
q215 0 373 2.5t168 2.5v-148z" />
    <glyph glyph-name="bracket.left" unicode="[" horiz-adv-x="850" 
d="M778 -404h-580q0 35 2 249.5t2 623.5q0 158 -0.5 410.5t-3.5 496.5h580v-118h-436q-2 -246 -2.5 -439.5t-0.5 -339.5q0 -310 2 -489.5t2 -275.5h435v-118z" />
    <glyph glyph-name="slash.back" unicode="\" horiz-adv-x="683" 
d="M726 -382l-127 -47q-14 38 -106.5 306l-217.5 611l-155.5 422l-161.5 430l127 46l155 -434.5l155 -427.5l218.5 -600.5z" />
    <glyph glyph-name="bracket.right" unicode="]" horiz-adv-x="850" 
d="M652 -404h-580v118h435q0 106 2 305t2 460q0 132 -0.5 353t-2.5 426h-436v118h580q-3 -243 -3.5 -500t-0.5 -407q0 -280 2 -559t2 -314z" />
    <glyph glyph-name="circumflex.ascii" unicode="^" horiz-adv-x="1414" 
d="M1151 470l-105 -57l-337 715h-4l-337 -715l-103 57l391 812h100z" />
    <glyph glyph-name="underscore" unicode="_" horiz-adv-x="1024" 
d="M1024 -269h-1024v112h1024v-112z" />
    <glyph glyph-name="grave" unicode="`" horiz-adv-x="800" 
d="M561 1224l-62 -93l-439 232l72 113z" />
    <glyph glyph-name="a" unicode="a" horiz-adv-x="1052" 
d="M878 570q0 -248 -1 -404t-1 -168q-10 -1 -93 -7.5t-214 -6.5q-82 0 -165 15t-143 43q-80 37 -129.5 101t-49.5 154q0 95 58.5 164.5t162.5 112.5q65 27 173.5 48.5t247.5 32.5q-6 78 -39 128t-97 76q-44 18 -98 25.5t-126 7.5q-45 0 -76.5 -2t-85.5 -5l16 133
q15 1 59.5 3.5t121.5 2.5q118 0 210.5 -24.5t153.5 -79.5q57 -52 86 -128.5t29 -221.5zM725 329v86t-1 120q-44 -2 -154 -17.5t-185 -44.5q-56 -21 -99.5 -63t-43.5 -104q0 -68 37 -109.5t101 -63.5q49 -17 108.5 -24.5t125.5 -7.5q20 0 49 1t61 2q0 7 0.5 66t0.5 159z" />
    <glyph glyph-name="b" unicode="b" horiz-adv-x="1134" 
d="M1047 514q0 -164 -80.5 -282t-217.5 -176q-89 -38 -203 -55.5t-274 -17.5h-45h-44q1 77 2.5 286t1.5 503q0 180 -1 349t-3 345h158l-3 -461q205 -2 328.5 -36.5t205.5 -93.5q85 -61 130 -152.5t45 -208.5zM887 510q0 121 -68.5 203t-176.5 119q-56 19 -121 29.5
t-134 10.5h-26.5h-22.5q0 -22 -0.5 -159.5t-0.5 -226.5q0 -167 1 -236t1 -140q110 0 201 16.5t157 51.5q96 51 143 134.5t47 197.5z" />
    <glyph glyph-name="c" unicode="c" horiz-adv-x="930" 
d="M850 130l-12 -134h-25.5h-29.5q-129 0 -241 24.5t-201 72.5q-121 66 -189 175t-68 243q0 120 62 220.5t162 164.5q90 58 215.5 88.5t259.5 30.5h22.5h18.5l8 -134h-15.5h-15.5q-111 0 -189.5 -13.5t-152.5 -44.5q-99 -40 -157 -126t-58 -184q0 -117 54.5 -196.5
t144.5 -122.5q70 -34 158 -49t186 -15h36h27z" />
    <glyph glyph-name="d" unicode="d" horiz-adv-x="1135" 
d="M952 -16q-6 0 -38 -0.5t-51 -0.5q-189 0 -296 16.5t-209 65.5q-133 64 -202 170t-69 236q0 152 77 269.5t222 183.5q85 40 195 60.5t216 20.5l-3 461h158q0 -20 -2 -280t-2 -527q0 -211 1.5 -381.5zM797 687v88v97q-100 0 -188.5 -17t-151.5 -46q-100 -46 -155 -131.5
t-55 -200.5q0 -103 53 -177t132 -116q69 -37 155.5 -55.5t181.5 -18.5h13h13q0 9 1 149.5t1 427.5z" />
    <glyph glyph-name="e" unicode="e" horiz-adv-x="1044" 
d="M963 543h-723q1 -106 45 -194.5t135 -146.5q58 -37 132 -55.5t178 -18.5q57 0 104.5 3t58.5 4l-18 -133q-8 -1 -53 -3.5t-106 -2.5q-160 0 -278.5 41.5t-194.5 114.5q-65 61 -110.5 156t-45.5 211q0 114 34 206t102 171q59 68 146.5 105t181.5 37q93 0 165 -28t125 -85
q59 -64 90 -157.5t32 -224.5zM808 655q-16 124 -84.5 194.5t-180.5 70.5t-187 -71.5t-104 -193.5h556z" />
    <glyph glyph-name="f" unicode="f" horiz-adv-x="752" 
d="M762 1339h-22h-28q-94 0 -148 -17t-97 -58q-33 -31 -50.5 -85.5t-17.5 -121.5v-45h340v-117h-340q0 -324 1.5 -601.5t1.5 -293.5h-158q0 16 2 281.5t2 613.5h-197v117h197v49q0 88 23 157.5t81 130.5q50 52 133 85t204 33h30.5h23.5z" />
    <glyph glyph-name="g" unicode="g" horiz-adv-x="1128" 
d="M948 1021q0 -22 -1.5 -198t-1.5 -335q0 -108 1 -220t1 -205q0 -171 -58.5 -268t-166.5 -155q-85 -44 -207 -69.5t-296 -25.5l-16 127q117 2 210 12.5t169 38.5q117 44 163 116.5t48 176.5h-24h-24q-119 0 -245 28.5t-215 90.5q-88 59 -143 154t-55 235t77 247t206 170
q92 45 200.5 62.5t262.5 17.5h55.5h59.5zM795 489q0 72 -0.5 180t-2.5 225h-13h-13q-93 0 -162.5 -12t-146.5 -45q-102 -44 -156 -129t-54 -192q0 -110 53.5 -188t143.5 -121q61 -29 141.5 -47t170.5 -18h20h17q0 12 1 111.5t1 235.5z" />
    <glyph glyph-name="h" unicode="h" horiz-adv-x="1190" 
d="M1013 0h-158q1 30 2.5 180.5t1.5 198.5q0 52 -0.5 153.5t-1.5 148.5q-3 115 -44 165t-142 50q-57 0 -146 -34.5t-188 -93.5l4 -768h-158q1 39 2.5 314.5t1.5 453.5q0 116 -0.5 292.5t-3.5 405.5h158l-4 -569l1 -1q143 80 234 111t156 31q128 0 205.5 -80.5t77.5 -220.5
q0 -126 -1.5 -217.5t-1.5 -148.5q0 -91 2 -209t3 -162z" />
    <glyph glyph-name="i" unicode="i" horiz-adv-x="545" 
d="M361 1206h-176v172h176v-172zM352 0h-158q1 16 2.5 197t1.5 299q0 103 -0.5 226.5t-3.5 289.5h158q-2 -144 -3.5 -269.5t-1.5 -223.5q0 -233 2.5 -374t2.5 -145z" />
    <glyph glyph-name="j" unicode="j" horiz-adv-x="553" 
d="M382 1206h-176v172h176v-172zM372 6q0 -95 -27 -179t-92 -144q-57 -52 -142.5 -87.5t-224.5 -49.5l-34 122q96 11 168 33t114 60q45 41 65 104t20 172q0 251 -2 609t-2 366h157q0 -14 -1 -155t-1 -336q0 -126 1 -264.5t1 -250.5z" />
    <glyph glyph-name="k" unicode="k" horiz-adv-x="1075" 
d="M341 0h-158q1 18 2.5 270t1.5 516q0 113 -0.5 285t-3.5 395h158q-3 -177 -3.5 -411t-0.5 -278q0 -103 2 -431.5t2 -345.5zM1057 20l-95 -87l-394.5 392l-191.5 184v2q24 22 210 212.5l301 312.5l97 -100l-249.5 -242.5l-163.5 -159.5v-1l146.5 -154z" />
    <glyph glyph-name="l" unicode="l" horiz-adv-x="546" 
d="M352 0h-158q1 12 2.5 292.5t1.5 465.5q0 119 -0.5 300.5t-3.5 407.5h158q-2 -154 -3 -356.5t-1 -341.5q0 -303 2 -530t2 -238z" />
    <glyph glyph-name="m" unicode="m" horiz-adv-x="1794" 
d="M1617 0h-158q1 11 2.5 140t1.5 243q0 45 -0.5 147.5t-1.5 153.5q-3 120 -47.5 166t-137.5 46q-55 0 -130.5 -27t-170.5 -84q0 -5 0.5 -20t0.5 -39q0 -81 -1 -164.5t-1 -159.5q0 -166 2.5 -279t2.5 -123h-158q0 11 2 121t2 260q0 50 -0.5 151.5t-1.5 149.5q-1 44 -8 84
t-26 68q-21 31 -54 46.5t-94 15.5q-56 0 -131 -32.5t-172 -93.5q0 -17 -1 -127.5t-1 -180.5q0 -119 2.5 -285.5t2.5 -176.5h-158q0 8 2 116.5t2 359.5q0 82 -0.5 221t-3.5 315h156l-1 -115l1 -1q67 48 168.5 95t179.5 47q98 0 163.5 -41t93.5 -104h2q115 71 211.5 108
t164.5 37q138 0 215.5 -80.5t77.5 -217.5q0 -106 -1.5 -178.5t-1.5 -153.5q0 -168 2.5 -284t2.5 -124z" />
    <glyph glyph-name="n" unicode="n" horiz-adv-x="1190" 
d="M1013 0h-158q1 28 2.5 185t1.5 194q0 52 -0.5 153.5t-1.5 148.5q-3 115 -44 165t-142 50q-61 0 -151 -36t-182 -92q0 -11 -1 -119t-1 -197q0 -116 2.5 -280t2.5 -172h-158q0 7 2 122.5t2 343.5q0 105 -0.5 246t-3.5 300h156l-1 -115l1 -2q140 80 233.5 111.5t155.5 31.5
q128 0 205.5 -80.5t77.5 -220.5q0 -126 -1.5 -217.5t-1.5 -148.5q0 -91 2.5 -227.5t2.5 -143.5z" />
    <glyph glyph-name="o" unicode="o" horiz-adv-x="1165" 
d="M1072 506q0 -116 -41.5 -222t-119.5 -181q-66 -63 -146.5 -96t-182.5 -33q-96 0 -180 32.5t-150 95.5q-76 73 -117.5 180t-41.5 226q0 115 35.5 211.5t110.5 173.5q67 70 156 107.5t188 37.5q104 0 188.5 -34.5t150.5 -103.5q76 -79 113 -177.5t37 -216.5zM912 499
q0 94 -30.5 183t-94.5 150q-39 38 -92.5 58.5t-111.5 20.5q-69 0 -120 -22t-96 -69q-53 -54 -83.5 -138t-30.5 -174q0 -102 31 -187.5t100 -147.5q39 -35 90 -53.5t108 -18.5q63 0 117.5 22t95.5 64q57 58 87 140t30 172z" />
    <glyph glyph-name="p" unicode="p" horiz-adv-x="1136" 
d="M1049 537q0 -155 -69 -263.5t-186 -171.5q-102 -54 -224 -76t-232 -22l4 -459h-159q1 17 2.5 276.5t1.5 520.5q0 131 -1 304.5t-3 373.5q32 1 63.5 1h48.5q210 0 326 -22t211 -78q101 -59 159 -157.5t58 -226.5zM889 532q0 98 -46 172t-120 117q-67 38 -152.5 55.5
t-185.5 17.5h-22h-23q0 -17 -1.5 -118.5t-1.5 -350.5q0 -52 0.5 -146t0.5 -150q94 0 188 17.5t155 47.5q102 50 155 133t53 205z" />
    <glyph glyph-name="q" unicode="q" horiz-adv-x="1132" 
d="M954 -455h-159l4 457q-135 0 -235.5 17.5t-175.5 49.5q-147 63 -224 175.5t-77 275.5q0 125 68.5 233t186.5 172q100 55 215 75.5t296 20.5h50h51q-2 -199 -3 -406t-1 -252q0 -209 2 -504.5t2 -313.5zM800 421q0 239 -1.5 350.5t-1.5 122.5q-108 0 -195.5 -15t-170.5 -57
q-86 -43 -135 -124.5t-49 -181.5q0 -115 53.5 -197.5t154.5 -130.5q63 -30 138 -45t175 -15h16h15q0 55 0.5 131t0.5 162z" />
    <glyph glyph-name="r" unicode="r" horiz-adv-x="788" 
d="M768 894q-55 -13 -168.5 -55t-261.5 -112q0 -11 -1 -100.5t-1 -166.5q0 -118 2.5 -280t2.5 -180h-158q0 17 2 112t2 325q0 93 -1 260t-3 315h155v-152l1 -1q113 64 223 111t176 64z" />
    <glyph glyph-name="s" unicode="s" horiz-adv-x="833" 
d="M733 293q0 -74 -36 -132t-94 -94q-61 -38 -144.5 -57.5t-184.5 -19.5q-49 0 -101.5 4.5t-59.5 5.5l-6 131q9 -1 69.5 -5.5t120.5 -4.5q35 0 90 6t91 22q50 22 74 54t24 77q0 41 -21 66.5t-58 49.5q-40 27 -109.5 57.5t-116.5 58.5q-67 41 -102.5 97t-35.5 130t40.5 133
t108.5 95q59 32 130.5 42.5t138.5 10.5q61 0 100 -2t45 -2l11 -133q-7 0 -61.5 4t-119.5 4q-46 0 -87.5 -8t-70.5 -23q-43 -22 -61.5 -53t-18.5 -60q0 -40 26 -69t61 -49q41 -24 112 -57t103 -53q70 -44 106.5 -98t36.5 -128z" />
    <glyph glyph-name="t" unicode="t" horiz-adv-x="803" 
d="M733 124l-18 -127q-7 -1 -34.5 -2t-47.5 -1q-205 0 -310 85.5t-105 262.5q0 111 1.5 238t1.5 315h-168v117h177v237h145v-237h358v-117h-358q0 -21 -1.5 -125t-1.5 -154v-103v-145q0 -130 70 -187.5t216 -57.5q18 0 43 0.5t32 0.5z" />
    <glyph glyph-name="u" unicode="u" horiz-adv-x="1190" 
d="M1007 0h-153v116l-1 1q-70 -46 -174.5 -94.5t-205.5 -48.5q-138 0 -216 82t-78 230q0 80 1.5 190.5t1.5 160.5q0 91 -2.5 224.5t-2.5 150.5h158q0 -13 -2 -144t-2 -209q0 -69 1 -172t1 -146q2 -118 41 -173t126 -55q89 0 195.5 48t156.5 84q0 12 1 110.5t1 245.5
q0 105 -2.5 251.5t-2.5 159.5h158q0 -17 -2 -112.5t-2 -325.5q0 -129 1 -226.5t3 -347.5z" />
    <glyph glyph-name="v" unicode="v" horiz-adv-x="1091" 
d="M1035 973l-277.5 -629.5l-151.5 -343.5h-117q-5 12 -146 325l-287 638l146 67l352 -833h2l342 831z" />
    <glyph glyph-name="w" unicode="w" horiz-adv-x="1645" 
d="M1590 973q-135 -330 -248 -646l-117 -327h-123l-80.5 236l-191.5 543h-2l-195 -518l-98 -261h-123q-7 28 -109 314t-245 653l146 65l276 -820h2l292 783h125l269 -783h2l283 816z" />
    <glyph glyph-name="x" unicode="x" horiz-adv-x="1028" 
d="M964 70l-122 -95q-5 8 -96.5 134l-233.5 307h-2q-134 -167 -230.5 -300t-104.5 -143l-113 90q13 13 120.5 141l245.5 300v2l-169 216l-176 221l120 91l150.5 -201.5l164.5 -216.5h2l150 195.5l165 220.5l114 -85l-178.5 -214l-170.5 -207v-2l252 -314.5z" />
    <glyph glyph-name="y" unicode="y" horiz-adv-x="1096" 
d="M1039 971l-410.5 -913.5l-229.5 -514.5l-138 51l207 429q-8 20 -125.5 292l-286.5 650l150 65l224 -549.5l120 -285.5h2q6 10 114 266l236 565z" />
    <glyph glyph-name="z" unicode="z" horiz-adv-x="977" 
d="M911 6q-5 0 -168.5 0.5t-241.5 0.5q-100 0 -241.5 -0.5t-148.5 -0.5l-33 94l264.5 340.5l336.5 436.5l-1 2q-43 0 -87.5 0.5t-85.5 0.5q-96 0 -244.5 -1.5t-156.5 -1.5v125q9 0 163 -0.5t189 -0.5q70 0 217.5 0.5t160.5 0.5l51 -94l-368 -471.5l-231 -301.5l1 -2
q38 0 99.5 -0.5t132.5 -0.5q202 0 294 1.5t98 1.5v-129z" />
    <glyph glyph-name="brace.left" unicode="{" horiz-adv-x="850" 
d="M814 -309l-8 -122q-191 0 -324.5 95.5t-133.5 285.5v88v87q0 91 -17 143.5t-54 83.5q-38 31 -98 45.5t-147 23.5v109q93 13 148.5 25t95.5 46q39 33 55.5 84t16.5 141v87.5v88.5q0 188 133.5 284t324.5 96l8 -122q-152 0 -239.5 -66.5t-87.5 -191.5v-88v-116
q0 -142 -62 -220t-159 -101v-3q102 -26 161.5 -104.5t59.5 -216.5v-109.5v-93.5q0 -124 87.5 -191.5t239.5 -67.5z" />
    <glyph glyph-name="bar.unbroken" unicode="|" horiz-adv-x="600" 
d="M359 -456h-116v1922h116v-1922z" />
    <glyph glyph-name="brace.right" unicode="}" horiz-adv-x="850" 
d="M818 421q-89 -9 -147 -23.5t-98 -45.5q-37 -31 -54 -84.5t-17 -142.5v-87v-88q0 -183 -128 -282t-330 -99l-8 122q152 0 239.5 66.5t87.5 192.5v87.5v115.5q0 128 52.5 206.5t168.5 114.5v3q-100 20 -160.5 103t-60.5 218v112v92q0 126 -87.5 192t-239.5 66l8 122
q202 0 330 -99.5t128 -280.5v-88.5v-87.5q0 -90 16.5 -141.5t55.5 -83.5q38 -30 99.5 -45.5t144.5 -25.5v-109z" />
    <glyph glyph-name="tilde.ascii.oldstyle" unicode="~" horiz-adv-x="1414" 
d="M1224 675q-28 -138 -116 -227t-212 -89q-52 0 -90.5 13.5t-72.5 38.5l-61 46l-64 48q-26 19 -52.5 29.5t-59.5 10.5q-70 0 -119 -55.5t-75 -163.5l-114 19q34 142 120 229t207 87q56 0 96 -16t68 -36l65 -48.5l60 -45.5q26 -20 50 -30t61 -10q78 0 126 63t69 156z" />
    <glyph glyph-name="empty.30" 
 />
    <glyph glyph-name="A_dieresis" unicode="&#xc4;" horiz-adv-x="1358" 
d="M1346 53l-156 -80q-4 11 -62.5 149l-154.5 355h-598l-162 -361t-63 -143l-134 72q26 52 214.5 458.5l391.5 854.5h130l393 -868zM916 605l-114 255l-126 278h-4l-123 -270.5l-119 -262.5l1 -1h484zM1012 1461h-191v183h191v-183zM550 1461h-191v183h191v-183z" />
    <glyph glyph-name="A_ring" unicode="&#xc5;" horiz-adv-x="1358" 
d="M1346 53l-156 -80q-4 11 -62.5 149l-154.5 355h-598l-162 -361t-63 -143l-134 72q26 52 214.5 458.5l391.5 854.5h130l393 -868zM916 605l-114 255l-126 278h-4l-123 -270.5l-119 -262.5l1 -1h484zM898 1597q0 -88 -62 -148.5t-151 -60.5q-87 0 -148 59.5t-61 149.5
t62.5 149.5t148.5 59.5t148.5 -60.5t62.5 -148.5zM801 1598q0 50 -32 83t-81 33t-82 -32.5t-33 -83.5q0 -50 33 -84t82 -34t81 34t32 84z" />
    <glyph glyph-name="C_cedilla" unicode="&#xc7;" horiz-adv-x="1182" 
d="M1126 -18q0 -111 -35 -186t-110 -117q-73 -37 -126.5 -49.5t-113.5 -12.5h-6.5h-5.5l-17 115q103 4 155 23t74 41q30 30 44.5 69.5t14.5 117.5q-223 15 -392 75.5t-278 165.5q-85 81 -137 193t-52 257q0 130 49 237.5t128 187.5q115 116 309 184t415 68h25h20
q1 -18 4 -57.5t7 -85.5h-17h-17q-125 0 -258.5 -27t-231.5 -83q-126 -72 -194 -184.5t-68 -242.5q0 -135 65.5 -244t197.5 -184q107 -61 251 -90t261 -29h14.5t24.5 1v-143z" />
    <glyph glyph-name="E_acute" unicode="&#xc9;" horiz-adv-x="1237" 
d="M1084 2q-9 0 -133 1t-307 1q-127 0 -232.5 -1t-178.5 -1q2 58 3.5 251t1.5 399q0 113 -1 299t-4 385q71 0 177.5 -1t219.5 -1q191 0 311 1t130 1v-139q-10 0 -125.5 1.5t-287.5 1.5q-75 0 -147 -0.5t-114 -0.5q0 -113 -2 -225.5t-2 -212.5q45 0 106.5 -0.5t109.5 -0.5
q176 0 314.5 1.5t147.5 1.5v-138q-8 0 -165 1.5t-287 1.5q-48 0 -114.5 -0.5t-111.5 -0.5q0 -189 1 -300t2 -186q59 -1 143 -1.5t181 -0.5q149 0 250.5 1t113.5 1v-139zM978 1621l-480 -185l-50 99l473 206z" />
    <glyph glyph-name="N_tilde" unicode="&#xd1;" horiz-adv-x="1618" 
d="M1385 1339q-2 -157 -3.5 -359t-1.5 -291q0 -284 2 -451.5t2 -178.5l-133 -65l-564.5 736.5l-303.5 379.5l-2 -1q0 -268 3.5 -658.5t4.5 -450.5h-156q1 25 3 178t2 426q0 109 -1 289.5t-4 382.5l152 72l306.5 -389l543.5 -680l2 1q0 154 -4 518.5t-4 540.5h156zM1201 1675
q-16 -85 -76 -157.5t-163 -72.5q-36 0 -68.5 13.5t-46.5 23.5q-19 14 -38.5 30.5t-39.5 31.5q-14 10 -30.5 15.5t-37.5 5.5q-39 0 -66.5 -39t-43.5 -102l-106 20q14 81 76 155.5t161 74.5q37 0 67.5 -11.5t49.5 -25.5q21 -15 42 -33t36 -29q14 -10 29 -15.5t38 -5.5
q39 0 67.5 38t43.5 103z" />
    <glyph glyph-name="O_dieresis" unicode="&#xd6;" horiz-adv-x="1548" 
d="M1419 669q0 -162 -55.5 -297.5t-144.5 -223.5q-99 -98 -210 -142.5t-238 -44.5q-124 0 -234 42.5t-198 126.5q-97 91 -156.5 229.5t-59.5 311.5q0 154 47 280.5t141 227.5q87 94 207 145.5t253 51.5q135 0 250 -48.5t199 -134.5q98 -100 148.5 -235.5t50.5 -288.5z
M1248 653q0 130 -43.5 255.5t-132.5 210.5q-60 58 -134.5 90t-166.5 32q-90 0 -167.5 -32.5t-140.5 -95.5q-80 -80 -124.5 -198t-44.5 -246q0 -144 45.5 -258t128.5 -193q57 -55 135 -88.5t167 -33.5t166.5 32.5t140.5 93.5q75 72 123 183.5t48 247.5zM1099 1461h-191v183
h191v-183zM637 1461h-191v183h191v-183z" />
    <glyph glyph-name="U_dieresis" unicode="&#xdc;" horiz-adv-x="1547" 
d="M1324 1339q0 -192 -2 -317.5t-2 -218.5q0 -114 0.5 -194.5t0.5 -139.5q0 -116 -34.5 -204.5t-104.5 -154.5t-172 -103.5t-236 -37.5t-236 37t-173 104q-70 66 -104.5 154.5t-34.5 204.5q0 59 0.5 139.5t0.5 194.5q0 93 -2 218.5t-2 317.5h165q-1 -25 -2.5 -170.5
t-1.5 -382.5q0 -72 0.5 -149t0.5 -158q0 -183 105 -277.5t284 -94.5q194 0 291 90t97 282q0 81 0.5 158t0.5 149q0 237 -2 388t-2 165h165zM1100 1461h-191v183h191v-183zM638 1461h-191v183h191v-183z" />
    <glyph glyph-name="a_acute" unicode="&#xe1;" horiz-adv-x="1052" 
d="M878 570q0 -248 -1 -404t-1 -168q-10 -1 -93 -7.5t-214 -6.5q-82 0 -165 15t-143 43q-80 37 -129.5 101t-49.5 154q0 95 58.5 164.5t162.5 112.5q65 27 173.5 48.5t247.5 32.5q-6 78 -39 128t-97 76q-44 18 -98 25.5t-126 7.5q-45 0 -76.5 -2t-85.5 -5l16 133
q15 1 59.5 3.5t121.5 2.5q118 0 210.5 -24.5t153.5 -79.5q57 -52 86 -128.5t29 -221.5zM725 329v86t-1 120q-44 -2 -154 -17.5t-185 -44.5q-56 -21 -99.5 -63t-43.5 -104q0 -68 37 -109.5t101 -63.5q49 -17 108.5 -24.5t125.5 -7.5q20 0 49 1t61 2q0 7 0.5 66t0.5 159z
M821 1363l-439 -232l-60 93l429 252z" />
    <glyph glyph-name="a_grave" unicode="&#xe0;" horiz-adv-x="1052" 
d="M878 570q0 -248 -1 -404t-1 -168q-10 -1 -93 -7.5t-214 -6.5q-82 0 -165 15t-143 43q-80 37 -129.5 101t-49.5 154q0 95 58.5 164.5t162.5 112.5q65 27 173.5 48.5t247.5 32.5q-6 78 -39 128t-97 76q-44 18 -98 25.5t-126 7.5q-45 0 -76.5 -2t-85.5 -5l16 133
q15 1 59.5 3.5t121.5 2.5q118 0 210.5 -24.5t153.5 -79.5q57 -52 86 -128.5t29 -221.5zM725 329v86t-1 120q-44 -2 -154 -17.5t-185 -44.5q-56 -21 -99.5 -63t-43.5 -104q0 -68 37 -109.5t101 -63.5q49 -17 108.5 -24.5t125.5 -7.5q20 0 49 1t61 2q0 7 0.5 66t0.5 159z
M644 1224l-62 -93l-439 232l72 113z" />
    <glyph glyph-name="a_circumflex" unicode="&#xe2;" horiz-adv-x="1052" 
d="M878 570q0 -248 -1 -404t-1 -168q-10 -1 -93 -7.5t-214 -6.5q-82 0 -165 15t-143 43q-80 37 -129.5 101t-49.5 154q0 95 58.5 164.5t162.5 112.5q65 27 173.5 48.5t247.5 32.5q-6 78 -39 128t-97 76q-44 18 -98 25.5t-126 7.5q-45 0 -76.5 -2t-85.5 -5l16 133
q15 1 59.5 3.5t121.5 2.5q118 0 210.5 -24.5t153.5 -79.5q57 -52 86 -128.5t29 -221.5zM725 329v86t-1 120q-44 -2 -154 -17.5t-185 -44.5q-56 -21 -99.5 -63t-43.5 -104q0 -68 37 -109.5t101 -63.5q49 -17 108.5 -24.5t125.5 -7.5q20 0 49 1t61 2q0 7 0.5 66t0.5 159z
M810 1177l-89 -68l-233 258h-2l-233 -258l-89 68l261 289h123z" />
    <glyph glyph-name="a_dieresis" unicode="&#xe4;" horiz-adv-x="1052" 
d="M878 570q0 -248 -1 -404t-1 -168q-10 -1 -93 -7.5t-214 -6.5q-82 0 -165 15t-143 43q-80 37 -129.5 101t-49.5 154q0 95 58.5 164.5t162.5 112.5q65 27 173.5 48.5t247.5 32.5q-6 78 -39 128t-97 76q-44 18 -98 25.5t-126 7.5q-45 0 -76.5 -2t-85.5 -5l16 133
q15 1 59.5 3.5t121.5 2.5q118 0 210.5 -24.5t153.5 -79.5q57 -52 86 -128.5t29 -221.5zM725 329v86t-1 120q-44 -2 -154 -17.5t-185 -44.5q-56 -21 -99.5 -63t-43.5 -104q0 -68 37 -109.5t101 -63.5q49 -17 108.5 -24.5t125.5 -7.5q20 0 49 1t61 2q0 7 0.5 66t0.5 159z
M803 1206h-169v170h169v-170zM371 1206h-169v170h169v-170z" />
    <glyph glyph-name="a_tilde" unicode="&#xe3;" horiz-adv-x="1052" 
d="M878 570q0 -248 -1 -404t-1 -168q-10 -1 -93 -7.5t-214 -6.5q-82 0 -165 15t-143 43q-80 37 -129.5 101t-49.5 154q0 95 58.5 164.5t162.5 112.5q65 27 173.5 48.5t247.5 32.5q-6 78 -39 128t-97 76q-44 18 -98 25.5t-126 7.5q-45 0 -76.5 -2t-85.5 -5l16 133
q15 1 59.5 3.5t121.5 2.5q118 0 210.5 -24.5t153.5 -79.5q57 -52 86 -128.5t29 -221.5zM725 329v86t-1 120q-44 -2 -154 -17.5t-185 -44.5q-56 -21 -99.5 -63t-43.5 -104q0 -68 37 -109.5t101 -63.5q49 -17 108.5 -24.5t125.5 -7.5q20 0 49 1t61 2q0 7 0.5 66t0.5 159z
M849 1420q-23 -109 -82 -167.5t-145 -58.5q-33 0 -59 11.5t-48 27.5l-32.5 26t-36.5 28q-11 9 -28 15t-35 6q-36 0 -62 -36.5t-42 -101.5l-101 20q22 105 80.5 165.5t143.5 60.5q31 0 57 -10t53 -29l36 -28.5t33 -25.5q13 -11 27.5 -16t35.5 -5q37 0 63.5 38.5t40.5 99.5z
" />
    <glyph glyph-name="a_ring" unicode="&#xe5;" horiz-adv-x="1052" 
d="M878 570q0 -248 -1 -404t-1 -168q-10 -1 -93 -7.5t-214 -6.5q-82 0 -165 15t-143 43q-80 37 -129.5 101t-49.5 154q0 95 58.5 164.5t162.5 112.5q65 27 173.5 48.5t247.5 32.5q-6 78 -39 128t-97 76q-44 18 -98 25.5t-126 7.5q-45 0 -76.5 -2t-85.5 -5l16 133
q15 1 59.5 3.5t121.5 2.5q118 0 210.5 -24.5t153.5 -79.5q57 -52 86 -128.5t29 -221.5zM725 329v86t-1 120q-44 -2 -154 -17.5t-185 -44.5q-56 -21 -99.5 -63t-43.5 -104q0 -68 37 -109.5t101 -63.5q49 -17 108.5 -24.5t125.5 -7.5q20 0 49 1t61 2q0 7 0.5 66t0.5 159z
M707 1289q0 -79 -57 -134.5t-137 -55.5t-135 55t-55 135q0 82 57 136t135 54t135 -54.5t57 -135.5zM619 1290q0 45 -29.5 75t-73.5 30q-45 0 -75 -29.5t-30 -75.5q0 -47 30.5 -77t74.5 -30t73.5 31t29.5 76z" />
    <glyph glyph-name="c_cedilla" unicode="&#xe7;" horiz-adv-x="930" 
d="M848 24q0 -110 -34.5 -187t-109.5 -118q-31 -17 -87.5 -36t-122.5 -23l-18 109q75 4 123.5 21.5t69.5 38.5q31 31 45.5 65.5t14.5 107.5q-107 5 -205.5 25.5t-181.5 65.5q-121 66 -189.5 175t-68.5 243q0 120 62 220.5t162 164.5q90 58 215.5 88.5t259.5 30.5h22.5h18.5
l8 -134h-15.5h-15.5q-111 0 -189.5 -13.5t-152.5 -44.5q-99 -40 -157 -126t-58 -184q0 -117 55.5 -196.5t145.5 -122.5q70 -34 162 -49t190 -15h30h21v-106z" />
    <glyph glyph-name="e_acute" unicode="&#xe9;" horiz-adv-x="1044" 
d="M963 543h-723q1 -106 45 -194.5t135 -146.5q58 -37 132 -55.5t178 -18.5q57 0 104.5 3t58.5 4l-18 -133q-8 -1 -53 -3.5t-106 -2.5q-160 0 -278.5 41.5t-194.5 114.5q-65 61 -110.5 156t-45.5 211q0 114 34 206t102 171q59 68 146.5 105t181.5 37q93 0 165 -28t125 -85
q59 -64 90 -157.5t32 -224.5zM808 655q-16 124 -84.5 194.5t-180.5 70.5t-187 -71.5t-104 -193.5h556zM891 1363l-439 -232l-60 93l429 252z" />
    <glyph glyph-name="e_grave" unicode="&#xe8;" horiz-adv-x="1044" 
d="M963 543h-723q1 -106 45 -194.5t135 -146.5q58 -37 132 -55.5t178 -18.5q57 0 104.5 3t58.5 4l-18 -133q-8 -1 -53 -3.5t-106 -2.5q-160 0 -278.5 41.5t-194.5 114.5q-65 61 -110.5 156t-45.5 211q0 114 34 206t102 171q59 68 146.5 105t181.5 37q93 0 165 -28t125 -85
q59 -64 90 -157.5t32 -224.5zM808 655q-16 124 -84.5 194.5t-180.5 70.5t-187 -71.5t-104 -193.5h556zM712 1224l-62 -93l-439 232l72 113z" />
    <glyph glyph-name="e_circumflex" unicode="&#xea;" horiz-adv-x="1044" 
d="M963 543h-723q1 -106 45 -194.5t135 -146.5q58 -37 132 -55.5t178 -18.5q57 0 104.5 3t58.5 4l-18 -133q-8 -1 -53 -3.5t-106 -2.5q-160 0 -278.5 41.5t-194.5 114.5q-65 61 -110.5 156t-45.5 211q0 114 34 206t102 171q59 68 146.5 105t181.5 37q93 0 165 -28t125 -85
q59 -64 90 -157.5t32 -224.5zM808 655q-16 124 -84.5 194.5t-180.5 70.5t-187 -71.5t-104 -193.5h556zM869 1177l-89 -68l-233 258h-2l-233 -258l-89 68l261 289h123z" />
    <glyph glyph-name="e_dieresis" unicode="&#xeb;" horiz-adv-x="1044" 
d="M963 543h-723q1 -106 45 -194.5t135 -146.5q58 -37 132 -55.5t178 -18.5q57 0 104.5 3t58.5 4l-18 -133q-8 -1 -53 -3.5t-106 -2.5q-160 0 -278.5 41.5t-194.5 114.5q-65 61 -110.5 156t-45.5 211q0 114 34 206t102 171q59 68 146.5 105t181.5 37q93 0 165 -28t125 -85
q59 -64 90 -157.5t32 -224.5zM808 655q-16 124 -84.5 194.5t-180.5 70.5t-187 -71.5t-104 -193.5h556zM851 1206h-169v170h169v-170zM419 1206h-169v170h169v-170z" />
    <glyph glyph-name="i_acute" unicode="&#xed;" horiz-adv-x="545" 
d="M546 1366l-374 -238l-62 93l359 255zM352 0h-158q1 16 2.5 197t1.5 299q0 103 -0.5 226.5t-3.5 289.5h158q-2 -144 -3.5 -269.5t-1.5 -223.5q0 -233 2.5 -374t2.5 -145z" />
    <glyph glyph-name="i_grave" unicode="&#xec;" horiz-adv-x="545" 
d="M436 1221l-62 -93l-374 238l77 110zM352 0h-158q1 16 2.5 197t1.5 299q0 103 -0.5 226.5t-3.5 289.5h158q-2 -144 -3.5 -269.5t-1.5 -223.5q0 -233 2.5 -374t2.5 -145z" />
    <glyph glyph-name="i_circumflex" unicode="&#xee;" horiz-adv-x="545" 
d="M554 1167l-89 -64l-190 259h-2l-190 -259l-89 64l221 299h117zM352 0h-158q1 16 2.5 197t1.5 299q0 103 -0.5 226.5t-3.5 289.5h158q-2 -144 -3.5 -269.5t-1.5 -223.5q0 -233 2.5 -374t2.5 -145z" />
    <glyph glyph-name="i_dieresis" unicode="&#xef;" horiz-adv-x="545" 
d="M529 1206h-169v170h169v-170zM186 1206h-169v170h169v-170zM352 0h-158q1 16 2.5 197t1.5 299q0 103 -0.5 226.5t-3.5 289.5h158q-2 -144 -3.5 -269.5t-1.5 -223.5q0 -233 2.5 -374t2.5 -145z" />
    <glyph glyph-name="n_tilde" unicode="&#xf1;" horiz-adv-x="1190" 
d="M1013 0h-158q1 28 2.5 185t1.5 194q0 52 -0.5 153.5t-1.5 148.5q-3 115 -44 165t-142 50q-61 0 -151 -36t-182 -92q0 -11 -1 -119t-1 -197q0 -116 2.5 -280t2.5 -172h-158q0 7 2 122.5t2 343.5q0 105 -0.5 246t-3.5 300h156l-1 -115l1 -2q140 80 233.5 111.5t155.5 31.5
q128 0 205.5 -80.5t77.5 -220.5q0 -126 -1.5 -217.5t-1.5 -148.5q0 -91 2.5 -227.5t2.5 -143.5zM940 1420q-23 -109 -82 -167.5t-145 -58.5q-33 0 -59 11.5t-48 27.5l-32.5 26t-36.5 28q-11 9 -28 15t-35 6q-36 0 -62 -36.5t-42 -101.5l-101 20q22 105 80.5 165.5
t143.5 60.5q31 0 57 -10t53 -29l36 -28.5t33 -25.5q13 -11 27.5 -16t35.5 -5q37 0 63.5 38.5t40.5 99.5z" />
    <glyph glyph-name="o_acute" unicode="&#xf3;" horiz-adv-x="1165" 
d="M1072 506q0 -116 -41.5 -222t-119.5 -181q-66 -63 -146.5 -96t-182.5 -33q-96 0 -180 32.5t-150 95.5q-76 73 -117.5 180t-41.5 226q0 115 35.5 211.5t110.5 173.5q67 70 156 107.5t188 37.5q104 0 188.5 -34.5t150.5 -103.5q76 -79 113 -177.5t37 -216.5zM912 499
q0 94 -30.5 183t-94.5 150q-39 38 -92.5 58.5t-111.5 20.5q-69 0 -120 -22t-96 -69q-53 -54 -83.5 -138t-30.5 -174q0 -102 31 -187.5t100 -147.5q39 -35 90 -53.5t108 -18.5q63 0 117.5 22t95.5 64q57 58 87 140t30 172zM923 1363l-439 -232l-60 93l429 252z" />
    <glyph glyph-name="o_grave" unicode="&#xf2;" horiz-adv-x="1165" 
d="M1072 506q0 -116 -41.5 -222t-119.5 -181q-66 -63 -146.5 -96t-182.5 -33q-96 0 -180 32.5t-150 95.5q-76 73 -117.5 180t-41.5 226q0 115 35.5 211.5t110.5 173.5q67 70 156 107.5t188 37.5q104 0 188.5 -34.5t150.5 -103.5q76 -79 113 -177.5t37 -216.5zM912 499
q0 94 -30.5 183t-94.5 150q-39 38 -92.5 58.5t-111.5 20.5q-69 0 -120 -22t-96 -69q-53 -54 -83.5 -138t-30.5 -174q0 -102 31 -187.5t100 -147.5q39 -35 90 -53.5t108 -18.5q63 0 117.5 22t95.5 64q57 58 87 140t30 172zM744 1224l-62 -93l-439 232l72 113z" />
    <glyph glyph-name="o_circumflex" unicode="&#xf4;" horiz-adv-x="1165" 
d="M1072 506q0 -116 -41.5 -222t-119.5 -181q-66 -63 -146.5 -96t-182.5 -33q-96 0 -180 32.5t-150 95.5q-76 73 -117.5 180t-41.5 226q0 115 35.5 211.5t110.5 173.5q67 70 156 107.5t188 37.5q104 0 188.5 -34.5t150.5 -103.5q76 -79 113 -177.5t37 -216.5zM912 499
q0 94 -30.5 183t-94.5 150q-39 38 -92.5 58.5t-111.5 20.5q-69 0 -120 -22t-96 -69q-53 -54 -83.5 -138t-30.5 -174q0 -102 31 -187.5t100 -147.5q39 -35 90 -53.5t108 -18.5q63 0 117.5 22t95.5 64q57 58 87 140t30 172zM906 1177l-89 -68l-233 258h-2l-233 -258l-89 68
l261 289h123z" />
    <glyph glyph-name="o_dieresis" unicode="&#xf6;" horiz-adv-x="1165" 
d="M1072 506q0 -116 -41.5 -222t-119.5 -181q-66 -63 -146.5 -96t-182.5 -33q-96 0 -180 32.5t-150 95.5q-76 73 -117.5 180t-41.5 226q0 115 35.5 211.5t110.5 173.5q67 70 156 107.5t188 37.5q104 0 188.5 -34.5t150.5 -103.5q76 -79 113 -177.5t37 -216.5zM912 499
q0 94 -30.5 183t-94.5 150q-39 38 -92.5 58.5t-111.5 20.5q-69 0 -120 -22t-96 -69q-53 -54 -83.5 -138t-30.5 -174q0 -102 31 -187.5t100 -147.5q39 -35 90 -53.5t108 -18.5q63 0 117.5 22t95.5 64q57 58 87 140t30 172zM883 1206h-169v170h169v-170zM451 1206h-169v170
h169v-170z" />
    <glyph glyph-name="o_tilde" unicode="&#xf5;" horiz-adv-x="1165" 
d="M1072 506q0 -116 -41.5 -222t-119.5 -181q-66 -63 -146.5 -96t-182.5 -33q-96 0 -180 32.5t-150 95.5q-76 73 -117.5 180t-41.5 226q0 115 35.5 211.5t110.5 173.5q67 70 156 107.5t188 37.5q104 0 188.5 -34.5t150.5 -103.5q76 -79 113 -177.5t37 -216.5zM912 499
q0 94 -30.5 183t-94.5 150q-39 38 -92.5 58.5t-111.5 20.5q-69 0 -120 -22t-96 -69q-53 -54 -83.5 -138t-30.5 -174q0 -102 31 -187.5t100 -147.5q39 -35 90 -53.5t108 -18.5q63 0 117.5 22t95.5 64q57 58 87 140t30 172zM919 1420q-23 -109 -82 -167.5t-145 -58.5
q-33 0 -59 11.5t-48 27.5l-32.5 26t-36.5 28q-11 9 -28 15t-35 6q-36 0 -62 -36.5t-42 -101.5l-101 20q22 105 80.5 165.5t143.5 60.5q31 0 57 -10t53 -29l36 -28.5t33 -25.5q13 -11 27.5 -16t35.5 -5q37 0 63.5 38.5t40.5 99.5z" />
    <glyph glyph-name="u_acute" unicode="&#xfa;" horiz-adv-x="1190" 
d="M1007 0h-153v116l-1 1q-70 -46 -174.5 -94.5t-205.5 -48.5q-138 0 -216 82t-78 230q0 80 1.5 190.5t1.5 160.5q0 91 -2.5 224.5t-2.5 150.5h158q0 -13 -2 -144t-2 -209q0 -69 1 -172t1 -146q2 -118 41 -173t126 -55q89 0 195.5 48t156.5 84q0 12 1 110.5t1 245.5
q0 105 -2.5 251.5t-2.5 159.5h158q0 -17 -2 -112.5t-2 -325.5q0 -129 1 -226.5t3 -347.5zM933 1363l-439 -232l-60 93l429 252z" />
    <glyph glyph-name="u_grave" unicode="&#xf9;" horiz-adv-x="1190" 
d="M1007 0h-153v116l-1 1q-70 -46 -174.5 -94.5t-205.5 -48.5q-138 0 -216 82t-78 230q0 80 1.5 190.5t1.5 160.5q0 91 -2.5 224.5t-2.5 150.5h158q0 -13 -2 -144t-2 -209q0 -69 1 -172t1 -146q2 -118 41 -173t126 -55q89 0 195.5 48t156.5 84q0 12 1 110.5t1 245.5
q0 105 -2.5 251.5t-2.5 159.5h158q0 -17 -2 -112.5t-2 -325.5q0 -129 1 -226.5t3 -347.5zM754 1224l-62 -93l-439 232l72 113z" />
    <glyph glyph-name="u_circumflex" unicode="&#xfb;" horiz-adv-x="1190" 
d="M1007 0h-153v116l-1 1q-70 -46 -174.5 -94.5t-205.5 -48.5q-138 0 -216 82t-78 230q0 80 1.5 190.5t1.5 160.5q0 91 -2.5 224.5t-2.5 150.5h158q0 -13 -2 -144t-2 -209q0 -69 1 -172t1 -146q2 -118 41 -173t126 -55q89 0 195.5 48t156.5 84q0 12 1 110.5t1 245.5
q0 105 -2.5 251.5t-2.5 159.5h158q0 -17 -2 -112.5t-2 -325.5q0 -129 1 -226.5t3 -347.5zM917 1177l-89 -68l-233 258h-2l-233 -258l-89 68l261 289h123z" />
    <glyph glyph-name="u_dieresis" unicode="&#xfc;" horiz-adv-x="1190" 
d="M1007 0h-153v116l-1 1q-70 -46 -174.5 -94.5t-205.5 -48.5q-138 0 -216 82t-78 230q0 80 1.5 190.5t1.5 160.5q0 91 -2.5 224.5t-2.5 150.5h158q0 -13 -2 -144t-2 -209q0 -69 1 -172t1 -146q2 -118 41 -173t126 -55q89 0 195.5 48t156.5 84q0 12 1 110.5t1 245.5
q0 105 -2.5 251.5t-2.5 159.5h158q0 -17 -2 -112.5t-2 -325.5q0 -129 1 -226.5t3 -347.5zM893 1206h-169v170h169v-170zM461 1206h-169v170h169v-170z" />
    <glyph glyph-name="dagger.single" unicode="&#x2020;" horiz-adv-x="744" 
d="M448 1376l-15 -222h-121l-15 222h151zM680 997l-222 15v117l222 15v-147zM287 1012l-223 -15v147l223 -15v-117zM433 0h-121q0 6 2 168t2 320q0 95 -0.5 224.5t-3.5 272.5h121q-2 -180 -3 -287t-1 -200q0 -168 2 -329.5t2 -168.5z" />
    <glyph glyph-name="degree" unicode="&#xb0;" horiz-adv-x="836" 
d="M727 1018q0 -129 -91 -219t-220 -90t-218 90t-89 219t91.5 219t217.5 90q127 0 218 -91t91 -218zM620 1019q0 84 -58.5 143.5t-142.5 59.5t-143.5 -59.5t-59.5 -143.5q0 -86 60 -145.5t143 -59.5q86 0 143.5 61t57.5 144z" />
    <glyph glyph-name="cent.oldstyle" unicode="&#xa2;" horiz-adv-x="938" 
d="M885 -365h-127l4 353q-161 11 -287 53.5t-219 134.5q-57 56 -95.5 140t-38.5 183q0 114 50.5 208.5t133.5 158.5q79 61 191 98t244 46l-4 350h127q-2 -65 -2.5 -126t-0.5 -104q0 -95 1.5 -167t1.5 -78q-116 0 -213 -17.5t-171 -52.5q-86 -40 -143 -122.5t-57 -188.5
q0 -109 49.5 -185.5t127.5 -121.5q75 -43 171 -61t194 -18h28.5t34.5 1q0 -6 -1.5 -121.5t-1.5 -178.5t1 -108t2 -76z" />
    <glyph glyph-name="sterling.oldstyle" unicode="&#xa3;" horiz-adv-x="992" 
d="M1023 2q-6 0 -124.5 1t-296.5 1q-105 0 -234 -1t-246 -1v131h122l64 459l-190 -1v117l207 -1q1 10 13 87.5t22 133.5q14 80 47 154.5t94 130.5q55 51 144 84.5t209 33.5q15 0 34 -0.5t30 -0.5l19 -131q-15 1 -40 1.5t-38 0.5q-95 0 -152 -18.5t-100 -54.5
q-40 -33 -63 -91.5t-36 -128.5q-17 -100 -24 -146.5t-8 -54.5l332 1v-117l-350 1l-64 -460h104h70q178 0 313 1.5t142 1.5v-133z" />
    <glyph glyph-name="section" unicode="&#xa7;" horiz-adv-x="929" 
d="M831 499q0 -92 -64 -169.5t-167 -130.5v-2q14 -7 29.5 -16l24.5 -14q65 -38 103.5 -96t38.5 -129q0 -82 -46 -147t-126 -109q-71 -39 -156.5 -57.5t-172.5 -23.5q-84 -5 -119 -6.5t-41 -1.5l-11 125q6 0 51.5 0.5t140.5 6.5q70 5 135 21t94 33q58 34 79 66t21 72
q0 46 -33 83t-95 69q-54 28 -129 61.5t-125 62.5q-93 54 -128 110t-35 132q0 90 62.5 168.5t168.5 129.5v2l-29.5 16.5l-24.5 14.5q-65 38 -103.5 96.5t-38.5 128.5q0 87 48.5 150.5t123.5 105.5q67 39 156 57t173 24q64 4 109.5 6t50.5 2l11 -125q-6 0 -51 -0.5t-141 -6.5
q-73 -5 -135.5 -21t-93.5 -33q-54 -30 -77 -65t-23 -73q0 -47 32.5 -83t95.5 -68q69 -34 122.5 -57.5t131.5 -65.5q84 -44 123.5 -101t39.5 -142zM682 471q0 50 -28 89.5t-119 85.5l-46 22.5l-43 20.5q-17 -7 -46 -23t-54 -34q-40 -30 -68.5 -67t-28.5 -99q0 -57 32 -95
t115 -80l44.5 -21.5l44.5 -21.5q24 11 47.5 24t52.5 34q53 39 75 75.5t22 89.5z" />
    <glyph glyph-name="bullet" unicode="&#x2022;" horiz-adv-x="1139" 
d="M866 506q0 -122 -87.5 -209.5t-209.5 -87.5t-208.5 87.5t-86.5 209.5q0 121 88.5 208t208.5 87q122 0 208.5 -86.5t86.5 -208.5z" />
    <glyph glyph-name="paragraph" unicode="&#xb6;" horiz-adv-x="1136" 
d="M974 -454h-145l4 781q-114 0 -232.5 23t-212.5 73q-131 69 -203.5 177t-72.5 256q0 118 63.5 217t172.5 164q90 54 215.5 78.5t308.5 24.5q31 0 57.5 -0.5t44.5 -0.5q-2 -198 -3 -361t-1 -317q0 -284 2 -690.5t2 -424.5z" />
    <glyph glyph-name="s_s.german" unicode="&#xdf;" horiz-adv-x="1229" 
d="M1129 293q0 -74 -36 -132t-94 -94q-61 -38 -145 -57.5t-184 -19.5q-31 0 -82.5 4t-65.5 5l-9 131q17 -2 72.5 -5.5t112.5 -3.5q28 0 84 6.5t92 22.5q49 22 73.5 55t24.5 76q0 40 -21 65.5t-58 50.5q-50 33 -116.5 63t-117.5 65t-79.5 90t-28.5 122q0 79 39 136.5
t108 94.5q54 30 115.5 39t119.5 10q-4 105 -36 164.5t-66 90.5q-39 37 -90 56t-122 19q-62 0 -113.5 -22t-88.5 -59q-34 -33 -55.5 -95t-22.5 -158q-2 -170 -2 -279.5v-207.5q0 -135 2 -322.5t2 -203.5h-158q0 17 2 204t2 323v220.5v259.5q0 116 30.5 198.5t85.5 137.5
q50 51 131.5 87t194.5 36q95 0 173 -28.5t143 -92.5q55 -54 84 -130t33 -161q3 -62 3 -107.5v-55.5q-13 1 -26 1h-33q-84 0 -130 -4t-92 -28q-44 -23 -61 -53.5t-17 -65.5q0 -41 27 -70t58 -47q35 -21 92.5 -48t102.5 -56q58 -36 100.5 -90t42.5 -137z" />
    <glyph glyph-name="registered" unicode="&#xae;" horiz-adv-x="1928" 
d="M1738 491q0 -323 -231 -553.5t-551 -230.5q-323 0 -554 232t-231 552q0 325 233 554.5t552 229.5q322 0 552 -231t230 -553zM1675 491q0 296 -211.5 508.5t-507.5 212.5q-298 0 -509.5 -212.5t-211.5 -508.5q0 -297 211.5 -510t509.5 -213q296 0 507.5 213t211.5 510z
M1421 125l-101 -91q-8 8 -120 128.5l-266 293.5v22q31 8 72 27.5t67 43.5q24 22 40 48t16 78q0 41 -24.5 71t-66.5 47q-33 12 -69.5 16t-78.5 4q-11 0 -34 -0.5t-29 -0.5q-1 -94 -1.5 -192.5t-0.5 -129.5q0 -101 1.5 -258.5t1.5 -170.5h-141q0 14 1.5 154.5t1.5 270.5
q0 38 -0.5 136.5t-2.5 304.5q6 0 91 1.5t125 1.5q54 0 112 -7.5t106 -27.5q69 -30 110 -83.5t41 -128.5q0 -68 -37 -127t-117 -110v-9q100 -113 198 -209z" />
    <glyph glyph-name="copyright" unicode="&#xa9;" horiz-adv-x="1928" 
d="M1738 491q0 -323 -231 -553.5t-551 -230.5q-323 0 -554 232t-231 552q0 325 233 554.5t552 229.5q322 0 552 -231t230 -553zM1675 491q0 296 -211.5 508.5t-507.5 212.5q-298 0 -509.5 -212.5t-211.5 -508.5q0 -297 211.5 -510t509.5 -213q296 0 507.5 213t211.5 510z
M1217 169l-11 -131q-5 0 -24.5 -1t-30.5 -1q-114 0 -211.5 20.5t-175.5 63.5q-110 60 -170 157.5t-60 216.5q0 108 56 198.5t144 146.5q77 51 191 77t226 26q13 0 25 -0.5t17 -0.5l7 -132h-16.5h-16.5q-101 0 -159.5 -7t-136.5 -40q-83 -35 -133 -108.5t-50 -157.5
q0 -100 46 -168t123 -107q57 -27 134.5 -40t163.5 -13q15 0 35.5 0.5t26.5 0.5z" />
    <glyph glyph-name="trademark" unicode="&#x2122;" horiz-adv-x="1215" 
d="M513 1264q-7 0 -56 0.5t-139 0.5q-1 -71 -1.5 -119.5t-0.5 -87.5q0 -97 1 -159.5t1 -71.5h-88q0 9 1 70.5t1 163.5v88.5t-1 115.5q-89 0 -144 -0.5t-62 -0.5v75h488v-75zM1207 833l-86 -14l-76 387h-6l-61.5 -126l-97.5 -211h-61l-95 205.5l-63 131.5h-6
q-13 -50 -33 -141t-49 -246l-83 14l79.5 334t38.5 167l77 11l46.5 -99.5l121.5 -257.5h5l110.5 239.5t55.5 117.5l75 -6q2 -9 21.5 -104z" />
    <glyph glyph-name="acute" unicode="&#xb4;" horiz-adv-x="800" 
d="M740 1363l-439 -232l-60 93l429 252z" />
    <glyph glyph-name="dieresis" unicode="&#xa8;" horiz-adv-x="800" 
d="M700 1206h-169v170h169v-170zM268 1206h-169v170h169v-170z" />
    <glyph glyph-name="notequal.oldstyle" unicode="&#x2260;" horiz-adv-x="1414" 
d="M1153 286h-469l-68 -210t-32 -100l-92 36q3 10 29.5 89.5l60.5 184.5h-322v107h358l39.5 118l37.5 117h-435v107h470l63 194.5t34 104.5l92 -32l-28 -85l-61 -182h323v-107h-358l-40.5 -127t-36.5 -108h435v-107z" />
    <glyph glyph-name="A_E" unicode="&#xc6;" horiz-adv-x="1865" 
d="M1748 2q-11 0 -107.5 1t-282.5 1q-94 0 -158.5 -1t-71.5 -1q-2 9 -52.5 161l-144.5 442h-470l-248.5 -427t-119.5 -205l-131 72q14 21 239 391.5l530 899.5q10 -1 257.5 -1.5t305.5 -0.5q195 0 295 1t106 1v-139q-10 0 -104 1.5t-269 1.5q-60 0 -180.5 -0.5t-237.5 -0.5
l-1 -1l78.5 -238.5l74.5 -224.5h104h93q183 0 299.5 1.5t125.5 1.5v-135q-9 0 -119.5 1.5t-295.5 1.5q-39 0 -87 -0.5t-75 -0.5l-1 -1l94 -279l62 -186h87.5h100.5q155 0 224 1t80 1v-139zM889 733l-71 219l-55 169h-2l-85.5 -146.5l-140.5 -241.5l1 -1h352z" />
    <glyph glyph-name="O_slash" unicode="&#xd8;" horiz-adv-x="1548" 
d="M1419 669q0 -162 -55.5 -297.5t-144.5 -223.5q-99 -98 -210 -142.5t-238 -44.5q-98 0 -186 26.5t-163 79.5l-97.5 -147.5t-37.5 -57.5l-75 52l44.5 64l95.5 142q-101 88 -165 231t-64 320q0 154 47 280.5t141 227.5q87 94 207 145.5t253 51.5q99 0 188 -27t166 -79
l58.5 88l56.5 85l76 -50l-57 -81.5l-66 -95.5q113 -98 169.5 -243t56.5 -304zM1141 1140l-195 -285l-142 -212l-169.5 -252.5l-161.5 -243.5l-68 52l161.5 238.5l164.5 244.5l147 217.5l191 287.5zM1248 653q0 130 -43.5 255.5t-132.5 210.5q-60 58 -134.5 90t-166.5 32
q-90 0 -167.5 -32.5t-140.5 -95.5q-80 -80 -124.5 -198t-44.5 -246q0 -144 45.5 -258t128.5 -193q57 -55 135 -88.5t167 -33.5t166.5 32.5t140.5 93.5q75 72 123 183.5t48 247.5z" />
    <glyph glyph-name="infinity" unicode="&#x221e;" horiz-adv-x="1800" 
d="M1577 513q0 -179 -96 -302t-254 -123q-111 0 -203.5 60t-135.5 150h-4q-43 -93 -118 -150.5t-189 -57.5q-151 0 -253 122.5t-102 295.5q0 184 99 304t252 120q111 0 203 -60t137 -149h4q44 96 121.5 151.5t184.5 55.5q149 0 251.5 -121t102.5 -296zM862 587
q-33 81 -103.5 143.5t-158.5 62.5q-110 0 -179 -75.5t-69 -208.5q0 -121 60 -199.5t167 -78.5q62 0 110 33.5t92 119.5q24 48 41 88.5t40 114.5zM1448 512q0 125 -62 201t-165 76q-67 0 -114.5 -37.5t-87.5 -114.5q-25 -47 -44.5 -99.5t-36.5 -104.5q30 -75 100 -140.5
t159 -65.5q117 0 184 77t67 208z" />
    <glyph glyph-name="plusminus.oldstyle" unicode="&#xb1;" horiz-adv-x="1414" 
d="M1165 115h-916v109h403v364h-403v109h403v382h108v-382h405v-109h-405v-364h405v-109z" />
    <glyph glyph-name="lessequal.oldstyle" unicode="&#x2264;" horiz-adv-x="1414" 
d="M1150 438l-49 -105l-849 333v101l849 337l49 -108l-733 -273v-10zM1155 115h-901v109h901v-109z" />
    <glyph glyph-name="greaterequal.oldstyle" unicode="&#x2265;" horiz-adv-x="1414" 
d="M1162 666l-850 -333l-49 105l733 275v10l-733 273l49 108l850 -337v-101zM1160 115h-901v109h901v-109z" />
    <glyph glyph-name="yen.oldstyle" unicode="&#xa5;" horiz-adv-x="1186" 
d="M1128 1210l-463 -600v-104l361 2v-108l-361 2q0 -105 2 -243.5t2 -158.5h-150q0 21 2 159t2 243l-361 -2v108l361 -2v92l-455 601l125 95l135.5 -192l270.5 -376h2l260 353.5l156 214.5z" />
    <glyph glyph-name="mu" unicode="&#xb5;" horiz-adv-x="1247" 
d="M1241 124l-15 -129q-132 0 -205.5 28t-128.5 110h-2q-66 -73 -133.5 -106t-150.5 -33q-66 0 -130 22.5t-138 80.5l-1 -1q0 -63 2 -295.5t2 -255.5h-158q2 165 3 371t1 408q0 326 -2 498t-2 190h158q0 -18 -2 -290.5t-2 -487.5q49 -37 117 -70t149 -33q80 0 144 30t113 85
v123.5v231.5q0 105 -2.5 251.5t-2.5 159.5h158q0 -17 -2 -74t-2 -304q0 -34 0.5 -137.5t0.5 -148.5q0 -140 47.5 -181.5t183.5 -42.5z" />
    <glyph glyph-name="partialdiff" unicode="&#x2202;" horiz-adv-x="1248" 
d="M1104 1014q0 -238 -57.5 -462.5t-148.5 -363.5q-70 -106 -166 -160t-206 -54q-183 0 -283.5 107.5t-100.5 281.5q0 226 142 376.5t347 150.5q116 0 187 -22.5t124 -50.5l6 2q2 21 3 60t1 63q0 94 -12 168t-40 118q-35 58 -85 83.5t-118 25.5q-77 0 -164.5 -39
t-185.5 -116l-78 101q91 80 206.5 131.5t239.5 51.5q183 0 286 -113.5t103 -338.5zM924 675q-36 30 -106 59.5t-185 29.5q-138 0 -234.5 -121t-96.5 -293q0 -119 61.5 -184.5t164.5 -65.5q79 0 150 47.5t121 140.5q41 77 76 179.5t49 207.5z" />
    <glyph glyph-name="summation" unicode="&#x2211;" horiz-adv-x="1800" 
d="M1521 -198q-176 1 -334.5 1.5t-280.5 0.5q-225 0 -377.5 -1t-169.5 -1l-45 104l296 342l333 393v7l-373 447l-224 267l49 104q28 0 174.5 -1t351.5 -1q97 0 251 0.5t278 1.5v-139q-16 0 -135.5 1.5t-319.5 1.5q-84 0 -206 -0.5t-206 -0.5l-1 -2l274.5 -332.5
l283.5 -331.5v-24l-184.5 -209l-412.5 -480l1 -2q81 -1 204 -1.5t232 -0.5q212 0 370 2t171 2v-148z" />
    <glyph glyph-name="product" unicode="&#x220f;" horiz-adv-x="1800" 
d="M1652 1327q-11 0 -97 0.5t-119 0.5q-2 -160 -3.5 -359t-1.5 -360q0 -266 2.5 -529t2.5 -280h-165q0 13 2 289t2 523q0 142 -2 347.5t-2 369.5q-84 0 -170.5 0.5t-170.5 0.5q-95 0 -198 -0.5t-203 -0.5q0 -152 -2 -348.5t-2 -326.5q0 -236 2 -538t2 -316h-165
q0 14 2.5 280.5t2.5 569.5q0 131 -1.5 299l-3.5 379q-53 0 -130 -0.5t-86 -0.5v138q152 0 382 -1t396 -1q172 0 443.5 1t282.5 1v-138z" />
    <glyph glyph-name="pi" unicode="&#x3c0;" horiz-adv-x="1264" 
d="M1215 123l-25 -129q-198 3 -296.5 75.5t-98.5 256.5q0 111 1.5 246t1.5 323h-405q0 -324 1.5 -599.5t1.5 -295.5h-158q0 14 2 287t2 608h-194v117q15 0 180.5 -1t419.5 -1q147 0 342 1t216 1v-117h-254q0 -19 -1.5 -124t-1.5 -155q0 -46 0.5 -118t0.5 -146
q0 -113 49.5 -169t215.5 -60z" />
    <glyph glyph-name="integral" unicode="&#x222b;" horiz-adv-x="1200" 
d="M1219 1403l-70 -120q-31 20 -84 40.5t-100 20.5q-116 0 -167 -95t-84 -307l-125 -809q-43 -274 -134.5 -398.5t-280.5 -124.5q-69 0 -132.5 20t-103.5 52l70 120q30 -19 82 -40t102 -21q113 0 167 93.5t84 295.5l128 827q40 266 133 392t279 126q71 0 134 -20.5
t102 -51.5z" />
    <glyph glyph-name="ordinal.feminine" unicode="&#xaa;" horiz-adv-x="840" 
d="M689 901q0 -153 -0.5 -246.5t-0.5 -117.5q-14 -2 -71 -6t-150 -4q-60 0 -120.5 9.5t-104.5 27.5q-55 22 -92 63t-37 104q0 67 44 110t114 70q51 20 128 30t164 14q-3 45 -26 73t-61 41q-26 9 -65.5 13.5t-94.5 4.5q-28 0 -52.5 -1.5t-69.5 -3.5l15 107q10 0 44.5 1.5
t86.5 1.5q85 0 154 -15.5t112 -50.5q40 -34 61.5 -83.5t21.5 -141.5zM708 200h-576v100h576v-100zM565 748v47t-1 62q-37 -2 -103 -4t-127 -23q-29 -10 -60 -35.5t-31 -57.5q0 -41 25.5 -64.5t62.5 -33.5q47 -13 90 -15t77 -2q11 0 28.5 0.5t37.5 1.5q0 14 0.5 45t0.5 79z
" />
    <glyph glyph-name="ordinal.masculine" unicode="&#xba;" horiz-adv-x="840" 
d="M768 861q0 -72 -30.5 -142t-83.5 -116q-52 -43 -109.5 -63t-124.5 -20q-68 0 -128 21.5t-106 60.5q-54 47 -83.5 115t-29.5 145q0 75 26 136t78 111q47 43 108.5 67.5t135.5 24.5q73 0 133.5 -22t107.5 -66q54 -50 80 -113.5t26 -138.5zM708 200h-576v100h576v-100z
M637 857q0 57 -20 106.5t-62 86.5q-26 23 -60.5 35.5t-73.5 12.5q-45 0 -79.5 -13.5t-62.5 -40.5q-37 -33 -56 -83t-19 -99q0 -63 22 -111.5t64 -82.5q26 -22 60 -32.5t70 -10.5q39 0 76.5 14t62.5 38q39 35 58.5 81t19.5 99z" />
    <glyph glyph-name="Omega" unicode="&#x3a9;" horiz-adv-x="1548" 
d="M1525 2q-13 0 -109 1t-200 1q-54 0 -140 -1t-146 -1l-36 135q61 42 116 94.5t103 122.5q54 79 90.5 173.5t36.5 194.5q0 125 -33.5 219t-117.5 178q-60 60 -140.5 91t-173.5 31q-96 0 -175 -29t-141 -91q-81 -81 -117 -178t-36 -221q0 -104 37.5 -198t89.5 -170
q47 -68 99 -119.5t120 -97.5l-36 -135q-67 1 -151.5 1.5t-134.5 0.5q-176 0 -239 -1t-70 -1v139q26 -2 167 -4t258 -2v10q-144 123 -227.5 275t-83.5 322q0 127 41.5 235t133.5 208q85 92 203.5 141.5t259.5 49.5q133 0 258.5 -49t209.5 -140q90 -97 130 -206.5t40 -238.5
q0 -162 -80.5 -316.5t-230.5 -280.5v-10q185 0 300 3t125 3v-139z" />
    <glyph glyph-name="Omega" unicode="&#x2126;" horiz-adv-x="1548" 
d="M1525 2q-13 0 -109 1t-200 1q-54 0 -140 -1t-146 -1l-36 135q61 42 116 94.5t103 122.5q54 79 90.5 173.5t36.5 194.5q0 125 -33.5 219t-117.5 178q-60 60 -140.5 91t-173.5 31q-96 0 -175 -29t-141 -91q-81 -81 -117 -178t-36 -221q0 -104 37.5 -198t89.5 -170
q47 -68 99 -119.5t120 -97.5l-36 -135q-67 1 -151.5 1.5t-134.5 0.5q-176 0 -239 -1t-70 -1v139q26 -2 167 -4t258 -2v10q-144 123 -227.5 275t-83.5 322q0 127 41.5 235t133.5 208q85 92 203.5 141.5t259.5 49.5q133 0 258.5 -49t209.5 -140q90 -97 130 -206.5t40 -238.5
q0 -162 -80.5 -316.5t-230.5 -280.5v-10q185 0 300 3t125 3v-139z" />
    <glyph glyph-name="a_e" unicode="&#xe6;" horiz-adv-x="1653" 
d="M1573 543h-714q1 -108 45.5 -196.5t135.5 -146.5q58 -37 132.5 -55t178.5 -18q36 0 83 3t59 5l-18 -133q-11 -1 -43.5 -3.5t-94.5 -2.5q-160 0 -276 40.5t-196 116.5q-76 73 -115.5 171.5t-39.5 209.5q-40 -1 -139 -11.5t-183 -42.5q-63 -22 -103 -67t-40 -101
q0 -71 36.5 -107.5t98.5 -58.5q47 -17 115.5 -20t124.5 -3q31 0 78 3.5t56 5.5l-18 -129q-12 -2 -65 -5t-93 -3q-90 0 -176 14t-147 44q-87 43 -130 105.5t-43 147.5q0 84 53 157t172 119q83 32 191 49.5t215 22.5q-4 76 -39.5 128t-97.5 77q-44 18 -98 25.5t-126 7.5
q-45 0 -82 -2l-91 -5l16 133q12 0 63.5 3.5t128.5 3.5q153 0 258.5 -41t158.5 -135h2q53 82 150.5 135.5t209.5 53.5q93 0 164.5 -27.5t123.5 -84.5q59 -64 89 -159.5t30 -223.5zM1419 655q-17 128 -81.5 196.5t-179.5 68.5q-113 0 -188.5 -69.5t-104.5 -195.5h554z" />
    <glyph glyph-name="o_slash" unicode="&#xf8;" horiz-adv-x="1165" 
d="M1072 506q0 -116 -41.5 -222t-119.5 -181q-66 -63 -146.5 -96t-182.5 -33q-69 0 -136 19.5t-122 54.5l-68.5 -105.5l-33.5 -52.5l-69 48q5 6 31 45l76 114q-80 75 -123.5 182t-43.5 229q0 115 35.5 211.5t110.5 173.5q67 70 156 107.5t188 37.5q75 0 141 -20.5t119 -55.5
l42.5 64l53.5 82l71 -45l-50.5 -72.5l-53.5 -77.5q84 -80 125 -182.5t41 -224.5zM862 851l-126 -185l-123 -182l-133 -198.5l-113 -171.5l-62 49l114 168.5l126 185.5l136 204l121 182zM912 499q0 94 -30.5 183t-94.5 150q-39 38 -92.5 58.5t-111.5 20.5q-69 0 -120 -22
t-96 -69q-53 -54 -83.5 -138t-30.5 -174q0 -102 31 -187.5t100 -147.5q39 -35 90 -53.5t108 -18.5q63 0 117.5 22t95.5 64q57 58 87 140t30 172z" />
    <glyph glyph-name="question.down" unicode="&#xbf;" horiz-adv-x="1143" 
d="M759 1138h-192v201h192v-201zM827 133l-19 -143q-6 0 -40 -0.5t-66 -0.5q-87 0 -170 13.5t-154 46.5q-103 48 -157 126t-54 185q0 78 34.5 149t116.5 138q65 52 151 97t132 73l-2 190h148v-270l-138.5 -64t-133.5 -76q-59 -40 -100 -98.5t-41 -128.5q0 -93 54.5 -144
t146.5 -72q71 -16 131 -18.5t161 -2.5z" />
    <glyph glyph-name="exclam.down" unicode="&#xa1;" horiz-adv-x="950" 
d="M561 1138h-193v201h193v-201zM551 0h-172q5 506 10 684l6 215h139l5.5 -213.5t11.5 -685.5z" />
    <glyph glyph-name="logicalnot.oldstyle" unicode="&#xac;" horiz-adv-x="1414" 
d="M1156 17h-119v460h-797v109h916v-569z" />
    <glyph glyph-name="radical.oldstyle" unicode="&#x221a;" horiz-adv-x="1200" 
d="M1276 1458l-615 -1504h-76l-330 691l-161 -124l-57 71l263 199h15l308 -652h3l550 1357z" />
    <glyph glyph-name="florin.oldstyle" unicode="&#x192;" horiz-adv-x="992" 
d="M1049 1199q-15 1 -40 1.5t-38 0.5q-95 0 -151.5 -18.5t-99.5 -54.5q-41 -34 -64.5 -92t-36.5 -131q-10 -57 -20 -123t-11 -75l302 1v-117l-319 1q-1 -9 -25.5 -186t-43.5 -289q-22 -119 -57.5 -187t-88.5 -116q-59 -53 -143.5 -85.5t-211.5 -32.5h-29t-35 1l-19 130
q13 0 38 -1t40 -1q88 0 149.5 17.5t105.5 56.5q41 36 65 95t38 142q26 146 45.5 297l20.5 159l-220 -1v117l237 -1q1 10 11.5 77.5l19.5 120.5q16 93 47 169.5t98 138.5q55 51 144 84.5t209 33.5q15 0 34 -0.5t30 -0.5z" />
    <glyph glyph-name="approxequal.oldstyle" unicode="&#x2248;" horiz-adv-x="1414" 
d="M1206 790q-30 -98 -107 -173t-203 -75q-41 0 -80 13t-70 31l-68 43t-65 40q-25 16 -57 28.5t-66 12.5q-62 0 -108 -40.5t-79 -123.5l-97 26q31 108 112 178.5t196 70.5q44 0 84.5 -13.5t69.5 -32.5l66 -42.5t66 -39.5q27 -17 56.5 -28.5t65.5 -11.5q66 0 112 45t74 120z
M1206 445q-30 -98 -107 -173t-203 -75q-43 0 -80 12.5t-70 31.5l-68 43t-65 40q-25 16 -57 28.5t-66 12.5q-62 0 -108 -40.5t-79 -123.5l-97 26q31 108 112 178.5t196 70.5q47 0 87 -14t67 -32l66 -42.5t66 -39.5q27 -17 56.5 -28.5t65.5 -11.5q66 0 112 45t74 120z" />
    <glyph glyph-name="Delta" unicode="&#x2206;" horiz-adv-x="1378" 
d="M1354 87l-43 -85q-22 0 -266 1t-363 1q-213 0 -405 -1t-210 -1l-43 84q17 32 204 417.5l402 854.5h132l395 -849zM1143 144l-191 435.5l-265 565.5h-2l-257.5 -543l-210.5 -458l1 -3q90 -1 221.5 -2t240.5 -1q84 0 217 0.5t245 2.5z" />
    <glyph glyph-name="guillemot.double.left" unicode="&#xab;" horiz-adv-x="1048" 
d="M580 195l-78 -78l-414 423v6l414 424l78 -78l-348 -348zM949 195l-78 -78l-414 423v6l414 424l78 -78l-348 -348z" />
    <glyph glyph-name="guillemot.double.right" unicode="&#xbb;" horiz-adv-x="1048" 
d="M960 540l-414 -423l-78 78l348 349l-348 348l78 78l414 -424v-6zM591 540l-414 -423l-78 78l348 349l-348 348l78 78l414 -424v-6z" />
    <glyph glyph-name="ellipsis" unicode="&#x2026;" horiz-adv-x="2048" 
d="M1807 0h-201v213h201v-213zM1125 0h-201v213h201v-213zM442 0h-201v213h201v-213z" />
    <glyph glyph-name="nonbreakingspace" unicode="&#xa0;" horiz-adv-x="256" 
 />
    <glyph glyph-name="A_grave" unicode="&#xc0;" horiz-adv-x="1358" 
d="M1346 53l-156 -80q-4 11 -62.5 149l-154.5 355h-598l-162 -361t-63 -143l-134 72q26 52 214.5 458.5l391.5 854.5h130l393 -868zM916 605l-114 255l-126 278h-4l-123 -270.5l-119 -262.5l1 -1h484zM862 1535l-50 -99l-480 185l57 120z" />
    <glyph glyph-name="A_tilde" unicode="&#xc3;" horiz-adv-x="1358" 
d="M1346 53l-156 -80q-4 11 -62.5 149l-154.5 355h-598l-162 -361t-63 -143l-134 72q26 52 214.5 458.5l391.5 854.5h130l393 -868zM916 605l-114 255l-126 278h-4l-123 -270.5l-119 -262.5l1 -1h484zM1069 1675q-16 -85 -76 -157.5t-163 -72.5q-36 0 -68.5 13.5t-46.5 23.5
q-19 14 -38.5 30.5t-39.5 31.5q-14 10 -30.5 15.5t-37.5 5.5q-39 0 -66.5 -39t-43.5 -102l-106 20q14 81 76 155.5t161 74.5q37 0 67.5 -11.5t49.5 -25.5q21 -15 42 -33t36 -29q14 -10 29 -15.5t38 -5.5q39 0 67.5 38t43.5 103z" />
    <glyph glyph-name="O_tilde" unicode="&#xd5;" horiz-adv-x="1548" 
d="M1419 669q0 -162 -55.5 -297.5t-144.5 -223.5q-99 -98 -210 -142.5t-238 -44.5q-124 0 -234 42.5t-198 126.5q-97 91 -156.5 229.5t-59.5 311.5q0 154 47 280.5t141 227.5q87 94 207 145.5t253 51.5q135 0 250 -48.5t199 -134.5q98 -100 148.5 -235.5t50.5 -288.5z
M1248 653q0 130 -43.5 255.5t-132.5 210.5q-60 58 -134.5 90t-166.5 32q-90 0 -167.5 -32.5t-140.5 -95.5q-80 -80 -124.5 -198t-44.5 -246q0 -144 45.5 -258t128.5 -193q57 -55 135 -88.5t167 -33.5t166.5 32.5t140.5 93.5q75 72 123 183.5t48 247.5zM1130 1675
q-16 -85 -76 -157.5t-163 -72.5q-36 0 -68.5 13.5t-46.5 23.5q-19 14 -38.5 30.5t-39.5 31.5q-14 10 -30.5 15.5t-37.5 5.5q-39 0 -66.5 -39t-43.5 -102l-106 20q14 81 76 155.5t161 74.5q37 0 67.5 -11.5t49.5 -25.5q21 -15 42 -33t36 -29q14 -10 29 -15.5t38 -5.5
q39 0 67.5 38t43.5 103z" />
    <glyph glyph-name="O_E" unicode="&#x152;" horiz-adv-x="2030" 
d="M1876 2q-14 0 -103.5 1t-276.5 1q-115 0 -295.5 -2l-180.5 -2q-174 0 -325 35t-264 102q-153 92 -232 226.5t-79 298.5q0 169 76.5 303.5t210.5 220.5q122 78 285 115t400 37q34 0 156.5 -2t253.5 -2q194 0 267 1t94 1v-139q-12 0 -121 1.5t-282 1.5q-75 0 -147 -0.5
t-114 -0.5q0 -113 -2 -225t-2 -212q39 0 96.5 -0.5t99.5 -0.5q174 0 312.5 1.5t159.5 1.5v-139q-17 0 -148 1.5t-314 1.5q-48 0 -104.5 -0.5t-101.5 -0.5q0 -189 1 -300t2 -186q59 -1 143 -1.5t181 -0.5q151 0 246 1t108 1v-139zM1039 780q0 66 -0.5 180t-2.5 244h-14.5
h-17.5q-145 0 -267 -28t-216 -90q-117 -76 -173 -184.5t-56 -238.5q0 -127 65.5 -238t187.5 -183q95 -56 215.5 -82t276.5 -26q1 282 1.5 441t0.5 205z" />
    <glyph glyph-name="o_e" unicode="&#x153;" horiz-adv-x="1844" 
d="M1763 543h-710q1 -108 43 -196t133 -146q58 -37 133 -55t179 -18q43 0 87.5 3t54.5 4l-18 -133q-13 -2 -50 -4t-88 -2q-185 0 -318 57.5t-215 170.5h-2q-60 -118 -168.5 -184t-246.5 -66q-96 0 -177 32t-147 95q-76 73 -118 178.5t-42 225.5q0 116 35 212.5t110 174.5
q68 71 154.5 108.5t185.5 37.5q128 0 230.5 -58t165.5 -160h4q49 97 154.5 157.5t223.5 60.5q93 0 164.5 -27.5t123.5 -84.5q59 -64 89 -159t30 -224zM1609 655q-17 128 -81.5 196.5t-179.5 68.5q-114 0 -188 -70.5t-103 -194.5h552zM907 496q0 96 -29.5 184t-94.5 151
q-39 38 -93 59t-112 21q-69 0 -117.5 -22.5t-93.5 -69.5q-55 -57 -84.5 -143.5t-29.5 -170.5q0 -103 30.5 -186t100.5 -146q42 -38 90.5 -55t102.5 -17q64 0 118 19.5t96 62.5q53 54 84.5 138t31.5 175z" />
    <glyph glyph-name="dash.en" unicode="&#x2013;" horiz-adv-x="1024" 
d="M1024 511h-1024v121h1024v-121z" />
    <glyph glyph-name="dash.em" unicode="&#x2014;" horiz-adv-x="2048" 
d="M1802 511h-1556v121h1556v-121z" />
    <glyph glyph-name="quote.double.left" unicode="&#x201c;" horiz-adv-x="760" 
d="M649 971l-111 -49l-219 446l131 59zM319 971l-111 -49l-219 446l131 59z" />
    <glyph glyph-name="quote.double.right" unicode="&#x201d;" horiz-adv-x="760" 
d="M771 1368l-219 -446l-111 49l199 456zM441 1368l-219 -446l-111 49l199 456z" />
    <glyph glyph-name="quote.left" unicode="&#x2018;" horiz-adv-x="430" 
d="M319 971l-111 -49l-219 446l131 59z" />
    <glyph glyph-name="quote.right" unicode="&#x2019;" horiz-adv-x="430" 
d="M441 1368l-219 -446l-111 49l199 456z" />
    <glyph glyph-name="divide.oldstyle" unicode="&#xf7;" horiz-adv-x="1414" 
d="M804 753h-196v207h196v-207zM1175 453h-936v109h936v-109zM804 55h-196v207h196v-207z" />
    <glyph glyph-name="lozenge.oldstyle" unicode="&#x25ca;" horiz-adv-x="1414" 
d="M1274 524l-567 -569l-565 569l566 570zM1128 524l-420 424l-420 -424l419 -423z" />
    <glyph glyph-name="y_dieresis" unicode="&#xff;" horiz-adv-x="1096" 
d="M1039 971l-410.5 -913.5l-229.5 -514.5l-138 51l207 429q-8 20 -125.5 292l-286.5 650l150 65l224 -549.5l120 -285.5h2q6 10 114 266l236 565zM864 1206h-169v170h169v-170zM432 1206h-169v170h169v-170z" />
    <glyph glyph-name="Y_dieresis" unicode="&#x178;" horiz-adv-x="1186" 
d="M1176 1274l-198 -249l-306 -386q-2 -181 0.5 -380t3.5 -259h-165q2 60 4 262.5t1 364.5l-302 389.5l-194 245.5l132 100l157 -210l290 -383h2l295.5 381.5t162.5 211.5zM927 1461h-191v183h191v-183zM465 1461h-191v183h191v-183z" />
    <glyph glyph-name="fraction" unicode="&#x2044;" horiz-adv-x="368" 
d="M672 1319l-238 -358.5l-228 -349.5l-291 -454.5l-125 -198.5l-97 71q13 18 129.5 195.5l290.5 445.5l226.5 350.5l235.5 368.5z" />
    <glyph glyph-name="Euro" horiz-adv-x="1524" 
d="M1241 715h-1141l48 110h1139zM1147 495h-1047l48 110h1047zM1366 149q-173 -149 -428 -149q-280 0 -470 190t-190 470t190 470t470 190t476 -196l-48 -111q-183 197 -428 197q-230 0 -390 -160t-160 -390t160 -390t390 -160q250 0 428 201v-162z" />
    <glyph glyph-name="guillemot.single.left" unicode="&#x2039;" horiz-adv-x="680" 
d="M580 195l-78 -78l-414 423v6l414 424l78 -78l-348 -348z" />
    <glyph glyph-name="guillemot.single.right" unicode="&#x203a;" horiz-adv-x="680" 
d="M592 540l-414 -423l-78 78l348 349l-348 348l78 78l414 -424v-6z" />
    <glyph glyph-name="dagger.double" unicode="&#x2021;" horiz-adv-x="744" 
d="M448 1376l-15 -222h-121l-15 222h151zM680 997l-222 15v117l222 15v-147zM287 1012l-223 -15v147l223 -15v-117zM431 391h-117q0 11 2 81t2 245q0 99 -2 176t-2 92h117q0 -14 -2 -91.5t-2 -176.5q0 -183 2 -249.5t2 -76.5zM680 232l-222 15v117l222 15v-147zM287 247
l-223 -15v147l223 -15v-117zM448 0h-151l15 222h121z" />
    <glyph glyph-name="period.centered.oldstyle" unicode="&#xb7;" horiz-adv-x="532" 
d="M367 401h-201v213h201v-213z" />
    <glyph glyph-name="quote.single.baseline" unicode="&#x201a;" horiz-adv-x="430" 
d="M381 195l-219 -446l-111 49l199 456z" />
    <glyph glyph-name="quote.double.baseline" unicode="&#x201e;" horiz-adv-x="760" 
d="M711 195l-219 -446l-111 49l199 456zM381 195l-219 -446l-111 49l199 456z" />
    <glyph glyph-name="perthousand.oldstyle" unicode="&#x2030;" horiz-adv-x="2850" 
d="M847 940q0 -81 -29 -155.5t-86 -126.5q-53 -51 -117 -77.5t-151 -26.5q-80 0 -149 28t-117 76q-55 54 -84 126t-29 158q0 81 27 150.5t76 121.5q48 51 120 82t158 31q85 0 156 -30t118 -79q49 -49 78 -121t29 -157zM2765 355q0 -81 -29 -155.5t-86 -126.5
q-53 -51 -117 -77.5t-151 -26.5q-80 0 -149 28t-117 76q-55 54 -84 126t-29 158q0 81 27 150.5t76 121.5q48 51 120 82t158 31q85 0 156 -30t118 -79q49 -49 78 -121t29 -157zM1891 355q0 -81 -29 -155.5t-86 -126.5q-53 -51 -117 -77.5t-151 -26.5q-80 0 -149 28t-117 76
q-55 54 -84 126t-29 158q0 81 27 150.5t76 121.5q48 51 120 82t158 31q85 0 156 -30t118 -79q49 -49 78 -121t29 -157zM705 932q0 67 -18.5 121t-58.5 92q-29 31 -70.5 48t-91.5 17q-49 0 -90.5 -16.5t-72.5 -47.5q-34 -32 -55.5 -89.5t-21.5 -116.5q0 -64 19.5 -117.5
t62.5 -94.5q30 -30 71 -45.5t85 -15.5t88 16.5t72 44.5q40 39 60.5 89t20.5 115zM2623 347q0 67 -18.5 121t-58.5 92q-29 31 -70.5 48t-91.5 17q-49 0 -90.5 -16.5t-72.5 -47.5q-34 -32 -55.5 -89.5t-21.5 -116.5q0 -64 19.5 -117.5t62.5 -94.5q30 -30 71 -45.5t85 -15.5
t88 16.5t72 44.5q40 39 60.5 89t20.5 115zM1749 347q0 67 -18.5 121t-58.5 92q-29 31 -70.5 48t-91.5 17q-49 0 -90.5 -16.5t-72.5 -47.5q-34 -32 -55.5 -89.5t-21.5 -116.5q0 -64 19.5 -117.5t62.5 -94.5q30 -30 71 -45.5t85 -15.5t88 16.5t72 44.5q40 39 60.5 89t20.5 115
zM1478 1283l-238 -358.5l-228 -349.5l-290 -454.5l-147 -234.5l-101 71l148 227.5l293 449.5l226.5 350.5l235.5 368.5z" />
    <glyph glyph-name="A_circumflex" unicode="&#xc2;" horiz-adv-x="1358" 
d="M1346 53l-156 -80q-4 11 -62.5 149l-154.5 355h-598l-162 -361t-63 -143l-134 72q26 52 214.5 458.5l391.5 854.5h130l393 -868zM916 605l-114 255l-126 278h-4l-123 -270.5l-119 -262.5l1 -1h484zM1011 1481l-90 -72l-235 212h-2l-234 -200l-91 71l257 226h137z" />
    <glyph glyph-name="E_circumflex" unicode="&#xca;" horiz-adv-x="1237" 
d="M1084 2q-9 0 -133 1t-307 1q-127 0 -232.5 -1t-178.5 -1q2 58 3.5 251t1.5 399q0 113 -1 299t-4 385q71 0 177.5 -1t219.5 -1q191 0 311 1t130 1v-139q-10 0 -125.5 1.5t-287.5 1.5q-75 0 -147 -0.5t-114 -0.5q0 -113 -2 -225.5t-2 -212.5q45 0 106.5 -0.5t109.5 -0.5
q176 0 314.5 1.5t147.5 1.5v-138q-8 0 -165 1.5t-287 1.5q-48 0 -114.5 -0.5t-111.5 -0.5q0 -189 1 -300t2 -186q59 -1 143 -1.5t181 -0.5q149 0 250.5 1t113.5 1v-139zM984 1486l-90 -72l-235 212h-2l-234 -200l-91 71l257 226h137z" />
    <glyph glyph-name="A_acute" unicode="&#xc1;" horiz-adv-x="1358" 
d="M1346 53l-156 -80q-4 11 -62.5 149l-154.5 355h-598l-162 -361t-63 -143l-134 72q26 52 214.5 458.5l391.5 854.5h130l393 -868zM916 605l-114 255l-126 278h-4l-123 -270.5l-119 -262.5l1 -1h484zM1040 1621l-480 -185l-50 99l473 206z" />
    <glyph glyph-name="E_dieresis" unicode="&#xcb;" horiz-adv-x="1237" 
d="M1084 2q-9 0 -133 1t-307 1q-127 0 -232.5 -1t-178.5 -1q2 58 3.5 251t1.5 399q0 113 -1 299t-4 385q71 0 177.5 -1t219.5 -1q191 0 311 1t130 1v-139q-10 0 -125.5 1.5t-287.5 1.5q-75 0 -147 -0.5t-114 -0.5q0 -113 -2 -225.5t-2 -212.5q45 0 106.5 -0.5t109.5 -0.5
q176 0 314.5 1.5t147.5 1.5v-138q-8 0 -165 1.5t-287 1.5q-48 0 -114.5 -0.5t-111.5 -0.5q0 -189 1 -300t2 -186q59 -1 143 -1.5t181 -0.5q149 0 250.5 1t113.5 1v-139zM990 1461h-191v183h191v-183zM528 1461h-191v183h191v-183z" />
    <glyph glyph-name="E_grave" unicode="&#xc8;" horiz-adv-x="1237" 
d="M1084 2q-9 0 -133 1t-307 1q-127 0 -232.5 -1t-178.5 -1q2 58 3.5 251t1.5 399q0 113 -1 299t-4 385q71 0 177.5 -1t219.5 -1q191 0 311 1t130 1v-139q-10 0 -125.5 1.5t-287.5 1.5q-75 0 -147 -0.5t-114 -0.5q0 -113 -2 -225.5t-2 -212.5q45 0 106.5 -0.5t109.5 -0.5
q176 0 314.5 1.5t147.5 1.5v-138q-8 0 -165 1.5t-287 1.5q-48 0 -114.5 -0.5t-111.5 -0.5q0 -189 1 -300t2 -186q59 -1 143 -1.5t181 -0.5q149 0 250.5 1t113.5 1v-139zM904 1535l-50 -99l-480 185l57 120z" />
    <glyph glyph-name="I_acute" unicode="&#xcd;" horiz-adv-x="635" 
d="M631 1621l-440 -185l-50 99l433 206zM400 0h-165q1 60 3 214t2 442q0 114 -1 299t-4 384h165q-2 -143 -3.5 -332.5t-1.5 -309.5q0 -304 2 -470.5t3 -226.5z" />
    <glyph glyph-name="I_circumflex" unicode="&#xce;" horiz-adv-x="635" 
d="M613 1481l-90 -72l-205 212h-2l-204 -200l-91 71l227 226h137zM400 0h-165q1 60 3 214t2 442q0 114 -1 299t-4 384h165q-2 -143 -3.5 -332.5t-1.5 -309.5q0 -304 2 -470.5t3 -226.5z" />
    <glyph glyph-name="I_dieresis" unicode="&#xcf;" horiz-adv-x="635" 
d="M604 1461h-191v183h191v-183zM222 1461h-191v183h191v-183zM400 0h-165q1 60 3 214t2 442q0 114 -1 299t-4 384h165q-2 -143 -3.5 -332.5t-1.5 -309.5q0 -304 2 -470.5t3 -226.5z" />
    <glyph glyph-name="I_grave" unicode="&#xcc;" horiz-adv-x="635" 
d="M494 1535l-50 -99l-440 185l57 120zM400 0h-165q1 60 3 214t2 442q0 114 -1 299t-4 384h165q-2 -143 -3.5 -332.5t-1.5 -309.5q0 -304 2 -470.5t3 -226.5z" />
    <glyph glyph-name="O_acute" unicode="&#xd3;" horiz-adv-x="1548" 
d="M1419 669q0 -162 -55.5 -297.5t-144.5 -223.5q-99 -98 -210 -142.5t-238 -44.5q-124 0 -234 42.5t-198 126.5q-97 91 -156.5 229.5t-59.5 311.5q0 154 47 280.5t141 227.5q87 94 207 145.5t253 51.5q135 0 250 -48.5t199 -134.5q98 -100 148.5 -235.5t50.5 -288.5z
M1248 653q0 130 -43.5 255.5t-132.5 210.5q-60 58 -134.5 90t-166.5 32q-90 0 -167.5 -32.5t-140.5 -95.5q-80 -80 -124.5 -198t-44.5 -246q0 -144 45.5 -258t128.5 -193q57 -55 135 -88.5t167 -33.5t166.5 32.5t140.5 93.5q75 72 123 183.5t48 247.5zM1088 1621l-480 -185
l-50 99l473 206z" />
    <glyph glyph-name="O_circumflex" unicode="&#xd4;" horiz-adv-x="1548" 
d="M1419 669q0 -162 -55.5 -297.5t-144.5 -223.5q-99 -98 -210 -142.5t-238 -44.5q-124 0 -234 42.5t-198 126.5q-97 91 -156.5 229.5t-59.5 311.5q0 154 47 280.5t141 227.5q87 94 207 145.5t253 51.5q135 0 250 -48.5t199 -134.5q98 -100 148.5 -235.5t50.5 -288.5z
M1248 653q0 130 -43.5 255.5t-132.5 210.5q-60 58 -134.5 90t-166.5 32q-90 0 -167.5 -32.5t-140.5 -95.5q-80 -80 -124.5 -198t-44.5 -246q0 -144 45.5 -258t128.5 -193q57 -55 135 -88.5t167 -33.5t166.5 32.5t140.5 93.5q75 72 123 183.5t48 247.5zM1097 1481l-90 -72
l-235 212h-2l-234 -200l-91 71l257 226h137z" />
    <glyph glyph-name="apple" unicode="&#xf8ff;" horiz-adv-x="1515" 
d="M780 1204q45 0 147 35t177 35q62 0 116.5 -16.5t102.5 -49.5q26 -18 53.5 -44.5t53.5 -58.5q-40 -34 -69.5 -64.5t-47.5 -56.5q-33 -48 -50 -101t-17 -111q0 -127 71 -229t162 -129q-19 -62 -50.5 -126t-75.5 -131q-66 -101 -132 -151t-132 -50q-52 0 -143.5 33
t-154.5 33t-146.5 -34.5t-135.5 -34.5q-78 0 -155 66.5t-153 199.5q-75 130 -113 259.5t-38 256.5q0 235 115.5 383t291.5 148q75 0 181.5 -31t141.5 -31zM1093 1617q0 -64 -30 -140t-95 -141q-28 -28 -55.5 -46.5t-55.5 -27.5q-15 -5 -42.5 -9.5t-63.5 -7.5q2 152 79.5 263
t256.5 152q4 -13 5 -23t1 -20z" />
    <glyph glyph-name="O_grave" unicode="&#xd2;" horiz-adv-x="1548" 
d="M1419 669q0 -162 -55.5 -297.5t-144.5 -223.5q-99 -98 -210 -142.5t-238 -44.5q-124 0 -234 42.5t-198 126.5q-97 91 -156.5 229.5t-59.5 311.5q0 154 47 280.5t141 227.5q87 94 207 145.5t253 51.5q135 0 250 -48.5t199 -134.5q98 -100 148.5 -235.5t50.5 -288.5z
M1248 653q0 130 -43.5 255.5t-132.5 210.5q-60 58 -134.5 90t-166.5 32q-90 0 -167.5 -32.5t-140.5 -95.5q-80 -80 -124.5 -198t-44.5 -246q0 -144 45.5 -258t128.5 -193q57 -55 135 -88.5t167 -33.5t166.5 32.5t140.5 93.5q75 72 123 183.5t48 247.5zM984 1535l-50 -99
l-480 185l57 120z" />
    <glyph glyph-name="U_acute" unicode="&#xda;" horiz-adv-x="1547" 
d="M1324 1339q0 -192 -2 -317.5t-2 -218.5q0 -114 0.5 -194.5t0.5 -139.5q0 -116 -34.5 -204.5t-104.5 -154.5t-172 -103.5t-236 -37.5t-236 37t-173 104q-70 66 -104.5 154.5t-34.5 204.5q0 59 0.5 139.5t0.5 194.5q0 93 -2 218.5t-2 317.5h165q-1 -25 -2.5 -170.5
t-1.5 -382.5q0 -72 0.5 -149t0.5 -158q0 -183 105 -277.5t284 -94.5q194 0 291 90t97 282q0 81 0.5 158t0.5 149q0 237 -2 388t-2 165h165zM1096 1621l-480 -185l-50 99l473 206z" />
    <glyph glyph-name="U_circumflex" unicode="&#xdb;" horiz-adv-x="1547" 
d="M1324 1339q0 -192 -2 -317.5t-2 -218.5q0 -114 0.5 -194.5t0.5 -139.5q0 -116 -34.5 -204.5t-104.5 -154.5t-172 -103.5t-236 -37.5t-236 37t-173 104q-70 66 -104.5 154.5t-34.5 204.5q0 59 0.5 139.5t0.5 194.5q0 93 -2 218.5t-2 317.5h165q-1 -25 -2.5 -170.5
t-1.5 -382.5q0 -72 0.5 -149t0.5 -158q0 -183 105 -277.5t284 -94.5q194 0 291 90t97 282q0 81 0.5 158t0.5 149q0 237 -2 388t-2 165h165zM1100 1481l-90 -72l-235 212h-2l-234 -200l-91 71l257 226h137z" />
    <glyph glyph-name="U_grave" unicode="&#xd9;" horiz-adv-x="1547" 
d="M1324 1339q0 -192 -2 -317.5t-2 -218.5q0 -114 0.5 -194.5t0.5 -139.5q0 -116 -34.5 -204.5t-104.5 -154.5t-172 -103.5t-236 -37.5t-236 37t-173 104q-70 66 -104.5 154.5t-34.5 204.5q0 59 0.5 139.5t0.5 194.5q0 93 -2 218.5t-2 317.5h165q-1 -25 -2.5 -170.5
t-1.5 -382.5q0 -72 0.5 -149t0.5 -158q0 -183 105 -277.5t284 -94.5q194 0 291 90t97 282q0 81 0.5 158t0.5 149q0 237 -2 388t-2 165h165zM981 1535l-50 -99l-480 185l57 120z" />
    <glyph glyph-name="i.dotless" unicode="&#x131;" horiz-adv-x="545" 
d="M352 0h-158q1 16 2.5 197t1.5 299q0 103 -0.5 226.5t-3.5 289.5h158q-2 -144 -3.5 -269.5t-1.5 -223.5q0 -233 2.5 -374t2.5 -145z" />
    <glyph glyph-name="circumflex.spacing" unicode="&#x2c6;" horiz-adv-x="800" 
d="M723 1177l-89 -68l-233 258h-2l-233 -258l-89 68l261 289h123z" />
    <glyph glyph-name="tilde.spacing" unicode="&#x2dc;" horiz-adv-x="800" 
d="M736 1420q-23 -109 -82 -167.5t-145 -58.5q-33 0 -59 11.5t-48 27.5l-32.5 26t-36.5 28q-11 9 -28 15t-35 6q-36 0 -62 -36.5t-42 -101.5l-101 20q22 105 80.5 165.5t143.5 60.5q31 0 57 -10t53 -29l36 -28.5t33 -25.5q13 -11 27.5 -16t35.5 -5q37 0 63.5 38.5t40.5 99.5
z" />
    <glyph glyph-name="macron.spacing" unicode="&#xaf;" horiz-adv-x="800" 
d="M727 1239q-11 0 -127.5 0.5t-196.5 0.5q-84 0 -201 -0.5t-129 -0.5v112q15 0 130.5 -0.5t194.5 -0.5q85 0 202 0.5t127 0.5v-112z" />
    <glyph glyph-name="macron.spacing" unicode="&#x2c9;" horiz-adv-x="800" 
d="M727 1239q-11 0 -127.5 0.5t-196.5 0.5q-84 0 -201 -0.5t-129 -0.5v112q15 0 130.5 -0.5t194.5 -0.5q85 0 202 0.5t127 0.5v-112z" />
    <glyph glyph-name="breve.spacing" unicode="&#x2d8;" horiz-adv-x="800" 
d="M721 1427q-29 -125 -111 -208t-211 -83t-211 83t-112 208l104 41q43 -126 95.5 -179.5t123.5 -53.5t123.5 53.5t93.5 180.5z" />
    <glyph glyph-name="dot.accent.spacing" unicode="&#x2d9;" horiz-adv-x="800" 
d="M485 1206h-171v170h171v-170z" />
    <glyph glyph-name="ring.spacing" unicode="&#x2da;" horiz-adv-x="800" 
d="M591 1289q0 -79 -57 -134.5t-137 -55.5t-135 55t-55 135q0 82 57 136t135 54t135 -54.5t57 -135.5zM503 1290q0 45 -29.5 75t-73.5 30q-45 0 -75 -29.5t-30 -75.5q0 -47 30.5 -77t74.5 -30t73.5 31t29.5 76z" />
    <glyph glyph-name="cedilla.spacing" unicode="&#xb8;" horiz-adv-x="800" 
d="M633 24q0 -106 -34 -184.5t-110 -120.5q-31 -17 -87.5 -36t-122.5 -23l-18 109q75 4 123.5 21.5t69.5 38.5q27 27 43.5 60.5t16.5 113.5v21h119z" />
    <glyph glyph-name="umlaut.hungarian.spacing" unicode="&#x2dd;" horiz-adv-x="800" 
d="M555 1399l-286 -273l-78 66l266 288zM863 1396l-286 -273l-78 66l266 288z" />
    <glyph glyph-name="ogonek.spacing" unicode="&#x2db;" horiz-adv-x="800" 
d="M790 -226l-43 -109q-72 0 -126 17t-83 36q-53 33 -70 84t-17 105q0 25 4.5 57t10.5 60h117q-6 -32 -8.5 -61t-2.5 -41q0 -35 6 -56.5t22 -39.5q19 -22 64.5 -37t125.5 -15z" />
    <glyph glyph-name="caron.spacing" unicode="&#x2c7;" horiz-adv-x="800" 
d="M725 1399l-262 -289h-123l-261 289l89 68l233 -258h2l233 258z" />
    <glyph glyph-name="comma.accent.spacing" horiz-adv-x="800" 
d="M617 -160l-352 -275l-75 81l338 293z" />
    <glyph glyph-name="bar.broken" unicode="&#xa6;" horiz-adv-x="600" 
d="M360 641h-116l-1 825h116zM360 374l-1 -830h-116l1 830h116z" />
    <glyph glyph-name="minus.oldstyle" horiz-adv-x="1414" 
d="M1175 453h-936v109h936v-109z" />
    <glyph glyph-name="multiply.oldstyle" horiz-adv-x="1414" 
d="M1116 838l-336 -332l334 -330l-79 -79l-330 333l-334 -337l-79 78l337 335l-337 335l79 78l334 -338l333 336z" />
    <glyph glyph-name="A_macron" unicode="&#x100;" horiz-adv-x="1358" 
d="M1346 53l-156 -80q-4 11 -62.5 149l-154.5 355h-598l-162 -361t-63 -143l-134 72q26 52 214.5 458.5l391.5 854.5h130l393 -868zM916 605l-114 255l-126 278h-4l-123 -270.5l-119 -262.5l1 -1h484zM1019 1496q-21 0 -146.5 0.5t-183.5 0.5q-85 0 -198.5 -0.5t-138.5 -0.5
v113q25 0 125.5 -0.5t206.5 -0.5q85 0 200.5 0.5t134.5 0.5v-113z" />
    <glyph glyph-name="A_breve" unicode="&#x102;" horiz-adv-x="1358" 
d="M1346 53l-156 -80q-4 11 -62.5 149l-154.5 355h-598l-162 -361t-63 -143l-134 72q26 52 214.5 458.5l391.5 854.5h130l393 -868zM916 605l-114 255l-126 278h-4l-123 -270.5l-119 -262.5l1 -1h484zM1002 1686q-7 -23 -28.5 -71t-55.5 -86q-40 -45 -93 -75t-140 -30
q-82 0 -139.5 31.5t-94.5 74.5q-38 45 -56.5 88.5t-26.5 68.5l108 36q8 -23 25 -59t41 -65q28 -35 58.5 -55.5t84.5 -20.5q48 0 84.5 23.5t58.5 51.5q23 29 40 63.5t26 60.5z" />
    <glyph glyph-name="A_ogonek" unicode="&#x104;" horiz-adv-x="1358" 
d="M1346 53l-156 -80q-4 11 -62.5 149l-154.5 355h-598l-162 -361t-63 -143l-134 72q26 52 214.5 458.5l391.5 854.5h130l393 -868zM916 605l-114 255l-126 278h-4l-123 -270.5l-119 -262.5l1 -1h484zM1536 -238l-33 -117q-72 0 -131.5 21t-89.5 43q-50 37 -72 88t-22 110
q0 25 1 44t4 30l134 68q-7 -36 -10.5 -62t-3.5 -63q0 -30 12.5 -59.5t29.5 -47.5q16 -17 63.5 -36t117.5 -19z" />
    <glyph glyph-name="C_acute" unicode="&#x106;" horiz-adv-x="1182" 
d="M1120 123l-5.5 -50.5t-8.5 -90.5h-17.5h-17.5q-244 0 -434 61.5t-312 178.5q-85 81 -134.5 194t-49.5 258q0 130 49 237.5t128 187.5q115 116 309 184t415 68h25h20q1 -18 4 -57.5t7 -85.5h-17h-17q-125 0 -259 -27.5t-231 -82.5q-126 -72 -194 -184.5t-68 -242.5
q0 -135 61 -245.5t193 -185.5q108 -62 241.5 -90t265.5 -28h19t28 1zM1102 1621l-480 -185l-50 99l473 206z" />
    <glyph glyph-name="C_caron" unicode="&#x10c;" horiz-adv-x="1182" 
d="M1120 123l-5.5 -50.5t-8.5 -90.5h-17.5h-17.5q-244 0 -434 61.5t-312 178.5q-85 81 -134.5 194t-49.5 258q0 130 49 237.5t128 187.5q115 116 309 184t415 68h25h20q1 -18 4 -57.5t7 -85.5h-17h-17q-125 0 -259 -27.5t-231 -82.5q-126 -72 -194 -184.5t-68 -242.5
q0 -135 61 -245.5t193 -185.5q108 -62 241.5 -90t265.5 -28h19t28 1zM1117 1652l-258 -226l-136 -1l-257 227l91 71l234 -200h3l232 200z" />
    <glyph glyph-name="D_caron" unicode="&#x10e;" horiz-adv-x="1497" 
d="M1354 662q0 -176 -86.5 -309t-224.5 -214q-120 -71 -267.5 -108t-331.5 -37q-70 0 -137 2t-74 2q0 5 2.5 230.5t2.5 427.5q0 107 -0.5 275t-4.5 408q10 0 91.5 1t87.5 1q207 0 367.5 -37t286.5 -117q146 -93 217 -223.5t71 -301.5zM1183 663q0 130 -56 236t-177 182
q-113 71 -250.5 99t-249.5 28h-31h-21q-2 -158 -2.5 -262t-0.5 -166q0 -44 0.5 -205.5t1.5 -447.5h25.5h25.5q130 0 261 30.5t221 84.5q114 68 183.5 172.5t69.5 248.5zM980 1652l-258 -226l-136 -1l-257 227l91 71l234 -200h3l232 200z" />
    <glyph glyph-name="D_bar.croat" unicode="&#x110;" horiz-adv-x="1497" 
d="M1354 662q0 -176 -86.5 -309t-224.5 -214q-120 -71 -267.5 -108t-331.5 -37q-70 0 -136.5 2t-74.5 2q0 14 2.5 216t2.5 422q-60 0 -133.5 -1t-82.5 -1v117q8 0 69 -1t147 -1q-1 90 -1.5 235.5t-3.5 354.5q14 0 93.5 1t85.5 1q207 0 367.5 -37t286.5 -117
q146 -93 217 -223.5t71 -301.5zM1183 663q0 130 -56 236t-177 182q-113 71 -250.5 99t-249.5 28h-29.5h-24.5q-2 -138 -2.5 -262t-0.5 -197q101 0 208 1t122 1v-117q-10 0 -111.5 1t-218.5 1q0 -49 1 -187.5t1 -321.5h26.5h26.5q130 0 261 30.5t221 84.5q114 68 183.5 172.5
t69.5 248.5z" />
    <glyph glyph-name="Eth" unicode="&#xd0;" horiz-adv-x="1497" 
d="M1354 662q0 -176 -86.5 -309t-224.5 -214q-120 -71 -267.5 -108t-331.5 -37q-70 0 -136.5 2t-74.5 2q0 14 2.5 216t2.5 422q-60 0 -133.5 -1t-82.5 -1v117q8 0 69 -1t147 -1q-1 90 -1.5 235.5t-3.5 354.5q14 0 93.5 1t85.5 1q207 0 367.5 -37t286.5 -117
q146 -93 217 -223.5t71 -301.5zM1183 663q0 130 -56 236t-177 182q-113 71 -250.5 99t-249.5 28h-29.5h-24.5q-2 -138 -2.5 -262t-0.5 -197q101 0 208 1t122 1v-117q-10 0 -111.5 1t-218.5 1q0 -49 1 -187.5t1 -321.5h26.5h26.5q130 0 261 30.5t221 84.5q114 68 183.5 172.5
t69.5 248.5z" />
    <glyph glyph-name="E_macron" unicode="&#x112;" horiz-adv-x="1237" 
d="M1084 2q-9 0 -133 1t-307 1q-127 0 -232.5 -1t-178.5 -1q2 58 3.5 251t1.5 399q0 113 -1 299t-4 385q71 0 177.5 -1t219.5 -1q191 0 311 1t130 1v-139q-10 0 -125.5 1.5t-287.5 1.5q-75 0 -147 -0.5t-114 -0.5q0 -113 -2 -225.5t-2 -212.5q45 0 106.5 -0.5t109.5 -0.5
q176 0 314.5 1.5t147.5 1.5v-138q-8 0 -165 1.5t-287 1.5q-48 0 -114.5 -0.5t-111.5 -0.5q0 -189 1 -300t2 -186q59 -1 143 -1.5t181 -0.5q149 0 250.5 1t113.5 1v-139zM1001 1506q-21 0 -146.5 0.5t-183.5 0.5q-85 0 -198.5 -0.5t-138.5 -0.5v113q25 0 125.5 -0.5
t206.5 -0.5q85 0 200.5 0.5t134.5 0.5v-113z" />
    <glyph glyph-name="E_dot.accent" unicode="&#x116;" horiz-adv-x="1237" 
d="M1084 2q-9 0 -133 1t-307 1q-127 0 -232.5 -1t-178.5 -1q2 58 3.5 251t1.5 399q0 113 -1 299t-4 385q71 0 177.5 -1t219.5 -1q191 0 311 1t130 1v-139q-10 0 -125.5 1.5t-287.5 1.5q-75 0 -147 -0.5t-114 -0.5q0 -113 -2 -225.5t-2 -212.5q45 0 106.5 -0.5t109.5 -0.5
q176 0 314.5 1.5t147.5 1.5v-138q-8 0 -165 1.5t-287 1.5q-48 0 -114.5 -0.5t-111.5 -0.5q0 -189 1 -300t2 -186q59 -1 143 -1.5t181 -0.5q149 0 250.5 1t113.5 1v-139zM768 1471h-195v183h195v-183z" />
    <glyph glyph-name="E_ogonek" unicode="&#x118;" horiz-adv-x="1237" 
d="M1278 -239l-32 -116q-70 0 -127 19t-89 41q-56 38 -78 91.5t-22 116.5q0 26 1 45t5 45q-9 0 -59 0.5t-233 0.5q-127 0 -232.5 -1t-178.5 -1q2 58 3.5 251t1.5 399q0 113 -1 299t-4 385q71 0 177.5 -1t219.5 -1q191 0 311 1t130 1v-139q-10 0 -125.5 1.5t-287.5 1.5
q-75 0 -147 -0.5t-114 -0.5q0 -113 -2 -225.5t-2 -212.5q45 0 106.5 -0.5t109.5 -0.5q176 0 314.5 1.5t147.5 1.5v-138q-8 0 -165 1.5t-287 1.5q-48 0 -114.5 -0.5t-111.5 -0.5q0 -189 1 -300t2 -186q59 -1 143 -1.5t181 -0.5q96 0 226.5 1t143.5 1v-5q-9 -24 -22 -80
t-13 -122q0 -44 15 -75.5t33 -46.5q29 -23 75 -37t100 -14z" />
    <glyph glyph-name="E_caron" unicode="&#x11a;" horiz-adv-x="1237" 
d="M1084 2q-9 0 -133 1t-307 1q-127 0 -232.5 -1t-178.5 -1q2 58 3.5 251t1.5 399q0 113 -1 299t-4 385q71 0 177.5 -1t219.5 -1q191 0 311 1t130 1v-139q-10 0 -125.5 1.5t-287.5 1.5q-75 0 -147 -0.5t-114 -0.5q0 -113 -2 -225.5t-2 -212.5q45 0 106.5 -0.5t109.5 -0.5
q176 0 314.5 1.5t147.5 1.5v-138q-8 0 -165 1.5t-287 1.5q-48 0 -114.5 -0.5t-111.5 -0.5q0 -189 1 -300t2 -186q59 -1 143 -1.5t181 -0.5q149 0 250.5 1t113.5 1v-139zM999 1652l-258 -226l-136 -1l-257 227l91 71l234 -200h3l232 200z" />
    <glyph glyph-name="G_breve" unicode="&#x11e;" horiz-adv-x="1410" 
d="M1223 688q-2 -72 -4 -168.5t-2 -159.5q0 -101 2 -225.5t2 -138.5q-9 -1 -60 -4.5t-99 -3.5q-238 0 -420.5 51t-316.5 178q-83 78 -133.5 193.5t-50.5 263.5q0 182 96.5 325.5t265.5 231.5q115 60 261.5 90.5t305.5 30.5q25 0 46.5 -0.5t38.5 -0.5l12 -144q-4 0 -32 0.5
t-45 0.5q-153 0 -280 -26t-222 -76q-129 -68 -202.5 -185t-73.5 -249q0 -167 76.5 -276.5t197.5 -171.5q108 -55 228.5 -77.5t248.5 -22.5q0 16 -1 155.5t-4 408.5h165zM1186 1686q-7 -23 -28.5 -71t-55.5 -86q-40 -45 -93 -75t-140 -30q-82 0 -139.5 31.5t-94.5 74.5
q-38 45 -56.5 88.5t-26.5 68.5l108 36q8 -23 25 -59t41 -65q28 -35 58.5 -55.5t84.5 -20.5q48 0 84.5 23.5t58.5 51.5q23 29 40 63.5t26 60.5z" />
    <glyph glyph-name="G_cedilla" unicode="&#x122;" horiz-adv-x="1410" 
d="M1069 -12q-1 -42 -6.5 -87.5t-20.5 -83.5q-18 -45 -47.5 -79t-70.5 -59q-33 -19 -95 -40.5t-146 -21.5h-6h-6l-17 115q103 4 155 23t74 41q30 30 44.5 71t14.5 124q-217 15 -360.5 67t-256.5 159q-83 79 -133.5 194t-50.5 263q0 182 96.5 325.5t265.5 231.5
q115 60 261.5 90.5t305.5 30.5q25 0 46.5 -0.5t38.5 -0.5l12 -144q-4 0 -32 0.5t-45 0.5q-153 0 -280 -26t-222 -76q-129 -68 -202.5 -185t-73.5 -249q0 -167 76.5 -276.5t197.5 -171.5q108 -55 228.5 -77.5t248.5 -22.5q0 16 -1 155.5t-4 408.5h165q-2 -72 -4 -168.5
t-2 -159.5q0 -101 2 -225.5t2 -138.5q-9 -1 -58.5 -4.5t-93.5 -3.5z" />
    <glyph glyph-name="G_comma.accent" horiz-adv-x="1410" 
d="M1223 688q-2 -72 -4 -168.5t-2 -159.5q0 -101 2 -225.5t2 -138.5q-9 -1 -60 -4.5t-99 -3.5q-238 0 -420.5 51t-316.5 178q-83 78 -133.5 193.5t-50.5 263.5q0 182 96.5 325.5t265.5 231.5q115 60 261.5 90.5t305.5 30.5q25 0 46.5 -0.5t38.5 -0.5l12 -144q-4 0 -32 0.5
t-45 0.5q-153 0 -280 -26t-222 -76q-129 -68 -202.5 -185t-73.5 -249q0 -167 76.5 -276.5t197.5 -171.5q108 -55 228.5 -77.5t248.5 -22.5q0 16 -1 155.5t-4 408.5h165zM1047 -160l-352 -275l-75 81l338 293z" />
    <glyph glyph-name="I_macron" unicode="&#x12a;" horiz-adv-x="635" 
d="M631 1496q-16 0 -133.5 0.5t-177.5 0.5q-82 0 -187.5 -0.5t-128.5 -0.5v113q13 0 116 -0.5t196 -0.5q83 0 192 0.5t123 0.5v-113zM400 0h-165q1 60 3 214t2 442q0 114 -1 299t-4 384h165q-2 -143 -3.5 -332.5t-1.5 -309.5q0 -304 2 -470.5t3 -226.5z" />
    <glyph glyph-name="I_dot.accent" unicode="&#x130;" horiz-adv-x="635" 
d="M415 1481h-195v183h195v-183zM400 0h-165q1 60 3 214t2 442q0 114 -1 299t-4 384h165q-2 -143 -3.5 -332.5t-1.5 -309.5q0 -304 2 -470.5t3 -226.5z" />
    <glyph glyph-name="I_ogonek" unicode="&#x12e;" horiz-adv-x="635" 
d="M240 656q0 114 -1 299t-4 384h165q-2 -143 -3.5 -332.5t-1.5 -309.5q0 -304 2 -470.5t3 -226.5h-41q-2 -19 -3 -32.5t-1 -33.5q0 -44 15 -76t32 -46q29 -23 75 -37t100 -14l-32 -116q-70 0 -126 19t-88 41q-56 38 -78.5 91.5t-22.5 116.5q0 25 1 42.5t4 44.5
q1 59 3 213.5t2 442.5z" />
    <glyph glyph-name="I.dotless" horiz-adv-x="635" 
d="M400 0h-165q1 60 3 214t2 442q0 114 -1 299t-4 384h165q-2 -143 -3.5 -332.5t-1.5 -309.5q0 -304 2 -470.5t3 -226.5z" />
    <glyph glyph-name="K_cedilla" unicode="&#x136;" horiz-adv-x="1292" 
d="M1265 92l-115 -110l-461 433l-254 230v4l265.5 273l406.5 432l113 -101l-353 -351.5l-228 -234.5v-2l186 -171.5zM398 0q0 -122 -35 -200.5t-110 -120.5q-32 -18 -92 -40t-149 -22h-6.5h-5.5l-17 115q103 4 155 23t74 41q31 31 45.5 67.5t14.5 136.5h-39q2 60 3.5 264
t1.5 491q0 117 -1.5 271t-3.5 313h165q-2 -153 -3 -346t-1 -333q0 -288 1.5 -444t2.5 -216z" />
    <glyph glyph-name="K_comma.accent" horiz-adv-x="1292" 
d="M398 0h-165q2 60 3.5 264t1.5 491q0 117 -1.5 271t-3.5 313h165q-2 -153 -3 -346t-1 -333q0 -288 1.5 -444t2.5 -216zM1265 92l-115 -110l-461 433l-254 230v4l265.5 273l406.5 432l113 -101l-353 -351.5l-228 -234.5v-2l197.5 -182.5zM887 -160l-352 -275l-75 81
l338 293z" />
    <glyph glyph-name="L_acute" unicode="&#x139;" horiz-adv-x="1104" 
d="M1053 2q-12 0 -126.5 1t-292.5 1q-117 0 -222.5 -1t-178.5 -1q2 172 3.5 348.5t1.5 346.5q0 284 -2 433t-3 209h165q-2 -129 -3 -298t-1 -277q0 -263 1 -439t1 -186q41 0 99 -0.5t105 -0.5q179 0 311.5 1.5t141.5 1.5v-139zM747 1621l-480 -185l-50 99l473 206z" />
    <glyph glyph-name="L_cedilla" unicode="&#x13b;" horiz-adv-x="1104" 
d="M783 3q0 -123 -35 -201t-111 -123q-32 -19 -94 -40.5t-146 -21.5h-6h-6l-17 115q103 4 155 23t74 41q31 31 45.5 69.5t14.5 137.5q-205 0 -240 -0.5t-184 -0.5q2 172 3.5 348.5t1.5 346.5q0 284 -2 433t-3 209h165q-2 -129 -3 -298t-1 -277q0 -263 1 -439t1 -186
q41 0 99 -0.5t105 -0.5q179 0 311.5 1.5t141.5 1.5v-139z" />
    <glyph glyph-name="L_caron" unicode="&#x13d;" horiz-adv-x="1104" 
d="M921 1368l-219 -446l-111 49l199 456zM1053 2q-12 0 -126.5 1t-292.5 1q-117 0 -222.5 -1t-178.5 -1q2 172 3.5 348.5t1.5 346.5q0 284 -2 433t-3 209h165q-2 -129 -3 -298t-1 -277q0 -263 1 -439t1 -186q41 0 99 -0.5t105 -0.5q179 0 311.5 1.5t141.5 1.5v-139z" />
    <glyph glyph-name="L_dot.accent" unicode="&#x13f;" horiz-adv-x="1104" 
d="M1053 2q-12 0 -126.5 1t-292.5 1q-117 0 -222.5 -1t-178.5 -1q2 172 3.5 348.5t1.5 346.5q0 284 -2 433t-3 209h165q-2 -129 -3 -298t-1 -277q0 -263 1 -439t1 -186q41 0 99 -0.5t105 -0.5q179 0 311.5 1.5t141.5 1.5v-139zM965 554h-195v183h195v-183z" />
    <glyph glyph-name="L_slash" unicode="&#x141;" horiz-adv-x="1104" 
d="M393 508q0 -161 1.5 -262t1.5 -107q41 0 99.5 -0.5t104.5 -0.5q179 0 312.5 1.5t140.5 1.5v-139q-10 0 -125.5 1t-293.5 1q-115 0 -221.5 -1t-179.5 -1q2 107 3.5 218.5t1.5 221.5l-92 -44l-58 -29l-51 100q12 5 71.5 31.5l129.5 60.5q0 33 0.5 67.5t0.5 68.5
q0 283 -3 432.5t-3 209.5h165q0 -129 -3 -299t-3 -276v-70v-66l207.5 97t133.5 65l49 -102l-150.5 -69.5z" />
    <glyph glyph-name="L_comma.accent" horiz-adv-x="1104" 
d="M1053 2q-12 0 -126.5 1t-292.5 1q-117 0 -222.5 -1t-178.5 -1q2 172 3.5 348.5t1.5 346.5q0 284 -2 433t-3 209h165q-2 -129 -3 -298t-1 -277q0 -263 1 -439t1 -186q41 0 99 -0.5t105 -0.5q179 0 311.5 1.5t141.5 1.5v-139zM823 -160l-352 -275l-75 81l338 293z" />
    <glyph glyph-name="N_acute" unicode="&#x143;" horiz-adv-x="1618" 
d="M1385 1339q-2 -157 -3.5 -359t-1.5 -291q0 -284 2 -451.5t2 -178.5l-133 -65l-564.5 736.5l-303.5 379.5l-2 -1q0 -268 3.5 -658.5t4.5 -450.5h-156q1 25 3 178t2 426q0 109 -1 289.5t-4 382.5l152 72l306.5 -389l543.5 -680l2 1q0 154 -4 518.5t-4 540.5h156zM1186 1601
l-480 -185l-50 99l473 206z" />
    <glyph glyph-name="N_cedilla" unicode="&#x145;" horiz-adv-x="1618" 
d="M1385 1339q-2 -157 -3.5 -359t-1.5 -291q0 -284 2 -451.5t2 -178.5l-133 -65l-564.5 736.5l-303.5 379.5l-2 -1q0 -268 3.5 -658.5t4.5 -450.5q0 -122 -35 -200.5t-110 -120.5q-32 -18 -92 -40t-149 -22h-7h-5l-17 115q103 4 155 23t74 41q31 31 45.5 67.5t14.5 136.5
h-30q1 25 3 178t2 426q0 109 -1 289.5t-4 382.5l152 72l306.5 -389l543.5 -680l2 1q0 154 -4 518.5t-4 540.5h156z" />
    <glyph glyph-name="N_caron" unicode="&#x147;" horiz-adv-x="1618" 
d="M1385 1339q-2 -157 -3.5 -359t-1.5 -291q0 -284 2 -451.5t2 -178.5l-133 -65l-564.5 736.5l-303.5 379.5l-2 -1q0 -268 3.5 -658.5t4.5 -450.5h-156q1 25 3 178t2 426q0 109 -1 289.5t-4 382.5l152 72l306.5 -389l543.5 -680l2 1q0 154 -4 518.5t-4 540.5h156zM1159 1632
l-258 -226l-136 -1l-257 227l91 71l234 -200h3l232 200z" />
    <glyph glyph-name="N_comma.accent" horiz-adv-x="1618" 
d="M1385 1339q-2 -157 -3.5 -359t-1.5 -291q0 -284 2 -451.5t2 -178.5l-133 -65l-564.5 736.5l-303.5 379.5l-2 -1q0 -268 3.5 -658.5t4.5 -450.5h-156q1 25 3 178t2 426q0 109 -1 289.5t-4 382.5l152 72l306.5 -389l543.5 -680l2 1q0 154 -4 518.5t-4 540.5h156zM1001 -160
l-352 -275l-75 81l338 293z" />
    <glyph glyph-name="O_macron" unicode="&#x14c;" horiz-adv-x="1548" 
d="M1419 669q0 -162 -55.5 -297.5t-144.5 -223.5q-99 -98 -210 -142.5t-238 -44.5q-124 0 -234 42.5t-198 126.5q-97 91 -156.5 229.5t-59.5 311.5q0 154 47 280.5t141 227.5q87 94 207 145.5t253 51.5q135 0 250 -48.5t199 -134.5q98 -100 148.5 -235.5t50.5 -288.5z
M1248 653q0 130 -43.5 255.5t-132.5 210.5q-60 58 -134.5 90t-166.5 32q-90 0 -167.5 -32.5t-140.5 -95.5q-80 -80 -124.5 -198t-44.5 -246q0 -144 45.5 -258t128.5 -193q57 -55 135 -88.5t167 -33.5t166.5 32.5t140.5 93.5q75 72 123 183.5t48 247.5zM1102 1506
q-21 0 -146.5 0.5t-183.5 0.5q-85 0 -198.5 -0.5t-138.5 -0.5v113q25 0 125.5 -0.5t206.5 -0.5q85 0 200.5 0.5t134.5 0.5v-113z" />
    <glyph glyph-name="O_umlaut.hungarian" unicode="&#x150;" horiz-adv-x="1548" 
d="M1419 669q0 -162 -55.5 -297.5t-144.5 -223.5q-99 -98 -210 -142.5t-238 -44.5q-124 0 -234 42.5t-198 126.5q-97 91 -156.5 229.5t-59.5 311.5q0 154 47 280.5t141 227.5q87 94 207 145.5t253 51.5q135 0 250 -48.5t199 -134.5q98 -100 148.5 -235.5t50.5 -288.5z
M1248 653q0 130 -43.5 255.5t-132.5 210.5q-60 58 -134.5 90t-166.5 32q-90 0 -167.5 -32.5t-140.5 -95.5q-80 -80 -124.5 -198t-44.5 -246q0 -144 45.5 -258t128.5 -193q57 -55 135 -88.5t167 -33.5t166.5 32.5t140.5 93.5q75 72 123 183.5t48 247.5zM922 1707l-334 -269
l-72 66l317 284zM1251 1704l-334 -269l-71 66l317 284z" />
    <glyph glyph-name="R_acute" unicode="&#x154;" horiz-adv-x="1298" 
d="M1266 80l-125 -103q-22 23 -156 173.5l-413 469.5l1 9q38 10 101 43.5t106 72.5q37 34 64.5 84t27.5 134q0 77 -40.5 132.5t-111.5 81.5q-58 22 -122 26.5t-118 4.5q-36 0 -55 -0.5t-28 -0.5q-2 -190 -2.5 -335t-0.5 -205q0 -137 1.5 -372t2.5 -295h-165q1 60 3 232.5
t2 429.5v185t-5 492q10 0 100 2t166 2q87 0 169 -10t160 -43q99 -42 157 -123.5t58 -191.5q0 -142 -87.5 -236.5t-165.5 -140.5v-5q137 -160 300.5 -330zM956 1621l-480 -185l-50 99l473 206z" />
    <glyph glyph-name="R_cedilla" unicode="&#x156;" horiz-adv-x="1298" 
d="M1266 80l-125 -103q-22 23 -156 173.5l-413 469.5l1 9q38 10 101 43.5t106 72.5q37 34 64.5 84t27.5 134q0 77 -40.5 132.5t-111.5 81.5q-58 22 -122 26.5t-118 4.5q-36 0 -55 -0.5t-28 -0.5q-2 -190 -2.5 -335t-0.5 -205q0 -137 1.5 -372t2.5 -295q0 -122 -35 -201
t-110 -120q-33 -18 -92.5 -40t-148.5 -22h-6.5h-5.5l-17 115q103 4 155 23t74 41q31 31 45.5 67.5t14.5 136.5h-39q1 60 3 232.5t2 429.5v185t-5 492q10 0 100 2t166 2q87 0 169 -10t160 -43q99 -42 157 -123.5t58 -191.5q0 -142 -87.5 -236.5t-165.5 -140.5v-5
q137 -160 300.5 -330z" />
    <glyph glyph-name="R_caron" unicode="&#x158;" horiz-adv-x="1298" 
d="M1266 80l-125 -103q-22 23 -156 173.5l-413 469.5l1 9q38 10 101 43.5t106 72.5q37 34 64.5 84t27.5 134q0 77 -40.5 132.5t-111.5 81.5q-58 22 -122 26.5t-118 4.5q-36 0 -55 -0.5t-28 -0.5q-2 -190 -2.5 -335t-0.5 -205q0 -137 1.5 -372t2.5 -295h-165q1 60 3 232.5
t2 429.5v185t-5 492q10 0 100 2t166 2q87 0 169 -10t160 -43q99 -42 157 -123.5t58 -191.5q0 -142 -87.5 -236.5t-165.5 -140.5v-5q137 -160 300.5 -330zM942 1652l-258 -226l-136 -1l-257 227l91 71l234 -200h3l232 200z" />
    <glyph glyph-name="R_comma.accent" horiz-adv-x="1298" 
d="M1266 80l-125 -103q-22 23 -156 173.5l-413 469.5l1 9q38 10 101 43.5t106 72.5q37 34 64.5 84t27.5 134q0 77 -40.5 132.5t-111.5 81.5q-58 22 -122 26.5t-118 4.5q-36 0 -55 -0.5t-28 -0.5q-2 -190 -2.5 -335t-0.5 -205q0 -137 1.5 -372t2.5 -295h-165q1 60 3 232.5
t2 429.5v185t-5 492q10 0 100 2t166 2q87 0 169 -10t160 -43q99 -42 157 -123.5t58 -191.5q0 -142 -87.5 -236.5t-165.5 -140.5v-5q137 -160 300.5 -330zM899 -160l-352 -275l-75 81l338 293z" />
    <glyph glyph-name="S_acute" unicode="&#x15a;" horiz-adv-x="1032" 
d="M903 377q0 -103 -48.5 -180.5t-130.5 -125.5q-75 -44 -172 -66.5t-215 -22.5q-64 0 -132.5 4t-79.5 5l-8 144q14 -2 78 -7.5t151 -5.5q53 0 137 14t129 36q59 29 90.5 70t31.5 104q0 67 -31.5 113.5t-104.5 89.5q-47 28 -122 63t-135 72q-102 62 -145.5 135.5
t-43.5 163.5q0 92 39.5 159.5t102.5 115.5q64 48 156.5 72t205.5 24q62 0 125.5 -3.5t72.5 -4.5l14 -145q-9 1 -73 7t-158 6q-56 0 -115.5 -12.5t-104.5 -38.5q-40 -23 -68 -64t-28 -96q0 -49 29.5 -94.5t110.5 -93.5q41 -25 108.5 -57.5t132.5 -70.5q100 -59 150.5 -135.5
t50.5 -174.5zM872 1621l-480 -185l-50 99l473 206z" />
    <glyph glyph-name="S_cedilla" unicode="&#x15e;" horiz-adv-x="1032" 
d="M903 377q0 -103 -48.5 -180.5t-130.5 -125.5q-27 -15 -54 -27.5t-54 -21.5q0 -157 -35.5 -236t-111.5 -120q-33 -18 -92.5 -40t-148.5 -22h-6.5h-5.5l-17 115q103 4 155 23t74 41q30 30 44.5 71t14.5 139q-27 -4 -67 -7.5t-83 -3.5q-64 0 -132.5 4t-79.5 5l-8 144
q14 -2 78 -7.5t151 -5.5q53 0 137 14t129 36q59 29 90.5 70t31.5 104q0 67 -31.5 113.5t-104.5 89.5q-47 28 -122 63t-135 72q-102 62 -145.5 135.5t-43.5 163.5q0 92 39.5 159.5t102.5 115.5q64 48 156.5 72t205.5 24q62 0 125.5 -3.5t72.5 -4.5l14 -145q-9 1 -73 7t-158 6
q-56 0 -115.5 -12.5t-104.5 -38.5q-40 -23 -68 -64t-28 -96q0 -49 29.5 -94.5t110.5 -93.5q41 -25 108.5 -57.5t132.5 -70.5q100 -59 150.5 -135.5t50.5 -174.5z" />
    <glyph glyph-name="S_comma.accent" unicode="&#x218;" horiz-adv-x="1032" 
d="M903 377q0 -103 -48.5 -180.5t-130.5 -125.5q-75 -44 -172 -66.5t-215 -22.5q-64 0 -132.5 4t-79.5 5l-8 144q14 -2 78 -7.5t151 -5.5q53 0 137 14t129 36q59 29 90.5 70t31.5 104q0 67 -31.5 113.5t-104.5 89.5q-47 28 -122 63t-135 72q-102 62 -145.5 135.5
t-43.5 163.5q0 92 39.5 159.5t102.5 115.5q64 48 156.5 72t205.5 24q62 0 125.5 -3.5t72.5 -4.5l14 -145q-9 1 -73 7t-158 6q-56 0 -115.5 -12.5t-104.5 -38.5q-40 -23 -68 -64t-28 -96q0 -49 29.5 -94.5t110.5 -93.5q41 -25 108.5 -57.5t132.5 -70.5q100 -59 150.5 -135.5
t50.5 -174.5zM647 -160l-352 -275l-75 81l338 293z" />
    <glyph glyph-name="S_caron" unicode="&#x160;" horiz-adv-x="1032" 
d="M903 377q0 -103 -48.5 -180.5t-130.5 -125.5q-75 -44 -172 -66.5t-215 -22.5q-64 0 -132.5 4t-79.5 5l-8 144q14 -2 78 -7.5t151 -5.5q53 0 137 14t129 36q59 29 90.5 70t31.5 104q0 67 -31.5 113.5t-104.5 89.5q-47 28 -122 63t-135 72q-102 62 -145.5 135.5
t-43.5 163.5q0 92 39.5 159.5t102.5 115.5q64 48 156.5 72t205.5 24q62 0 125.5 -3.5t72.5 -4.5l14 -145q-9 1 -73 7t-158 6q-56 0 -115.5 -12.5t-104.5 -38.5q-40 -23 -68 -64t-28 -96q0 -49 29.5 -94.5t110.5 -93.5q41 -25 108.5 -57.5t132.5 -70.5q100 -59 150.5 -135.5
t50.5 -174.5zM917 1652l-258 -226l-136 -1l-257 227l91 71l234 -200h3l232 200z" />
    <glyph glyph-name="T_cedilla" unicode="&#x162;" horiz-adv-x="1167" 
d="M1157 1197q-16 0 -134 1t-357 1l-3 -311t-1 -289q0 -176 1.5 -357.5t2.5 -241.5q0 -122 -34.5 -201t-110.5 -120q-33 -18 -92.5 -40t-148.5 -22h-6.5h-5.5l-17 115q103 4 155 23t74 41q31 31 45.5 67.5t14.5 136.5h-39q2 60 3.5 245t1.5 362v276.5t-3 315.5
q-213 1 -345.5 -0.5t-145.5 -1.5v139q103 0 250.5 -1t314.5 -1q242 0 404.5 1t175.5 1v-139z" />
    <glyph glyph-name="T_cedilla" unicode="&#x21a;" horiz-adv-x="1167" 
d="M1157 1197q-16 0 -134 1t-357 1l-3 -311t-1 -289q0 -176 1.5 -357.5t2.5 -241.5q0 -122 -34.5 -201t-110.5 -120q-33 -18 -92.5 -40t-148.5 -22h-6.5h-5.5l-17 115q103 4 155 23t74 41q31 31 45.5 67.5t14.5 136.5h-39q2 60 3.5 245t1.5 362v276.5t-3 315.5
q-213 1 -345.5 -0.5t-145.5 -1.5v139q103 0 250.5 -1t314.5 -1q242 0 404.5 1t175.5 1v-139z" />
    <glyph glyph-name="T_comma.accent" horiz-adv-x="1167" 
d="M1157 1197q-16 0 -134 1t-357 1l-3 -311t-1 -289q0 -176 1.5 -357.5t2.5 -241.5h-165q2 60 3.5 245t1.5 362v276.5t-3 315.5q-213 1 -345.5 -0.5t-145.5 -1.5v139q103 0 250.5 -1t314.5 -1q242 0 404.5 1t175.5 1v-139zM727 -160l-352 -275l-75 81l338 293z" />
    <glyph glyph-name="T_caron" unicode="&#x164;" horiz-adv-x="1167" 
d="M1157 1197q-16 0 -134 1t-357 1l-3 -311t-1 -289q0 -176 1.5 -357.5t2.5 -241.5h-165q2 60 3.5 245t1.5 362v276.5t-3 315.5q-213 1 -345.5 -0.5t-145.5 -1.5v139q103 0 250.5 -1t314.5 -1q242 0 404.5 1t175.5 1v-139zM910 1652l-258 -226l-136 -1l-257 227l91 71
l234 -200h3l232 200z" />
    <glyph glyph-name="U_ring" unicode="&#x16e;" horiz-adv-x="1547" 
d="M1324 1339q0 -192 -2 -317.5t-2 -218.5q0 -114 0.5 -194.5t0.5 -139.5q0 -116 -34.5 -204.5t-104.5 -154.5t-172 -103.5t-236 -37.5t-236 37t-173 104q-70 66 -104.5 154.5t-34.5 204.5q0 59 0.5 139.5t0.5 194.5q0 93 -2 218.5t-2 317.5h165q-1 -25 -2.5 -170.5
t-1.5 -382.5q0 -72 0.5 -149t0.5 -158q0 -183 105 -277.5t284 -94.5q194 0 291 90t97 282q0 81 0.5 158t0.5 149q0 237 -2 388t-2 165h165zM985 1547q0 -88 -62 -148.5t-151 -60.5q-87 0 -148 59.5t-61 149.5t62.5 149.5t148.5 59.5t148.5 -60.5t62.5 -148.5zM888 1548
q0 50 -32 83t-81 33t-82 -32.5t-33 -83.5q0 -50 33 -84t82 -34t81 34t32 84z" />
    <glyph glyph-name="U_macron" unicode="&#x16a;" horiz-adv-x="1547" 
d="M1324 1339q0 -192 -2 -317.5t-2 -218.5q0 -114 0.5 -194.5t0.5 -139.5q0 -116 -34.5 -204.5t-104.5 -154.5t-172 -103.5t-236 -37.5t-236 37t-173 104q-70 66 -104.5 154.5t-34.5 204.5q0 59 0.5 139.5t0.5 194.5q0 93 -2 218.5t-2 317.5h165q-1 -25 -2.5 -170.5
t-1.5 -382.5q0 -72 0.5 -149t0.5 -158q0 -183 105 -277.5t284 -94.5q194 0 291 90t97 282q0 81 0.5 158t0.5 149q0 237 -2 388t-2 165h165zM1101 1496q-21 0 -146.5 0.5t-183.5 0.5q-85 0 -198.5 -0.5t-138.5 -0.5v113q25 0 125.5 -0.5t206.5 -0.5q85 0 200.5 0.5t134.5 0.5
v-113z" />
    <glyph glyph-name="U_ogonek" unicode="&#x172;" horiz-adv-x="1547" 
d="M693 -27q-116 11 -193.5 47.5t-134.5 89.5q-69 64 -104 153.5t-35 205.5q0 58 0.5 139t0.5 195q0 91 -2 217.5t-2 318.5h165q0 -25 -2 -171.5t-2 -381.5q0 -72 0.5 -150t0.5 -157q0 -183 105.5 -277.5t283.5 -94.5q194 0 291 90t97 282q0 79 0.5 157t0.5 150
q0 235 -2 387t-2 166h165q0 -192 -2 -318.5t-2 -217.5q0 -114 0.5 -195t0.5 -139q0 -116 -34.5 -205.5t-104.5 -153.5q-66 -63 -162 -99t-204 -40q-1 -10 -1 -20v-17q0 -46 16 -78t32 -44q29 -23 76 -37t99 -14l-32 -116q-69 0 -126.5 19.5t-89.5 40.5q-55 37 -77.5 90.5
t-22.5 117.5q0 19 0.5 32t2.5 28z" />
    <glyph glyph-name="U_umlaut.hungarian" unicode="&#x170;" horiz-adv-x="1547" 
d="M1324 1339q0 -192 -2 -317.5t-2 -218.5q0 -114 0.5 -194.5t0.5 -139.5q0 -116 -34.5 -204.5t-104.5 -154.5t-172 -103.5t-236 -37.5t-236 37t-173 104q-70 66 -104.5 154.5t-34.5 204.5q0 59 0.5 139.5t0.5 194.5q0 93 -2 218.5t-2 317.5h165q-1 -25 -2.5 -170.5
t-1.5 -382.5q0 -72 0.5 -149t0.5 -158q0 -183 105 -277.5t284 -94.5q194 0 291 90t97 282q0 81 0.5 158t0.5 149q0 237 -2 388t-2 165h165zM924 1707l-334 -269l-72 66l317 284zM1253 1704l-334 -269l-71 66l317 284z" />
    <glyph glyph-name="Y_acute" unicode="&#xdd;" horiz-adv-x="1186" 
d="M1176 1274l-198 -249l-306 -386q-2 -181 0.5 -380t3.5 -259h-165q2 60 4 262.5t1 364.5l-302 389.5l-194 245.5l132 100l157 -210l290 -383h2l295.5 381.5t162.5 211.5zM986 1621l-480 -185l-50 99l473 206z" />
    <glyph glyph-name="Z_acute" unicode="&#x179;" horiz-adv-x="1223" 
d="M1174 2q-173 1 -298 1.5t-227 0.5q-225 0 -377.5 -1t-169.5 -1l-45 104l384.5 478.5l476.5 612.5l-1 2q-94 1 -168 1h-124q-191 0 -337.5 -1.5t-166.5 -1.5v139q80 0 196 -1t253 -1q210 0 359 1t167 1l49 -104l-300.5 -375.5l-558.5 -706.5l1 -2q63 -1 150 -2t196 -1
q215 0 373 2.5t168 2.5v-148zM946 1621l-480 -185l-50 99l473 206z" />
    <glyph glyph-name="Z_dot.accent" unicode="&#x17b;" horiz-adv-x="1223" 
d="M1174 2q-173 1 -298 1.5t-227 0.5q-225 0 -377.5 -1t-169.5 -1l-45 104l384.5 478.5l476.5 612.5l-1 2q-94 1 -168 1h-124q-191 0 -337.5 -1.5t-166.5 -1.5v139q80 0 196 -1t253 -1q210 0 359 1t167 1l49 -104l-300.5 -375.5l-558.5 -706.5l1 -2q63 -1 150 -2t196 -1
q215 0 373 2.5t168 2.5v-148zM719 1471h-195v183h195v-183z" />
    <glyph glyph-name="Z_caron" unicode="&#x17d;" horiz-adv-x="1223" 
d="M1174 2q-173 1 -298 1.5t-227 0.5q-225 0 -377.5 -1t-169.5 -1l-45 104l384.5 478.5l476.5 612.5l-1 2q-94 1 -168 1h-124q-191 0 -337.5 -1.5t-166.5 -1.5v139q80 0 196 -1t253 -1q210 0 359 1t167 1l49 -104l-300.5 -375.5l-558.5 -706.5l1 -2q63 -1 150 -2t196 -1
q215 0 373 2.5t168 2.5v-148zM947 1652l-258 -226l-136 -1l-257 227l91 71l234 -200h3l232 200z" />
    <glyph glyph-name="Thorn" unicode="&#xde;" horiz-adv-x="1157" 
d="M1071 681q0 -118 -56.5 -210.5t-140.5 -146.5q-76 -52 -187.5 -76.5t-290.5 -24.5l2 -224h-165q0 14 2.5 199t2.5 527q0 184 -2.5 387.5t-2.5 227.5h165l-2 -200q149 0 272.5 -19t215.5 -78q91 -57 139 -148.5t48 -213.5zM900 681q0 103 -47 175.5t-144 114.5
q-60 26 -130 32.5t-144 6.5h-18h-19q0 -17 -2 -153t-2 -217q0 -74 0.5 -172.5t0.5 -117.5h21h19q67 0 142.5 9t129.5 33q100 44 146.5 115.5t46.5 173.5z" />
    <glyph glyph-name="grave.capheight" horiz-adv-x="800" 
d="M620 1535l-50 -99l-480 185l57 120z" />
    <glyph glyph-name="acute.capheight" horiz-adv-x="800" 
d="M710 1621l-480 -185l-50 99l473 206z" />
    <glyph glyph-name="dieresis.capheight" horiz-adv-x="800" 
d="M726 1461h-191v183h191v-183zM264 1461h-191v183h191v-183z" />
    <glyph glyph-name="circumflex.capheight" horiz-adv-x="800" 
d="M726 1486l-90 -72l-235 212h-2l-234 -200l-91 71l257 226h137z" />
    <glyph glyph-name="tilde.capheight" horiz-adv-x="800" 
d="M756 1675q-16 -85 -76 -157.5t-163 -72.5q-36 0 -68.5 13.5t-46.5 23.5q-19 14 -38.5 30.5t-39.5 31.5q-14 10 -30.5 15.5t-37.5 5.5q-39 0 -66.5 -39t-43.5 -102l-106 20q14 81 76 155.5t161 74.5q37 0 67.5 -11.5t49.5 -25.5q21 -15 42 -33t36 -29q14 -10 29 -15.5
t38 -5.5q39 0 67.5 38t43.5 103z" />
    <glyph glyph-name="macron.capheight" horiz-adv-x="800" 
d="M733 1506q-21 0 -146.5 0.5t-183.5 0.5q-85 0 -198.5 -0.5t-138.5 -0.5v113q25 0 125.5 -0.5t206.5 -0.5q85 0 200.5 0.5t134.5 0.5v-113z" />
    <glyph glyph-name="breve.capheight" horiz-adv-x="800" 
d="M717 1686q-7 -23 -28.5 -71t-55.5 -86q-40 -45 -93 -75t-140 -30q-82 0 -139.5 31.5t-94.5 74.5q-38 45 -56.5 88.5t-26.5 68.5l108 36q8 -23 25 -59t41 -65q28 -35 58.5 -55.5t84.5 -20.5q48 0 84.5 23.5t58.5 51.5q23 29 40 63.5t26 60.5z" />
    <glyph glyph-name="dot.accent.capheight" horiz-adv-x="800" 
d="M497 1471h-195v183h195v-183z" />
    <glyph glyph-name="ring.capheight" horiz-adv-x="800" 
d="M613 1597q0 -88 -62 -148.5t-151 -60.5q-87 0 -148 59.5t-61 149.5t62.5 149.5t148.5 59.5t148.5 -60.5t62.5 -148.5zM516 1598q0 50 -32 83t-81 33t-82 -32.5t-33 -83.5q0 -50 33 -84t82 -34t81 34t32 84z" />
    <glyph glyph-name="umlaut.hungarian.capheight" horiz-adv-x="800" 
d="M536 1707l-334 -269l-72 66l317 284zM865 1704l-334 -269l-71 66l317 284z" />
    <glyph glyph-name="caron.capheight" horiz-adv-x="800" 
d="M725 1652l-258 -226l-136 -1l-257 227l91 71l234 -200h3l232 200z" />
    <glyph glyph-name="percent" horiz-adv-x="2048" 
d="M793 947q0 -70 -23 -172t-73 -158q-51 -56 -110 -79.5t-138 -23.5q-83 0 -141.5 25.5t-105.5 77.5q-54 63 -74.5 159.5t-20.5 169.5q0 81 20 172.5t76 156.5q46 54 105.5 78t140.5 24q82 0 141.5 -24.5t105.5 -77.5q53 -59 75 -157t22 -171zM656 946q0 46 -13 117.5
t-40 119.5q-25 44 -59 66.5t-95 22.5q-59 0 -94.5 -23t-60.5 -66q-30 -52 -41.5 -117t-11.5 -119q0 -51 12 -119.5t41 -121.5q24 -42 58 -64.5t97 -22.5q58 0 95 24t59 63q27 49 40 115t13 125zM1502 1319l-238 -358.5l-228 -349.5l-286 -446.5l-130 -206.5l-97 71
q15 21 132 199l288 442l226.5 350.5l235.5 368.5zM1925 415q0 -70 -23 -172t-73 -158q-51 -56 -110 -79.5t-138 -23.5q-83 0 -141.5 25.5t-105.5 77.5q-54 63 -74.5 159.5t-20.5 169.5q0 81 20 172.5t76 156.5q46 54 105.5 78t140.5 24q82 0 141.5 -24.5t105.5 -77.5
q53 -59 75 -157t22 -171zM1788 414q0 46 -13 117.5t-40 119.5q-25 44 -59 66.5t-95 22.5q-59 0 -94.5 -23t-60.5 -66q-30 -52 -41.5 -117t-11.5 -119q0 -51 12 -119.5t41 -121.5q24 -42 58 -64.5t97 -22.5q58 0 95 24t59 63q27 49 40 115t13 125z" />
    <glyph glyph-name="perthousand" horiz-adv-x="2862" 
d="M793 947q0 -70 -23 -172t-73 -158q-51 -56 -110 -79.5t-138 -23.5q-83 0 -141.5 25.5t-105.5 77.5q-54 63 -74.5 159.5t-20.5 169.5q0 81 20 172.5t76 156.5q46 54 105.5 78t140.5 24q82 0 141.5 -24.5t105.5 -77.5q53 -59 75 -157t22 -171zM656 946q0 46 -13 117.5
t-40 119.5q-25 44 -59 66.5t-95 22.5q-59 0 -94.5 -23t-60.5 -66q-30 -52 -41.5 -117t-11.5 -119q0 -51 12 -119.5t41 -121.5q24 -42 58 -64.5t97 -22.5q58 0 95 24t59 63q27 49 40 115t13 125zM1915 415q0 -70 -23 -172t-73 -158q-51 -56 -110 -79.5t-138 -23.5
q-83 0 -141.5 25.5t-105.5 77.5q-54 63 -74.5 159.5t-20.5 169.5q0 81 20 172.5t76 156.5q46 54 105.5 78t140.5 24q82 0 141.5 -24.5t105.5 -77.5q53 -59 75 -157t22 -171zM1778 414q0 46 -13 117.5t-40 119.5q-25 44 -59 66.5t-95 22.5q-59 0 -94.5 -23t-60.5 -66
q-30 -52 -41.5 -117t-11.5 -119q0 -51 12 -119.5t41 -121.5q24 -42 58 -64.5t97 -22.5q58 0 95 24t59 63q27 49 40 115t13 125zM2752 415q0 -70 -23 -172t-73 -158q-51 -56 -110 -79.5t-138 -23.5q-83 0 -141.5 25.5t-105.5 77.5q-54 63 -74.5 159.5t-20.5 169.5
q0 81 20 172.5t76 156.5q46 54 105.5 78t140.5 24q82 0 141.5 -24.5t105.5 -77.5q53 -59 75 -157t22 -171zM2615 414q0 46 -13 117.5t-40 119.5q-25 44 -59 66.5t-95 22.5q-59 0 -94.5 -23t-60.5 -66q-30 -52 -41.5 -117t-11.5 -119q0 -51 12 -119.5t41 -121.5
q24 -42 58 -64.5t97 -22.5q58 0 95 24t59 63q27 49 40 115t13 125zM1497 1319l-238 -358.5l-228 -349.5l-286 -446.5l-130 -206.5l-97 71q15 21 132 199l288 442l226.5 350.5l235.5 368.5z" />
    <glyph glyph-name="dollar" horiz-adv-x="1200" 
d="M1013 402q0 -101 -49 -181t-130 -130q-73 -46 -184.5 -71.5t-222.5 -30.5q-20 0 -34 -1t-34 -1l4 -352h-125l2.5 121.5t1.5 108.5q-1 88 -2 154.5t-1 104.5h25h70q137 0 228 14.5t159 49.5q70 38 96.5 80t26.5 95q0 60 -30 105.5t-106 82.5q-46 23 -142.5 59t-154.5 68
q-95 52 -142 119.5t-47 163.5q0 91 40 159.5t102 115.5q64 50 168 77t214 33q25 2 32.5 2t27.5 1l-4 269h125q-1 -48 -2 -91t-1 -83q0 -79 1 -149.5t1 -83.5h-31.5h-75.5q-106 0 -195 -16t-136 -47q-39 -24 -68 -63.5t-29 -95.5q0 -58 35 -99t105 -77q47 -25 127 -54.5
t154 -65.5q98 -48 149.5 -120t51.5 -171z" />
    <glyph glyph-name="cent" horiz-adv-x="1200" 
d="M955 452q0 -8 -1.5 -109.5t-1.5 -161.5q0 -56 0.5 -102.5t1.5 -78.5h-125l3 324q-150 11 -278.5 51.5t-216.5 125.5q-54 53 -91 134t-37 175q0 112 47 200t130 151q77 59 192 93t234 42l-3 320h125q-2 -66 -2 -119v-92q0 -89 1.5 -158.5t1.5 -76.5q-114 0 -212 -17
t-165 -49q-80 -37 -133 -115t-53 -174q0 -99 45 -170.5t119 -114.5q80 -46 189 -62t230 -16z" />
    <glyph glyph-name="colonsign" unicode="&#x20a1;" horiz-adv-x="1200" 
d="M125 674q0 127 46.5 228.5t120.5 177.5q108 112 315 186.5t507 53.5l10 -135q-186 7 -328 -14t-273 -94q-111 -62 -176.5 -169.5t-65.5 -236.5q0 -170 84.5 -280t234.5 -173q106 -44 215 -59t188 -15q34 0 66.5 0.5t46.5 1.5l-4.5 -43.5t-8.5 -90.5q-10 0 -44.5 -0.5
t-57.5 -0.5q-125 0 -226.5 16.5t-221.5 55.5q-181 59 -304.5 214t-123.5 377zM485 -237l-90 17l52 290l112 635l101 582.5t52 307.5l91 -15l-58 -314.5l-106 -575.5l-154 -927v0zM773 -237l-90 17l51.5 290l111.5 635l100 581t52 309l91 -15l-59 -314t-103 -576l-154 -927v0
z" />
    <glyph glyph-name="cruzeiro" unicode="&#x20a2;" horiz-adv-x="1200" 
d="M811 143q72 -14 126 -19.5t126 -5.5h19t28 1q-2 -13 -6 -50.5t-8 -86.5h-17.5h-17.5q-244 0 -434 61.5t-312 178.5q-85 81 -134.5 194t-49.5 258q0 130 49 237.5t128 187.5q115 116 309 184t415 68h24h21q0 -10 3 -51.5t8 -89.5h-17h-17q-125 0 -260.5 -28t-233.5 -84
q-125 -71 -193.5 -184t-68.5 -243q0 -135 61 -246.5t193 -186.5q26 -15 58.5 -30.5t60.5 -25.5l2 1q0 17 0.5 60.5t0.5 163.5q0 78 -1 173t-3 219h141v-131q140 80 216 112.5l88 37.5l25 -126q-14 -5 -87 -33t-242 -110q0 -9 -1 -42.5t-1 -100.5q0 -69 1 -141.5t1 -121.5z
" />
    <glyph glyph-name="florin" horiz-adv-x="1200" 
d="M1152 1228q-14 0 -39 -1t-39 -1q-91 -4 -148.5 -26t-103.5 -62q-40 -35 -66 -92t-43 -135q-12 -57 -23.5 -123.5t-14.5 -80.5l336 1v-117l-357 1q-2 -13 -27.5 -168.5t-56.5 -302.5q-18 -86 -55 -169.5t-105 -144.5q-85 -75 -176 -103t-184 -34q-10 0 -28.5 -1t-35.5 -1
l-15 129q14 0 38.5 0.5t39.5 1.5q90 5 149 25t106 63q45 42 71.5 100t44.5 146q32 152 55.5 299l25.5 160l-230 -1v117l251 -1l13.5 70.5l24.5 125.5q20 96 53.5 173t102.5 143q59 55 147.5 92.5t210.5 44.5q12 0 31 1t33 1z" />
    <glyph glyph-name="franc" unicode="&#x20a3;" horiz-adv-x="1200" 
d="M460 302q0 -95 1.5 -178t1.5 -124h-161q0 13 1.5 87t1.5 214q-64 0 -144 -1t-86 -1v106q6 0 75 -1t156 -1q0 41 0.5 103t0.5 149q0 113 -1 298t-4 383q73 0 177.5 -1t221.5 -1q180 0 270 1t99 1v-139q-7 0 -99.5 1.5t-261.5 1.5q-75 0 -138.5 -0.5t-107.5 -0.5
q0 -114 -2 -205t-2 -192q7 0 85.5 -0.5t124.5 -0.5q178 0 278.5 1.5t112.5 1.5v-138q-10 0 -109.5 1.5t-291.5 1.5q-46 0 -118.5 -0.5t-81.5 -0.5q0 -71 0.5 -142t0.5 -123q104 0 251 1t155 1v-106q-6 0 -130 1.5t-276 1.5z" />
    <glyph glyph-name="peseta" unicode="&#x20a7;" horiz-adv-x="1200" 
d="M862 834q-78 1 -135.5 1h-92.5q-55 0 -120.5 -0.5t-112.5 -0.5q0 -74 0.5 -170t0.5 -114q85 0 148.5 7.5t124.5 34.5q84 36 131 96t56 146zM401 937q45 0 107.5 -0.5t128.5 -0.5h95.5t128.5 1q-12 82 -57 140.5t-128 93.5q-67 29 -133 34t-138 5q0 -16 -1 -80zM248 938
q-1 95 -1.5 189t-2.5 212q43 1 82.5 1h65.5q158 0 265.5 -23t189.5 -75q78 -49 125.5 -126.5t56.5 -177.5q68 1 90 1h32v-106h-44t-78 1q-12 -103 -66 -182t-127 -126q-82 -50 -191.5 -75.5t-241.5 -25.5l2 -425h-161q0 14 2.5 199.5t2.5 525.5v54.5v54.5q-55 0 -110 -0.5
t-71 -0.5v106q14 0 59 -0.5t121 -0.5z" />
    <glyph glyph-name="sterling" horiz-adv-x="1200" 
d="M1117 2q-15 0 -168.5 1.5t-281.5 1.5q-106 0 -241 -1.5t-258 -1.5v134h134l64 463l-194 -1v120l211 -1q1 12 12 74l22 126q16 86 50 162t95 136q58 56 147 94t212 45q15 1 38 1.5t38 1.5l20 -132q-14 0 -45.5 -2t-45.5 -2q-87 -5 -146.5 -27t-104.5 -63
q-41 -37 -66.5 -93t-41.5 -133q-9 -41 -20.5 -108.5t-12.5 -79.5l350 1v-120l-367 1l-64 -464h106h71q177 0 325 1.5t162 1.5v-136z" />
    <glyph glyph-name="rupiah" unicode="&#x20a8;" horiz-adv-x="1910" 
d="M1667 453q0 83 -35 139t-92 93q-53 34 -123 46t-139 12q-1 -30 -2 -101t-1 -281q0 -45 0.5 -116.5t0.5 -127.5q68 1 125 12.5t106 37.5q79 42 119.5 111.5t40.5 174.5zM1138 5q-13 10 -213.5 189.5l-426.5 381.5l3 35q53 16 106.5 49t103.5 79q36 32 63.5 88.5
t27.5 135.5q0 77 -39.5 135.5t-112.5 85.5q-58 22 -122 26.5t-118 4.5h-13.5h-9.5q-2 -190 -2.5 -339t-0.5 -209q0 -158 2 -402.5t2 -264.5h-161q0 30 2.5 184t2.5 478v185.5t-5 492.5l56.5 1.5t138.5 1.5q87 0 170 -9.5t161 -42.5q99 -42 156.5 -124t57.5 -192
q0 -127 -79.5 -233.5t-182.5 -163.5v-5l221.5 -200l206.5 -180l5 2q0 148 -1 304.5t-2 366.5h35h33q166 0 261.5 -19t171.5 -66q80 -49 129 -134t49 -193q0 -133 -58 -225.5t-152 -145.5q-82 -45 -169.5 -64t-158.5 -19l4 -362h-145q0 16 1.5 109.5t1.5 257.5z" />
    <glyph glyph-name="yen" horiz-adv-x="1200" 
d="M1153 1278q-6 -7 -140.5 -181l-340.5 -449v-118l370 2v-106l-370 2q0 -110 2 -262t2 -166h-152q0 12 2 164t2 264l-370 -2v106l370 -2v108l-316.5 423.5t-158.5 205.5l124 95q8 -10 140.5 -198.5l286.5 -398.5h2l277 379t158 218z" />
    <glyph glyph-name="numbersign" horiz-adv-x="1800" 
d="M1494 711h-314l-44 -133l-45 -133h280v-114h-315l-82 -251.5t-35 -109.5l-95 39q4 11 35 105l72 217h-261l-82 -252.5t-35 -108.5l-95 39q3 8 35 104l72 218h-277v114h313q25 77 44.5 130.5t44.5 135.5h-278v114h314l78.5 239l35.5 109l95 -35q-3 -10 -34.5 -103
l-70.5 -210h262l78 236l36 112l95 -35q-3 -10 -34.5 -103l-70.5 -210h278v-114zM1076 711h-262l-44 -133l-45 -133h262q25 77 44.5 130.5t44.5 135.5z" />
    <glyph glyph-name="hyphen" horiz-adv-x="728" 
d="M651 626l-102 0.5t-186 0.5t-184.5 -0.5l-100.5 -0.5v136l100.5 -0.5t184.5 -0.5t186 0.5l102 0.5v-136z" />
    <glyph glyph-name="zero" horiz-adv-x="1200" 
d="M1090 669q0 -144 -34.5 -298t-104.5 -243q-69 -86 -149 -126.5t-202 -40.5q-118 0 -201 41t-150 126q-57 73 -98 217t-41 322q0 160 38.5 311t100.5 231q65 84 149 125.5t202 41.5q116 0 200 -41t151 -126q64 -81 101.5 -230t37.5 -310zM923 667q0 122 -20 233t-56 186
q-37 75 -96 116.5t-151 41.5q-91 0 -150.5 -42t-96.5 -116q-45 -90 -60.5 -207.5t-15.5 -209.5q0 -86 16.5 -207.5t59.5 -210.5q37 -76 95 -117t152 -41q88 0 149.5 41.5t97.5 116.5q44 91 60 205t16 211z" />
    <glyph glyph-name="one" horiz-adv-x="1200" 
d="M771 0h-165q0 17 2.5 182t2.5 464v219t-2 335l-3 1q-29 -17 -134.5 -90.5l-225.5 -151.5l-64 96l285.5 202l174.5 125l128 -86q-2 -154 -3 -356.5t-1 -242.5q0 -110 2.5 -396t2.5 -301z" />
    <glyph glyph-name="two" horiz-adv-x="1200" 
d="M1133 2q-13 0 -189 0.5t-285 0.5q-127 0 -314 -0.5t-204 -0.5l-38 118q103 49 238.5 144t219.5 174q120 117 170 209.5t50 194.5q0 108 -41.5 176t-111.5 112q-73 46 -169.5 66t-212.5 20h-44.5h-33.5l14 140q15 0 36.5 0.5t53.5 0.5q142 0 259.5 -27.5t205.5 -80.5
q112 -67 164.5 -164.5t52.5 -228.5q0 -116 -56.5 -227.5t-163.5 -211.5q-106 -98 -207 -169.5t-177 -115.5l2 -5q55 5 142 6.5t168 2.5q122 2 288 3.5t183 1.5v-139z" />
    <glyph glyph-name="three" horiz-adv-x="1200" 
d="M1036 408q0 -102 -57 -189t-169 -145q-94 -48 -241 -71.5t-306 -23.5q-25 0 -52.5 1t-43.5 1l-26 136q15 0 53 -1t62 -1q110 1 225 14t182 38q99 36 151 92t52 140q0 68 -47.5 116.5t-121.5 74.5q-52 18 -114 22.5t-120 4.5q-34 0 -57 -1.5t-46 -2.5l-22 122q30 4 96 12
t121 25q108 34 163 85.5t55 128.5q0 75 -40 117t-121 74q-48 18 -139 29t-168 11h-54.5h-37.5l24 141h23.5h28.5q116 0 228 -11.5t215 -55.5q88 -37 149.5 -105t61.5 -168q0 -106 -69 -184t-196 -120v-9q164 -16 261 -92.5t97 -204.5z" />
    <glyph glyph-name="four" horiz-adv-x="1200" 
d="M1187 491q-121 2 -203.5 2.5t-146.5 0.5q-2 -195 0 -336.5t2 -157.5h-158q0 16 1.5 166t3.5 328l-571 -3l-71 130l438.5 495.5t230.5 263.5l128 -74q-4 -172 -4 -415.5v-271.5q20 0 135 1t215 3v-132zM688 1178l-2 1l-482 -558l1 -2q18 0 74.5 -0.5t157.5 -0.5h105t144 1
v264.5t2 294.5z" />
    <glyph glyph-name="five" horiz-adv-x="1200" 
d="M1047 1197q-18 0 -236 2t-401 2v-408q111 -3 222.5 -20t182.5 -49q104 -47 153.5 -121.5t49.5 -175.5q0 -107 -60 -195t-172 -148q-84 -43 -212 -69.5t-273 -31.5q-23 -1 -56.5 -2t-46.5 -1l-18 137q15 0 37.5 1t47.5 2q120 5 242.5 24t188.5 53q74 38 111 88.5t37 131.5
q0 72 -43 123.5t-138 83.5q-58 19 -161 28t-244 9q0 18 0.5 157t0.5 189q0 74 -0.5 193t-0.5 136q13 0 152.5 -0.5t261.5 -0.5q96 0 228.5 0.5t146.5 0.5v-139z" />
    <glyph glyph-name="six" horiz-adv-x="1200" 
d="M1099 435q0 -100 -39.5 -188.5t-103.5 -148.5q-69 -66 -156.5 -101.5t-193.5 -35.5q-104 0 -197.5 32.5t-168.5 103.5q-59 56 -95 138.5t-36 188.5q0 113 49 227.5t174 267.5q102 121 221 248l201 218l109 -97l-153 -160l-193 -202v-2q65 -12 151.5 -33t175.5 -70
q122 -67 188.5 -163.5t66.5 -222.5zM931 425q0 88 -52 168t-172 139q-59 30 -146 49t-129 22q-76 -80 -115.5 -175t-39.5 -200q0 -78 28 -143.5t71 -106.5q46 -43 105 -64t125 -21q70 0 131 23t101 65q47 48 70 110.5t23 133.5z" />
    <glyph glyph-name="seven" horiz-adv-x="1200" 
d="M1102 1224l-453 -847l-224 -423l-139 61l408.5 757.5t218.5 425.5l-1 2h-115.5h-114.5q-174 0 -359 -2t-211 -2v140q13 0 135.5 -1t305.5 -1q117 0 283 1t188 1z" />
    <glyph glyph-name="eight" horiz-adv-x="1200" 
d="M1084 357q0 -171 -141 -283.5t-341 -112.5q-204 0 -344.5 104.5t-140.5 281.5q0 93 61 181.5t195 181.5v2q-114 62 -162.5 133.5t-48.5 173.5q0 153 130 255t310 102q199 0 322.5 -98.5t123.5 -249.5q0 -89 -55 -175.5t-163 -164.5v-2q129 -62 191.5 -138.5t62.5 -190.5z
M881 997q0 109 -75 178.5t-203 69.5q-116 0 -195 -62t-79 -166q0 -66 41 -113t101 -79q44 -23 101.5 -45t135.5 -46q100 72 136.5 134.5t36.5 128.5zM917 341q0 67 -40 122t-120 98q-41 21 -116 50t-148 52q-74 -50 -141.5 -128t-67.5 -186q0 -113 97.5 -185t216.5 -72
q139 0 229 63t90 186z" />
    <glyph glyph-name="nine" horiz-adv-x="1200" 
d="M1090 916q0 -124 -45.5 -229.5t-134.5 -217.5q-82 -103 -263.5 -299l-201.5 -217l-109 96l180 187.5l168 175.5l-1 2q-103 14 -204.5 47.5t-183.5 89.5q-107 74 -151 164.5t-44 190.5q0 98 38 180.5t98 145.5q65 67 161 105.5t201 38.5q108 0 202 -32t162 -100
q58 -58 93 -139.5t35 -188.5zM922 909q0 74 -26.5 139t-70.5 110q-40 40 -103.5 63t-127.5 23q-69 0 -131 -24.5t-104 -66.5q-42 -43 -66.5 -105t-24.5 -132q0 -97 53 -174.5t156 -129.5q60 -31 143 -51.5t147 -26.5q81 91 118 180.5t37 194.5z" />
    <glyph glyph-name="zero.oldstyle" horiz-adv-x="1200" 
d="M1090 504q0 -116 -41.5 -222.5t-119.5 -181.5q-66 -63 -146.5 -96.5t-182.5 -33.5q-96 0 -180 33t-150 96q-76 73 -117.5 180.5t-41.5 226.5q0 115 35.5 212t110.5 174q67 69 156 107.5t188 38.5q104 0 188.5 -35t150.5 -104q76 -79 113 -178t37 -217zM928 497
q0 94 -30 183.5t-94 150.5q-39 37 -92 58.5t-111 21.5q-69 0 -119.5 -22t-96.5 -69q-53 -54 -82.5 -139t-29.5 -175q0 -102 30.5 -188t99.5 -148q39 -35 89.5 -54t107.5 -19q63 0 116.5 23t94.5 65q57 58 87 140t30 172z" />
    <glyph glyph-name="one.oldstyle" horiz-adv-x="1200" 
d="M776 0h-156q1 32 4 180t3 411q0 46 -0.5 133t-1.5 136l-3 1l-143 -84l-196 -119l-57 88l268.5 183.5l167.5 112.5l114 -79q-2 -145 -3 -297t-1 -179q0 -118 1.5 -286.5t2.5 -200.5z" />
    <glyph glyph-name="two.oldstyle" horiz-adv-x="1200" 
d="M1112 2q-14 0 -193 0.5t-262 0.5q-118 0 -286.5 -0.5t-177.5 -0.5l-38 113q84 41 195.5 101.5t180.5 113.5q93 71 147.5 142t54.5 165q0 73 -32.5 123.5t-91.5 80.5q-54 27 -123.5 38.5t-147.5 11.5q-27 0 -64.5 -1.5l-62.5 -2.5l14 133q17 1 53.5 2.5t74.5 1.5
q109 0 194 -15.5t158 -50.5q92 -44 143 -120.5t51 -183.5q0 -90 -41.5 -167t-101.5 -136q-63 -62 -155 -121.5t-181 -101.5l2 -6q43 4 109 7.5t129 4.5q126 2 282 3.5t170 1.5v-137z" />
    <glyph glyph-name="three.oldstyle" horiz-adv-x="1200" 
d="M986 94q0 -96 -57.5 -178.5t-173.5 -137.5q-110 -52 -215 -68t-265 -16q-25 0 -53.5 0.5t-40.5 1.5l-19 132h47h62q91 0 186 9t162 31q96 31 148.5 84t52.5 135q0 72 -53 121.5t-143 73.5q-37 10 -86.5 15t-111.5 5q-23 0 -44.5 -1t-36.5 -2l-19 123q199 15 307.5 79
t108.5 169q0 73 -37.5 119t-105.5 72q-49 19 -118 26t-132 7q-27 0 -58 -0.5t-39 -0.5l28 134h26h31q110 0 202 -10t181 -49q83 -36 135.5 -102t52.5 -164q0 -102 -72 -183.5t-177 -121.5v-4q148 -27 237.5 -98t89.5 -201z" />
    <glyph glyph-name="four.oldstyle" horiz-adv-x="1200" 
d="M1168 162q-120 2 -196.5 3t-147.5 1q-2 -195 -0.5 -321t2.5 -158h-154q0 32 1.5 167l3.5 312l-549 -4l-64 119l436 511l211 249l118 -69q-4 -171 -4.5 -419t-0.5 -264q49 0 117 1t227 3v-131zM679 830l-2 1l-447 -540l1 -2q11 0 53 -0.5t144 -0.5h105t144 1v255.5
t2 285.5z" />
    <glyph glyph-name="five.oldstyle" horiz-adv-x="1200" 
d="M1030 857q-8 0 -186 2t-408 2v-376q115 -7 206.5 -27t155.5 -49q102 -47 152 -126t50 -177t-62 -186t-170 -141q-86 -42 -192.5 -62t-247.5 -20h-42h-32l-18 133h27h28q114 0 221 14.5t172 45.5q77 36 113.5 88.5t36.5 121.5t-43.5 123.5t-140.5 87.5q-46 16 -123 26
t-179 13q-14 0 -31.5 0.5t-26.5 0.5q1 11 1 129.5v199.5q0 72 -0.5 190t-0.5 127q9 0 128.5 -0.5t233.5 -0.5q97 0 235.5 0.5t142.5 0.5v-140z" />
    <glyph glyph-name="six.oldstyle" horiz-adv-x="1200" 
d="M1081 425q0 -92 -38.5 -179.5t-98.5 -144.5q-67 -64 -148.5 -98t-183.5 -34q-98 0 -186 31t-161 100q-57 54 -91.5 132.5t-34.5 181.5q0 108 42 214t173 262q126 150 243.5 274.5l205.5 219.5l115 -93l-190.5 -195l-191.5 -197v-2q64 -9 148 -32.5t157 -63.5
q118 -65 179 -160.5t61 -215.5zM919 415q0 93 -57.5 170.5t-157.5 126.5q-59 29 -134 46.5t-118 20.5q-68 -71 -109.5 -167.5t-41.5 -193.5q0 -75 27 -138t68 -102q44 -42 97.5 -62t118.5 -20q67 0 124.5 24t93.5 61q44 45 66.5 106t22.5 128z" />
    <glyph glyph-name="seven.oldstyle" horiz-adv-x="1200" 
d="M1088 891l-440 -807.5l-211 -394.5l-128 61l398.5 730l200.5 381l-1 2h-105.5h-112.5q-184 0 -365 -3t-192 -3v140q9 0 145.5 -0.5t281.5 -0.5q111 0 277.5 0.5t182.5 0.5z" />
    <glyph glyph-name="eight.oldstyle" horiz-adv-x="1200" 
d="M1060 350q0 -166 -134 -273.5t-325 -107.5q-199 0 -330 101.5t-131 269.5q0 97 60 180t177 168v2q-92 49 -143 118t-51 179q0 149 124.5 245.5t293.5 96.5q188 0 306 -92.5t118 -241.5q0 -98 -59 -183t-141 -143v-2q106 -49 170.5 -124t64.5 -193zM863 965
q0 111 -72.5 174t-188.5 63q-112 0 -184.5 -58.5t-72.5 -158.5q0 -65 37.5 -108.5t94.5 -73.5q41 -22 103.5 -46t120.5 -42q74 51 118 113.5t44 136.5zM898 335q0 64 -36.5 116t-113.5 92q-43 22 -115 49.5t-135 47.5q-83 -53 -139.5 -129t-56.5 -169q0 -104 86.5 -175
t208.5 -71q139 0 220 62t81 177z" />
    <glyph glyph-name="nine.oldstyle" horiz-adv-x="1200" 
d="M1071 596q0 -120 -42.5 -218t-132.5 -212q-102 -129 -269.5 -305.5l-212.5 -222.5l-118 96l203.5 201.5l173.5 172.5l-1 2q-89 12 -184 43.5t-172 84.5q-82 56 -135 141.5t-53 206.5q0 98 36 175t95 138q63 65 153 102t191 37q104 0 191.5 -31t153.5 -96q55 -54 89 -130
t34 -185zM908 589q0 72 -25.5 134t-68.5 105q-39 39 -95.5 61t-119.5 22q-67 0 -123.5 -24t-97.5 -64t-64.5 -102t-23.5 -125q0 -94 51.5 -169t149.5 -125q61 -31 126 -48.5t140 -25.5q71 79 111 166.5t40 194.5z" />
    <glyph glyph-name="zero.proportional" horiz-adv-x="1200" 
d="M1090 669q0 -144 -34.5 -298t-104.5 -243q-69 -86 -149 -126.5t-202 -40.5q-118 0 -201 41t-150 126q-57 73 -98 217t-41 322q0 160 38.5 311t100.5 231q65 84 149 125.5t202 41.5q116 0 200 -41t151 -126q64 -81 101.5 -230t37.5 -310zM923 667q0 122 -20 233t-56 186
q-37 75 -96 116.5t-151 41.5q-91 0 -150.5 -42t-96.5 -116q-45 -90 -60.5 -207.5t-15.5 -209.5q0 -86 16.5 -207.5t59.5 -210.5q37 -76 95 -117t152 -41q88 0 149.5 41.5t97.5 116.5q44 91 60 205t16 211z" />
    <glyph glyph-name="one.proportional" horiz-adv-x="840" 
d="M590 0h-165q0 16 2.5 181.5t2.5 464.5v240t-2 314l-3 1q-42 -27 -136 -97.5t-192 -132.5l-64 96l278.5 201.5t149.5 113.5l128 -86q-2 -154 -3 -356.5t-1 -242.5q0 -110 2.5 -395.5t2.5 -301.5z" />
    <glyph glyph-name="two.proportional" horiz-adv-x="1054" 
d="M1053 2q-13 0 -189 0.5t-285 0.5q-127 0 -314 -0.5t-204 -0.5l-38 118q103 49 239 143t219 175q120 117 170 209.5t50 194.5q0 108 -41.5 176t-111.5 112q-73 46 -169.5 66t-212.5 20h-44.5h-33.5l14 140q15 0 36.5 0.5t53.5 0.5q142 0 259.5 -27.5t205.5 -80.5
q112 -67 164.5 -164.5t52.5 -228.5q0 -116 -56.5 -227.5t-163.5 -211.5q-106 -99 -207 -170t-177 -115l2 -5q55 5 142 6.5t168 2.5q122 2 288 3.5t183 1.5v-139z" />
    <glyph glyph-name="three.proportional" horiz-adv-x="1055" 
d="M948 408q0 -102 -57 -189t-169 -145q-92 -47 -240 -71t-307 -24q-25 0 -52.5 1t-43.5 1l-26 136q15 0 53 -1t62 -1q110 1 225 14.5t182 37.5q99 36 151 92t52 140q0 68 -47.5 116.5t-121.5 74.5q-52 18 -114 22.5t-120 4.5q-34 0 -57 -1.5t-46 -2.5l-22 122q30 4 96.5 12
t120.5 25q108 34 163 85.5t55 128.5q0 75 -40 117t-121 74q-47 18 -138.5 29t-168.5 11h-54.5h-37.5l24 141h23.5h28.5q116 0 228 -11.5t215 -55.5q86 -37 148.5 -105t62.5 -168q0 -106 -69 -184t-196 -120v-9q164 -16 261 -92.5t97 -204.5z" />
    <glyph glyph-name="four.proportional" horiz-adv-x="1200" 
d="M1187 491q-121 2 -203.5 2.5t-146.5 0.5q-2 -195 0 -336.5t2 -157.5h-158q0 16 1.5 166t3.5 328l-571 -3l-71 130l438.5 495.5t230.5 263.5l128 -74q-4 -172 -4 -415.5v-271.5q20 0 135 1t215 3v-132zM688 1178l-2 1l-482 -558l1 -2q18 0 74.5 -0.5t157.5 -0.5h105t144 1
v264.5t2 294.5z" />
    <glyph glyph-name="five.proportional" horiz-adv-x="1060" 
d="M967 1197q-18 0 -232.5 2t-397.5 2v-408q111 -3 223.5 -20.5t181.5 -48.5q104 -47 153.5 -121.5t49.5 -175.5q0 -107 -60 -195t-172 -148q-82 -44 -211 -70t-274 -31q-23 -1 -56.5 -2t-46.5 -1l-18 137q15 0 37.5 1t47.5 2q120 5 242.5 24t188.5 53q74 38 111 88.5
t37 131.5q0 72 -43 123.5t-138 83.5q-58 20 -161 28.5t-244 8.5q0 18 0.5 157t0.5 189q0 74 -0.5 193t-0.5 136q13 0 152.5 -0.5t261.5 -0.5q96 0 225 0.5t143 0.5v-139z" />
    <glyph glyph-name="six.proportional" horiz-adv-x="1200" 
d="M1099 435q0 -100 -39.5 -188.5t-103.5 -148.5q-69 -66 -156.5 -101.5t-193.5 -35.5q-104 0 -197.5 32.5t-168.5 103.5q-59 56 -95 138.5t-36 188.5q0 113 49 227.5t174 267.5q102 121 221 248l201 218l109 -97l-153 -160l-193 -202v-2q65 -12 151.5 -33t175.5 -70
q122 -67 188.5 -163.5t66.5 -222.5zM931 425q0 88 -52 168t-172 139q-59 30 -146 49t-129 22q-76 -80 -115.5 -175t-39.5 -200q0 -78 28 -143.5t71 -106.5q46 -43 105 -64t125 -21q70 0 131 23t101 65q47 48 70 110.5t23 133.5z" />
    <glyph glyph-name="seven.proportional" horiz-adv-x="1031" 
d="M1010 1224l-453 -847l-224 -423l-139 61l408.5 757.5t218.5 425.5l-1 2h-115.5h-114.5q-174 0 -352 -2t-204 -2v140q13 0 128.5 -1t298.5 -1q117 0 283 1t188 1z" />
    <glyph glyph-name="eight.proportional" horiz-adv-x="1214" 
d="M1091 357q0 -171 -141 -283.5t-341 -112.5q-204 0 -344.5 104.5t-140.5 281.5q0 93 61 181.5t195 181.5v2q-114 62 -162.5 133.5t-48.5 173.5q0 153 130 255t310 102q199 0 322.5 -98.5t123.5 -249.5q0 -89 -55 -175.5t-163 -164.5v-2q129 -62 191.5 -138.5t62.5 -190.5z
M888 997q0 109 -75 178.5t-203 69.5q-116 0 -195 -62t-79 -166q0 -66 41 -113t101 -79q41 -22 100 -44.5t137 -46.5q100 72 136.5 134.5t36.5 128.5zM924 341q0 67 -40 122t-120 98q-41 22 -116 50.5t-148 51.5q-74 -50 -141.5 -128t-67.5 -186q0 -113 97.5 -185t216.5 -72
q139 0 229 63t90 186z" />
    <glyph glyph-name="nine.proportional" horiz-adv-x="1200" 
d="M1090 916q0 -124 -45.5 -229.5t-134.5 -217.5q-82 -103 -263.5 -299l-201.5 -217l-109 96l180 187.5l168 175.5l-1 2q-103 14 -204.5 47.5t-183.5 89.5q-107 74 -151 164.5t-44 190.5q0 98 38 180.5t98 145.5q65 67 161 105.5t201 38.5q108 0 202 -32t162 -100
q58 -58 93 -139.5t35 -188.5zM922 909q0 74 -26.5 139t-70.5 110q-40 40 -103.5 63t-127.5 23q-69 0 -131 -24.5t-104 -66.5q-42 -43 -66.5 -105t-24.5 -132q0 -97 53 -174.5t156 -129.5q60 -31 143 -51.5t147 -26.5q81 91 118 180.5t37 194.5z" />
    <glyph glyph-name="plus" horiz-adv-x="1800" 
d="M1432 519h-475v-475h-116v475h-473v117h473v473h116v-473h475v-117z" />
    <glyph glyph-name="minus" unicode="&#x2212;" horiz-adv-x="1800" 
d="M1432 519h-1064v117h1064v-117z" />
    <glyph glyph-name="multiply" unicode="&#xd7;" horiz-adv-x="1800" 
d="M1368 964l-387 -388l387 -386l-83 -83l-386 387l-386 -386l-83 83l387 387l-386 386l80 80l386 -386l388 389z" />
    <glyph glyph-name="divide" horiz-adv-x="1800" 
d="M1432 519h-1064v117h1064v-117zM996 853h-196v207h196v-207zM996 95h-196v207h196v-207z" />
    <glyph glyph-name="equal" horiz-adv-x="1800" 
d="M1422 703h-1044v117h1044v-117zM1422 343h-1044v117h1044v-117z" />
    <glyph glyph-name="notequal" horiz-adv-x="1800" 
d="M1422 343h-546l-123 -379l-102 31l117 348h-390v117h427l82 243h-509v117h546l121 375l102 -31l-115 -344h390v-117h-427l-82 -243h509v-117z" />
    <glyph glyph-name="plusminus" horiz-adv-x="1800" 
d="M1422 141h-1044v116h463v410h-463v116h463v448h116v-448h465v-116h-465v-410h465v-116z" />
    <glyph glyph-name="less" horiz-adv-x="1800" 
d="M1381 195l-51 -110l-938 438v108l938 443l51 -112l-832 -382v-4z" />
    <glyph glyph-name="greater" horiz-adv-x="1800" 
d="M1408 523l-938 -438l-51 110l832 381v4l-832 382l51 112l938 -443v-108z" />
    <glyph glyph-name="lessequal" horiz-adv-x="1800" 
d="M1398 443l-47 -110l-953 402v109l953 406l47 -112l-836 -345v-5zM1422 101h-1032v115h1032v-115z" />
    <glyph glyph-name="greaterequal" horiz-adv-x="1800" 
d="M1402 735l-953 -402l-47 110l836 345v5l-836 345l47 112l953 -406v-109zM1410 101h-1032v115h1032v-115z" />
    <glyph glyph-name="logicalnot" horiz-adv-x="1800" 
d="M1415 138h-129v434h-918v116h1047v-550z" />
    <glyph glyph-name="approxequal" horiz-adv-x="1800" 
d="M1481 879q-41 -124 -132.5 -195.5t-209.5 -71.5q-48 0 -89 14.5t-79 35.5l-85.5 46.5l-81.5 44.5q-26 14 -65 29t-75 15q-71 0 -119 -47t-83 -136l-112 32q36 119 129 193t214 74q49 0 88 -15t80 -36q40 -20 90 -48l78 -43q34 -18 64 -30.5t72 -12.5q72 0 122.5 51
t80.5 134zM1481 498q-41 -124 -132.5 -195.5t-209.5 -71.5q-48 0 -89 14.5t-79 35.5l-85.5 47l-81.5 44q-26 14 -65 29t-75 15q-71 0 -119 -47t-83 -136l-112 32q36 119 129 193t214 74q49 0 88 -15t80 -36l89 -48l79 -43q34 -18 64 -30.5t72 -12.5q72 0 122.5 51t80.5 134z
" />
    <glyph glyph-name="tilde.ascii" horiz-adv-x="1800" 
d="M1487 760q-29 -146 -125 -245t-237 -99q-58 0 -94 14.5t-83 43.5l-77.5 50.5l-82.5 53.5q-41 25 -59 33.5t-63 8.5q-74 0 -129.5 -59.5t-85.5 -183.5l-126 21q28 146 127.5 245t233.5 99q57 0 94.5 -14.5t83.5 -43.5l76.5 -49l83.5 -55q38 -24 57.5 -33t64.5 -9
q78 0 132.5 63.5t82.5 179.5z" />
    <glyph glyph-name="circumflex.ascii.oldstyle" horiz-adv-x="1800" 
d="M1377 600l-112 -51l-363 721h-4l-363 -721l-110 51l420 827h108z" />
    <glyph glyph-name="lozenge" horiz-adv-x="1800" 
d="M1389 697l-445 -727h-92l-440 727l440 727h92zM1250 697l-349 580h-4l-348 -580l348 -580h4z" />
    <glyph glyph-name="radical" horiz-adv-x="1800" 
d="M1671 1595l-683 -1668h-83l-364 761l-257 -195l-63 79l366 282h13l345 -725h4l611 1508z" />
    <glyph glyph-name="period" horiz-adv-x="600" 
d="M401 0h-201v213h201v-213z" />
    <glyph glyph-name="comma" horiz-adv-x="600" 
d="M452 200v-8l-260 -493l-105 47q9 17 80 172.5t146 345.5z" />
    <glyph glyph-name="period.centered" horiz-adv-x="600" 
d="M401 473h-201v213h201v-213z" />
    <glyph glyph-name="zero.superior" unicode="&#x2070;" horiz-adv-x="840" 
d="M763 947q0 -111 -28 -197.5t-68 -132.5q-51 -56 -110 -79.5t-138 -23.5q-83 0 -141.5 25.5t-105.5 77.5q-43 50 -69 139.5t-26 189.5q0 81 20 172.5t76 156.5q46 54 105.5 78t140.5 24q82 0 141.5 -24.5t105.5 -77.5q53 -59 75 -157t22 -171zM626 946q0 46 -13 117.5
t-40 119.5q-25 44 -59 66.5t-95 22.5q-59 0 -94.5 -23t-60.5 -66q-30 -52 -41.5 -117t-11.5 -119q0 -51 12 -119.5t41 -121.5q24 -42 58 -64.5t97 -22.5q58 0 95 24t59 63q27 49 40 115t13 125z" />
    <glyph glyph-name="one.superior" unicode="&#xb9;" horiz-adv-x="840" 
d="M551 537h-138q0 7 2 83.5t2 310.5q0 22 -0.5 146.5t-0.5 158.5l-4 2q-38 -24 -104.5 -69.5l-133.5 -90.5l-57 75l205.5 139l127.5 88l101 -55q-2 -93 -3 -217t-1 -147q0 -56 2 -233.5t2 -190.5z" />
    <glyph glyph-name="two.superior" unicode="&#xb2;" horiz-adv-x="840" 
d="M774 539q-6 0 -130 0.5t-182 0.5q-84 0 -210.5 -0.5t-135.5 -0.5l-32 93q70 32 158.5 88.5t136.5 97.5q70 59 105.5 114t35.5 116q0 60 -29.5 97.5t-71.5 60.5q-47 25 -100.5 35t-131.5 10h-33.5h-24.5l11 112q7 0 27.5 1t40.5 1q100 0 177 -16.5t134 -48.5
q60 -34 103.5 -92t43.5 -152q0 -79 -44 -150t-101 -120q-56 -46 -105.5 -79.5t-95.5 -59.5l1 -5q40 2 78.5 2t66.5 1q80 1 190 1.5t118 0.5v-108z" />
    <glyph glyph-name="three.superior" unicode="&#xb3;" horiz-adv-x="840" 
d="M711 797q0 -63 -42 -122.5t-123 -95.5q-69 -32 -179 -43t-210 -11q-13 0 -19 0.5t-11 0.5l-18 109h25.5t35.5 1q63 2 146.5 8.5t126.5 20.5q64 21 95.5 48t31.5 74q0 39 -28 62.5t-70 37.5q-35 11 -77.5 12t-76.5 1h-44h-34l-15 96l67.5 6.5t85.5 16.5q70 19 105 44.5
t35 70.5q0 43 -27.5 66.5t-67.5 35.5q-33 10 -85.5 15t-113.5 5h-43.5h-30.5l23 110h20h24q78 0 155 -5.5t144 -32.5q64 -23 105 -66t41 -107q0 -60 -40 -106t-112 -74v-2q91 -14 146 -58.5t55 -117.5z" />
    <glyph glyph-name="four.superior" unicode="&#x2074;" horiz-adv-x="840" 
d="M815 813q-83 1 -131.5 1h-89.5q-2 -129 -1 -200t1 -77h-127q0 6 1 86.5t1 190.5h-367l-61 90l306.5 325t142.5 153l107 -51q-3 -100 -3 -238.5v-179.5h92t129 1v-101zM469 913v307l-3 1l-278 -306l1 -2q17 0 46.5 -0.5t75.5 -0.5h63t95 1z" />
    <glyph glyph-name="five.superior" unicode="&#x2075;" horiz-adv-x="840" 
d="M712 1240q-5 0 -131 1t-269 1v-212q75 -2 137 -10t110 -27q74 -30 109.5 -78t35.5 -112t-40.5 -122.5t-123.5 -96.5q-56 -25 -143 -39.5t-189 -17.5h-33h-25l-15 108q6 0 24 0.5t24 0.5q83 3 151 9t134 30q42 16 68 46.5t26 74.5q0 39 -27 67t-87 46q-32 10 -104.5 15
t-155.5 5q0 8 0.5 97.5t0.5 120.5q0 38 -0.5 117.5t-0.5 86.5q5 0 97.5 -0.5t171.5 -0.5q66 0 158 0.5t97 0.5v-111z" />
    <glyph glyph-name="six.superior" unicode="&#x2076;" horiz-adv-x="840" 
d="M759 806q0 -61 -24.5 -116.5t-70.5 -91.5q-48 -41 -105.5 -62.5t-132.5 -21.5q-70 0 -135 20t-116 63q-43 35 -67 86t-24 117q0 75 35 150.5t109 150.5q68 72 145.5 144l149.5 142l90 -80q-9 -9 -88.5 -80.5l-130.5 -119.5v-3q36 -6 91 -20.5t105 -38.5q73 -35 121 -93
t48 -146zM622 800q0 61 -37.5 103.5t-97.5 68.5q-35 15 -92 26t-83 14q-32 -32 -61.5 -84.5t-29.5 -125.5q0 -39 16 -75.5t43 -59.5q29 -24 66 -35.5t80 -11.5q46 0 82.5 11.5t61.5 35.5q28 26 40 58.5t12 74.5z" />
    <glyph glyph-name="seven.superior" unicode="&#x2077;" horiz-adv-x="840" 
d="M771 1274l-318 -520.5l-153 -252.5l-105 62l266 433.5l144 242.5l-1 2h-68h-65q-113 0 -249.5 -0.5t-143.5 -0.5v111q7 0 117 -0.5t191 -0.5t196.5 1t127.5 1z" />
    <glyph glyph-name="eight.superior" unicode="&#x2078;" horiz-adv-x="840" 
d="M754 759q0 -105 -96.5 -175.5t-236.5 -70.5q-147 0 -240.5 67.5t-93.5 172.5q0 47 33 99.5t128 113.5v6q-59 30 -95 72t-36 110q0 98 92 160t212 62q129 0 219 -57t90 -160q0 -63 -45 -116t-92 -83v-6q79 -35 120 -81t41 -114zM595 1140q0 69 -51.5 102t-121.5 33
q-77 0 -123.5 -33t-46.5 -90q0 -37 23.5 -63t60.5 -43q32 -15 76 -29.5t81 -23.5q42 27 72 62.5t30 84.5zM619 749q0 44 -27.5 73.5t-68.5 48.5q-27 13 -80.5 31.5t-93.5 29.5q-44 -25 -85.5 -72.5t-41.5 -105.5q0 -63 59 -101.5t138 -38.5q94 0 147 34t53 101z" />
    <glyph glyph-name="nine.superior" unicode="&#x2079;" horiz-adv-x="840" 
d="M753 1093q0 -75 -25 -139t-88 -134q-54 -59 -183.5 -182.5t-144.5 -136.5l-89 76l104 99l116 108l-1 4q-45 7 -112.5 25t-125.5 53q-57 35 -91.5 88.5t-34.5 132.5q0 63 22.5 111t68.5 91q41 39 106 63t139 24q75 0 139.5 -19.5t110.5 -59.5q41 -36 65 -85.5t24 -118.5z
M615 1088q0 42 -15.5 78t-43.5 60q-26 22 -65 34t-80 12q-43 0 -78 -13.5t-64 -37.5q-27 -23 -40.5 -57.5t-13.5 -70.5q0 -61 34 -103t90 -66q40 -17 88.5 -28.5t96.5 -16.5q46 48 68.5 98t22.5 111z" />
    <glyph glyph-name="dollar.superior" horiz-adv-x="840" 
d="M236 540l2 -219h-103q0 31 1.5 83.5t1.5 77.5q-1 87 -2 125.5t-1 45.5q55 -4 90 -5.5t75 -1.5q33 0 82 5t88 19q40 14 61.5 36t21.5 57q0 32 -19 52t-48 35q-44 23 -111.5 48.5t-100.5 42.5q-56 28 -87 74t-31 102q0 60 36 106.5t94 74.5q47 23 118 31t128 8h23.5h14.5
l-2 192h103q-1 -41 -1.5 -71.5t-0.5 -62.5q0 -78 1 -119.5t1 -47.5q-8 0 -62.5 1.5t-97.5 1.5q-31 0 -72.5 -4t-78.5 -20q-37 -15 -52 -38.5t-15 -45.5q0 -33 23 -53.5t50 -33.5q41 -20 109 -46t93 -39q50 -26 86 -68t36 -107q0 -58 -30 -103.5t-83 -75.5
q-50 -27 -130.5 -42t-164.5 -15h-46v0z" />
    <glyph glyph-name="cent.superior" horiz-adv-x="840" 
d="M620 540q-78 0 -164 15.5t-151 48.5q-93 45 -145 124t-52 174q0 88 49.5 158.5t122.5 113.5q67 39 159 60t175 21l-3 231h104q-1 -47 -1.5 -90.5t-0.5 -76.5q0 -87 1 -128.5t1 -49.5h-33h-29q-87 0 -137.5 -6.5t-114.5 -30.5q-69 -25 -113 -79.5t-44 -121.5
q0 -76 41.5 -127t104.5 -78q49 -21 114 -31.5t138 -10.5h43h36q0 -14 -1 -53.5t-2 -127.5q0 -30 1.5 -90.5t1.5 -106.5h-103z" />
    <glyph glyph-name="period.superior" horiz-adv-x="420" 
d="M293 537h-166v175h166v-175z" />
    <glyph glyph-name="comma.superior" horiz-adv-x="420" 
d="M324 703l-69.5 -125.5t-133.5 -259.5l-89 39q18 36 87.5 198.5t81.5 201.5z" />
    <glyph glyph-name="plus.superior" horiz-adv-x="840" 
d="M780 913h-314v-313h-94v313h-313v95h313v312h94v-312h314v-95z" />
    <glyph glyph-name="minus.superior" horiz-adv-x="840" 
d="M765 913h-691v95h691v-95z" />
    <glyph glyph-name="parenleft.superior" unicode="&#x207d;" horiz-adv-x="570" 
d="M548 448l-44 -87q-82 20 -157.5 67.5t-131.5 114.5q-58 69 -92.5 156t-34.5 189q0 92 29.5 178t82.5 162q55 78 136 142t167 100l45 -83q-83 -40 -146 -92t-108 -118q-39 -58 -63 -132t-24 -151q0 -86 27 -159.5t74 -130.5q42 -52 105.5 -93t134.5 -63z" />
    <glyph glyph-name="parenright.superior" unicode="&#x207e;" horiz-adv-x="570" 
d="M482 943q0 -92 -29.5 -178t-82.5 -162q-55 -78 -136 -142t-167 -100l-45 83q83 40 146 92t108 118q39 58 63 132t24 151q0 86 -27 159.5t-74 130.5q-43 52 -106 93t-134 63l44 87q82 -20 157.5 -67.5t131.5 -114.5q58 -69 92.5 -156t34.5 -189z" />
    <glyph glyph-name="zero.inferior" unicode="&#x2080;" horiz-adv-x="840" 
d="M763 410q0 -111 -28 -197.5t-68 -132.5q-51 -56 -110 -79.5t-138 -23.5q-83 0 -141.5 25.5t-105.5 77.5q-43 50 -69 139.5t-26 189.5q0 81 20 172.5t76 156.5q46 54 105.5 78t140.5 24q82 0 141.5 -24.5t105.5 -77.5q53 -59 75 -157t22 -171zM626 409q0 46 -13 117.5
t-40 119.5q-25 44 -59 66.5t-95 22.5q-59 0 -94.5 -23t-60.5 -66q-30 -52 -41.5 -117t-11.5 -119q0 -51 12 -119.5t41 -121.5q24 -42 58 -64.5t97 -22.5q58 0 95 24t59 63q27 49 40 115t13 125z" />
    <glyph glyph-name="one.inferior" unicode="&#x2081;" horiz-adv-x="840" 
d="M551 0h-138q0 7 2 83.5t2 310.5q0 22 -0.5 146.5t-0.5 158.5l-4 2q-38 -24 -104.5 -69.5l-133.5 -90.5l-57 75l205.5 139l127.5 88l101 -55q-2 -93 -3 -217t-1 -147q0 -56 2 -233.5t2 -190.5z" />
    <glyph glyph-name="two.inferior" unicode="&#x2082;" horiz-adv-x="840" 
d="M774 2q-6 0 -130 0.5t-182 0.5q-84 0 -210.5 -0.5t-135.5 -0.5l-32 93q70 32 158.5 88.5t136.5 97.5q70 59 105.5 114t35.5 116q0 60 -29.5 97.5t-71.5 60.5q-47 25 -100.5 35t-131.5 10h-33.5h-24.5l11 112q7 0 27.5 1t40.5 1q100 0 177 -16.5t134 -48.5
q60 -34 103.5 -92t43.5 -152q0 -79 -44 -150t-101 -120q-56 -46 -105.5 -79.5t-95.5 -59.5l1 -5q40 2 78.5 2t66.5 1q80 1 190 1.5t118 0.5v-108z" />
    <glyph glyph-name="three.inferior" unicode="&#x2083;" horiz-adv-x="840" 
d="M711 260q0 -63 -42 -122.5t-123 -95.5q-69 -32 -179 -43t-210 -11q-13 0 -19 0.5t-11 0.5l-18 109h25.5t35.5 1q63 2 146.5 8.5t126.5 20.5q64 21 95.5 48t31.5 74q0 39 -28 62.5t-70 37.5q-35 11 -77.5 12t-76.5 1h-44h-34l-15 96l67.5 6.5t85.5 16.5q70 19 105 44.5
t35 70.5q0 43 -27.5 66.5t-67.5 35.5q-33 10 -85.5 15t-113.5 5h-43.5h-30.5l23 110h20h24q78 0 155 -5.5t144 -32.5q64 -23 105 -66t41 -107q0 -60 -40 -106t-112 -74v-2q91 -14 146 -58.5t55 -117.5z" />
    <glyph glyph-name="four.inferior" unicode="&#x2084;" horiz-adv-x="840" 
d="M815 276q-83 1 -131.5 1h-89.5q-2 -129 -1 -200t1 -77h-127q0 6 1 86.5t1 190.5h-367l-61 90l306.5 325t142.5 153l107 -51q-3 -100 -3 -238.5v-179.5h92t129 1v-101zM469 376v307l-3 1l-278 -306l1 -2q17 0 46.5 -0.5t75.5 -0.5h63t95 1z" />
    <glyph glyph-name="five.inferior" unicode="&#x2085;" horiz-adv-x="840" 
d="M712 703q-5 0 -131 1t-269 1v-212q75 -2 137 -10t110 -27q74 -30 109.5 -78t35.5 -112t-40.5 -122.5t-123.5 -96.5q-56 -25 -143 -39.5t-189 -17.5h-33h-25l-15 108q6 0 24 0.5t24 0.5q83 3 151 9t134 30q42 16 68 46.5t26 74.5q0 39 -27 67t-87 46q-32 10 -104.5 15
t-155.5 5q0 8 0.5 97.5t0.5 120.5q0 38 -0.5 117.5t-0.5 86.5q5 0 97.5 -0.5t171.5 -0.5q66 0 158 0.5t97 0.5v-111z" />
    <glyph glyph-name="six.inferior" unicode="&#x2086;" horiz-adv-x="840" 
d="M759 269q0 -61 -24.5 -116.5t-70.5 -91.5q-48 -41 -105.5 -62.5t-132.5 -21.5q-70 0 -135 20t-116 63q-43 35 -67 86t-24 117q0 75 35 150.5t109 150.5q68 72 145.5 144l149.5 142l90 -80q-9 -9 -88.5 -80.5l-130.5 -119.5v-3q36 -6 91 -20.5t105 -38.5q73 -35 121 -93
t48 -146zM622 263q0 61 -37.5 103.5t-97.5 68.5q-35 15 -92 26t-83 14q-32 -32 -61.5 -84.5t-29.5 -125.5q0 -39 16 -75.5t43 -59.5q29 -24 66 -35.5t80 -11.5q46 0 82.5 11.5t61.5 35.5q28 26 40 58.5t12 74.5z" />
    <glyph glyph-name="seven.inferior" unicode="&#x2087;" horiz-adv-x="840" 
d="M771 737l-318 -520.5l-153 -252.5l-105 62l266 433.5l144 242.5l-1 2h-68h-65q-113 0 -249.5 -0.5t-143.5 -0.5v111q7 0 117 -0.5t191 -0.5t196.5 1t127.5 1z" />
    <glyph glyph-name="eight.inferior" unicode="&#x2088;" horiz-adv-x="840" 
d="M754 222q0 -105 -96.5 -175.5t-236.5 -70.5q-147 0 -240.5 67.5t-93.5 172.5q0 47 33 99.5t128 113.5v6q-59 30 -95 72t-36 110q0 98 92 160t212 62q129 0 219 -57t90 -160q0 -63 -45 -116t-92 -83v-6q79 -35 120 -81t41 -114zM595 603q0 69 -51.5 102t-121.5 33
q-77 0 -123.5 -33t-46.5 -90q0 -37 23.5 -63t60.5 -43q32 -15 76 -29.5t81 -23.5q42 27 72 62.5t30 84.5zM619 212q0 44 -27.5 73.5t-68.5 48.5q-27 13 -80.5 31.5t-93.5 29.5q-44 -25 -85.5 -72.5t-41.5 -105.5q0 -63 59 -101.5t138 -38.5q94 0 147 34t53 101z" />
    <glyph glyph-name="nine.inferior" unicode="&#x2089;" horiz-adv-x="840" 
d="M753 556q0 -75 -25 -139t-88 -134q-54 -59 -183.5 -182.5t-144.5 -136.5l-89 76l104 99l116 108l-1 4q-45 7 -112.5 25t-125.5 53q-57 35 -91.5 88.5t-34.5 132.5q0 63 22.5 111t68.5 91q41 39 106 63t139 24q75 0 139.5 -19.5t110.5 -59.5q41 -36 65 -85.5t24 -118.5z
M615 551q0 42 -15.5 78t-43.5 60q-26 22 -65 34t-80 12q-43 0 -78 -13.5t-64 -37.5q-27 -23 -40.5 -57.5t-13.5 -70.5q0 -61 34 -103t90 -66q40 -17 88.5 -28.5t96.5 -16.5q46 48 68.5 98t22.5 111z" />
    <glyph glyph-name="dollar.inferior" horiz-adv-x="840" 
d="M236 3l2 -219h-103q0 31 1.5 83.5t1.5 77.5q-1 87 -2 125.5t-1 45.5q55 -4 90 -5.5t75 -1.5q33 0 82 5t88 19q40 14 61.5 36t21.5 57q0 32 -19 52t-48 35q-44 23 -111.5 48.5t-100.5 42.5q-56 28 -87 74t-31 102q0 60 36 106.5t94 74.5q47 23 118 31t128 8h23.5h14.5
l-2 192h103q-1 -41 -1.5 -71.5t-0.5 -62.5q0 -78 1 -119.5t1 -47.5q-8 0 -62.5 1.5t-97.5 1.5q-31 0 -72.5 -4t-78.5 -20q-37 -15 -52 -38.5t-15 -45.5q0 -33 23 -53.5t50 -33.5q41 -20 109 -46t93 -39q50 -26 86 -68t36 -107q0 -58 -30 -103.5t-83 -75.5
q-50 -27 -130.5 -42t-164.5 -15h-46v0z" />
    <glyph glyph-name="cent.inferior" horiz-adv-x="840" 
d="M620 3q-78 0 -164 15.5t-151 48.5q-93 45 -145 124t-52 174q0 88 49.5 158.5t122.5 113.5q67 39 159 60t175 21l-3 231h104q-1 -47 -1.5 -90.5t-0.5 -76.5q0 -87 1 -128.5t1 -49.5h-33h-29q-87 0 -137.5 -6.5t-114.5 -30.5q-69 -25 -113 -79.5t-44 -121.5
q0 -76 41.5 -127t104.5 -78q49 -21 114 -31.5t138 -10.5h43h36q0 -14 -1 -53.5t-2 -127.5q0 -30 1.5 -90.5t1.5 -106.5h-103z" />
    <glyph glyph-name="period.inferior" horiz-adv-x="420" 
d="M293 0h-166v175h166v-175z" />
    <glyph glyph-name="comma.inferior" horiz-adv-x="420" 
d="M324 166l-69.5 -125.5t-133.5 -259.5l-89 39q18 36 87.5 198.5t81.5 201.5z" />
    <glyph glyph-name="plus.inferior" horiz-adv-x="840" 
d="M780 376h-314v-313h-94v313h-313v95h313v312h94v-312h314v-95z" />
    <glyph glyph-name="minus.inferior" horiz-adv-x="840" 
d="M765 376h-691v95h691v-95z" />
    <glyph glyph-name="paren.left.inferior" unicode="&#x208d;" horiz-adv-x="570" 
d="M548 -89l-44 -87q-82 20 -157.5 67.5t-131.5 114.5q-58 69 -92.5 156t-34.5 189q0 92 29.5 178t82.5 162q55 78 136 142t167 100l45 -83q-83 -40 -146 -92t-108 -118q-39 -58 -63 -132t-24 -151q0 -86 27 -159.5t74 -130.5q42 -52 105.5 -93t134.5 -63z" />
    <glyph glyph-name="paren.right.inferior" unicode="&#x208e;" horiz-adv-x="570" 
d="M482 406q0 -92 -29.5 -178t-82.5 -162q-55 -78 -136 -142t-167 -100l-45 83q83 40 146 92t108 118q39 58 63 132t24 151q0 86 -27 159.5t-74 130.5q-43 52 -106 93t-134 63l44 87q82 -20 157.5 -67.5t131.5 -114.5q58 -69 92.5 -156t34.5 -189z" />
    <glyph glyph-name="a.superior" horiz-adv-x="765" 
d="M634 901q0 -153 -0.5 -250t-0.5 -114q-14 -3 -71.5 -6.5t-149.5 -3.5q-60 0 -115.5 9.5t-99.5 27.5q-55 22 -92 63t-37 104q0 67 43.5 110.5t114.5 69.5q68 27 151 33.5l131 10.5q-3 45 -26 73t-61 41q-29 10 -68 14t-82 4q-28 0 -52.5 -1.5t-69.5 -3.5l15 107
q10 0 44.5 1.5t86.5 1.5q85 0 149 -15.5t107 -50.5q40 -34 61.5 -83.5t21.5 -141.5zM510 748v47t-1 62q-37 -2 -98 -4t-122 -23q-29 -10 -60 -35.5t-31 -57.5q0 -41 25.5 -64.5t62.5 -33.5q47 -13 84 -15t73 -2q11 0 28.5 0.5t37.5 1.5q0 14 0.5 45t0.5 79z" />
    <glyph glyph-name="b.superior" horiz-adv-x="825" 
d="M755 869q0 -105 -56.5 -182.5t-153.5 -113.5q-68 -26 -144.5 -36.5t-189.5 -10.5h-30h-42q0 15 1.5 184.5t1.5 320.5q0 125 -1 234.5t-2 200.5h129l-2 -281q144 -2 227.5 -24.5t136.5 -57.5q63 -40 94 -97.5t31 -136.5zM624 866q0 72 -45 119.5t-117 69.5q-38 12 -81 18
t-91 6h-11h-13q0 -27 -0.5 -88t-0.5 -140q0 -107 1 -142t1 -77q66 1 128.5 10t102.5 28q63 32 94.5 77t31.5 119z" />
    <glyph glyph-name="c.superior" horiz-adv-x="680" 
d="M614 644l-9 -110h-23.5h-24.5q-88 0 -166.5 14t-139.5 45q-85 42 -133 113t-48 158q0 77 44 141.5t114 106.5q63 37 152 56t177 19h21h17l8 -109h-16.5h-16.5q-73 0 -122.5 -6t-104.5 -26q-63 -23 -102.5 -73t-39.5 -108q0 -71 36.5 -115t95.5 -69q46 -20 103.5 -28.5
t123.5 -8.5h29.5h24.5z" />
    <glyph glyph-name="d.superior" horiz-adv-x="826" 
d="M687 527q-12 0 -36 -0.5t-36 -0.5q-129 0 -206.5 11t-146.5 42q-81 35 -136.5 101t-55.5 162q0 91 50.5 168.5t160.5 124.5q74 31 150.5 40t128.5 10l-2 281h129q0 -13 -1.5 -190t-1.5 -316q0 -122 0.5 -216.5t2.5 -216.5zM560 852v112.5v114.5q-68 0 -125.5 -11
t-94.5 -26q-67 -28 -103 -78.5t-36 -117.5q0 -64 35 -105t88 -67q50 -23 104.5 -32.5t121.5 -9.5h4h4q0 21 1 59.5t1 160.5z" />
    <glyph glyph-name="e.superior" horiz-adv-x="761" 
d="M694 855h-500q7 -49 35.5 -93t86.5 -77q40 -23 88 -33.5t120 -10.5q40 0 77.5 2t46.5 3l-16 -107q-12 -1 -44.5 -3t-73.5 -2q-111 0 -194.5 26.5t-136.5 72.5q-48 40 -79.5 101.5t-31.5 134.5q0 79 27 137t70 103q42 44 102.5 68t129.5 24q63 0 114.5 -19t89.5 -55
q44 -42 66.5 -112t22.5 -160zM566 943q-7 74 -53.5 118.5t-118.5 44.5q-71 0 -124.5 -43.5t-67.5 -119.5h364z" />
    <glyph glyph-name="f.superior" horiz-adv-x="550" 
d="M562 1363h-27.5h-28.5q-61 0 -98 -9t-62 -31q-23 -21 -33.5 -49.5t-10.5 -73.5v-15h243v-93h-243q0 -204 1.5 -373.5t1.5 -181.5h-129q0 14 1.5 179.5t1.5 375.5h-133v93h133v18q0 57 17.5 102t57.5 85q33 34 92 55.5t144 21.5h29h28z" />
    <glyph glyph-name="g.superior" horiz-adv-x="821" 
d="M684 1190q0 -14 -0.5 -110.5t-1.5 -233.5q0 -68 0.5 -134.5t0.5 -125.5q0 -92 -34.5 -159.5t-122.5 -109.5q-69 -31 -142.5 -46t-220.5 -15l-12 104q77 1 151 7.5t119 22.5q62 21 97.5 55t38.5 102h-10h-13q-78 0 -170.5 17.5t-152.5 55.5q-64 39 -102.5 99t-38.5 151
q0 92 57 161.5t144 107.5q66 30 143 40.5t180 10.5h43.5h46.5zM558 847v104.5t-2 132.5h-3.5h-3.5q-68 0 -110 -5t-98 -25q-67 -27 -103.5 -76t-36.5 -113t35 -109t96 -71q41 -17 94.5 -25.5t115.5 -8.5h7.5h7.5q0 21 1 72t0 124z" />
    <glyph glyph-name="h.superior" horiz-adv-x="865" 
d="M730 537h-129q0 8 1.5 87.5t1.5 160.5q0 32 -0.5 90.5t-1.5 89.5q-2 73 -30.5 98.5t-87.5 25.5q-39 0 -98 -21t-121 -54l3 -477h-129q0 10 1.5 147.5t1.5 344.5q0 77 -0.5 192t-2.5 245h129l-2 -344l3 -3q88 44 148.5 63t107.5 19q92 0 148 -53t56 -145q0 -79 -1 -133.5
t-1 -90.5q0 -57 1.5 -144t1.5 -98z" />
    <glyph glyph-name="i.superior" horiz-adv-x="407" 
d="M276 1321h-145v128h145v-128zM268 537h-129q0 15 1.5 98.5t1.5 221.5q0 59 -0.5 143.5t-2.5 184.5h129q-2 -133 -3 -192t-1 -121q0 -145 2 -235.5t2 -99.5z" />
    <glyph glyph-name="j.superior" horiz-adv-x="420" 
d="M301 1321h-145v128h145v-128zM292 556q0 -58 -19 -114.5t-69 -96.5q-44 -36 -105 -58.5t-178 -30.5l-15 98q81 9 126.5 19.5t76.5 35.5q30 25 43.5 62t13.5 105q0 157 -1.5 383l-1.5 226h129q0 -15 -1 -104t-1 -212q0 -81 1 -161t1 -152z" />
    <glyph glyph-name="k.superior" horiz-adv-x="783" 
d="M268 537h-129q0 10 1.5 151.5t1.5 349.5q0 75 -0.5 188.5t-2.5 239.5h129q-2 -132 -2.5 -267.5t-0.5 -166.5q0 -72 1.5 -278.5t1.5 -216.5zM772 559l-83 -67l-232.5 212l-148.5 131v63q46 43 140.5 124.5t196.5 180.5l79 -82l-175 -150.5l-106 -87.5v-6l113 -108.5z" />
    <glyph glyph-name="l.superior" horiz-adv-x="408" 
d="M268 537h-129q0 9 1.5 167t1.5 305q0 80 -0.5 201.5t-2.5 255.5h129q-2 -161 -2.5 -267.5t-0.5 -182.5q0 -150 1.5 -310.5t1.5 -168.5z" />
    <glyph glyph-name="m.superior" horiz-adv-x="1294" 
d="M1158 537h-131q0 10 1.5 82t1.5 165q0 29 -0.5 91t-1.5 93q-2 72 -30.5 97t-87.5 25q-49 0 -104 -22.5t-95 -42.5v-38.5v-64.5q-1 -49 -1 -82.5v-43.5q0 -99 1 -174t1 -85h-129q0 9 1.5 81t1.5 165q0 31 -0.5 92t-1.5 92q-2 74 -31 98.5t-85 24.5q-47 0 -104 -26t-97 -48
q0 -21 -0.5 -73.5t-0.5 -108.5q0 -76 1 -181.5t1 -115.5h-129q0 8 1.5 79t1.5 226q0 55 -0.5 154t-2.5 189h129v-61l3 -3q30 19 103 49.5t127 30.5q72 0 117.5 -25.5t63.5 -61.5h2q39 21 115.5 54t143.5 33q103 0 158.5 -54t55.5 -141q0 -66 -1 -110.5t-1 -95.5
q0 -103 1.5 -176t1.5 -87z" />
    <glyph glyph-name="n.superior" unicode="&#x207f;" horiz-adv-x="865" 
d="M731 537h-130q0 7 1.5 97t1.5 148q0 32 -0.5 93t-0.5 92q-2 73 -31 98t-87 25q-39 0 -97 -20.5t-122 -54.5q0 -21 -0.5 -76t-0.5 -112q0 -74 1.5 -178.5t1.5 -111.5h-129q0 7 1.5 82t1.5 217q0 58 -0.5 154.5t-2.5 194.5h128v-63l3 -3q35 18 110 50t145 32
q93 0 148.5 -52.5t55.5 -144.5q0 -78 -1 -135t-1 -93q0 -56 2 -141.5t2 -97.5z" />
    <glyph glyph-name="o.superior" horiz-adv-x="847" 
d="M771 861q0 -72 -30.5 -142t-83.5 -116q-52 -43 -109.5 -63t-124.5 -20q-68 0 -128 21.5t-106 60.5q-54 47 -83.5 115t-29.5 145q0 75 26 136t78 111q47 43 108.5 67.5t135.5 24.5q73 0 133.5 -22t107.5 -66q54 -50 80 -113.5t26 -138.5zM640 857q0 57 -20 106.5t-62 86.5
q-26 23 -60.5 35.5t-73.5 12.5q-45 0 -79.5 -13.5t-62.5 -40.5q-37 -33 -56 -83t-19 -99q0 -63 22 -111.5t64 -82.5q26 -22 60 -32.5t70 -10.5q39 0 76.5 14t62.5 38q39 35 58.5 81t19.5 99z" />
    <glyph glyph-name="p.superior" horiz-adv-x="827" 
d="M756 878q0 -96 -47 -167.5t-134 -114.5q-72 -34 -155.5 -47t-153.5 -13l3 -280h-130q0 13 1.5 156t1.5 343q0 92 -1 198.5t-2 236.5h47.5h39.5q143 0 224 -13t152 -51q71 -37 112.5 -101.5t41.5 -146.5zM625 874q0 60 -31 102.5t-79 66.5q-40 22 -98 31.5t-129 9.5h-10
h-11q-1 -24 -1.5 -86t-0.5 -105q0 -27 0.5 -126t0.5 -130q68 1 123 9.5t99 27.5q70 32 103.5 79.5t33.5 120.5z" />
    <glyph glyph-name="q.superior" horiz-adv-x="824" 
d="M688 256h-129l2 278q-57 1 -133.5 7t-145.5 34q-107 42 -159.5 115.5t-52.5 176.5q0 88 52 155.5t129 106.5q72 37 156 49t202 12h36h43q-1 -122 -2 -258.5t-1 -163.5q0 -131 1.5 -316t1.5 -196zM562 804q0 103 -0.5 182.5t-1.5 97.5q-70 0 -130 -9.5t-107 -30.5
q-57 -26 -89.5 -73t-32.5 -107q0 -69 36 -117.5t103 -76.5q41 -17 92 -25.5t118 -8.5h5.5h5.5q0 34 0.5 76.5t0.5 91.5z" />
    <glyph glyph-name="r.superior" horiz-adv-x="586" 
d="M570 1085q-35 -7 -116 -29t-188 -69q0 -22 -0.5 -64t-0.5 -92q0 -75 1.5 -177.5t1.5 -116.5h-129q0 7 1.5 72.5t1.5 208.5q0 57 -0.5 163t-2.5 204h127v-88l3 -2q85 42 158.5 68.5t115.5 35.5z" />
    <glyph glyph-name="s.superior" horiz-adv-x="611" 
d="M531 729q0 -49 -26.5 -88t-67.5 -62q-42 -24 -101.5 -36t-125.5 -12q-34 0 -72.5 2.5t-47.5 3.5l-5 105q5 -1 55 -4t85 -3q28 0 57 1.5t61 13.5q30 11 45.5 28.5t15.5 41.5q0 22 -12.5 35t-34.5 25q-47 26 -81 38t-74 35q-48 27 -74 66t-26 86q0 51 29 88.5t80 62.5
q40 20 87.5 27t98.5 7q42 0 72 -1.5t37 -1.5l10 -106q-6 0 -49 2.5t-87 2.5q-23 0 -50 -3t-53 -14q-25 -11 -36.5 -26t-11.5 -33q0 -20 15 -34.5t37 -26.5q34 -17 79 -36t69 -33q41 -24 71.5 -59.5t30.5 -91.5z" />
    <glyph glyph-name="t.superior" horiz-adv-x="590" 
d="M543 635l-15 -98q-6 0 -36.5 -2t-41.5 -2q-140 0 -215.5 54.5t-75.5 173.5q0 67 1 142.5t1 188.5h-113v93h118v164h119v-164h255v-93h-255q-1 -26 -1.5 -73.5t-0.5 -87.5v-63.5v-90.5q0 -72 42 -107.5t143 -35.5q15 0 42.5 0.5t32.5 0.5z" />
    <glyph glyph-name="u.superior" horiz-adv-x="865" 
d="M726 537h-126v61l-4 3q-32 -21 -106.5 -51t-140.5 -30q-97 0 -155 52t-58 152q0 49 1 118t1 100q0 57 -1.5 145.5t-1.5 97.5h129q0 -7 -1.5 -95.5t-1.5 -133.5q0 -44 0.5 -103.5t0.5 -91.5q2 -74 28.5 -103t76.5 -29q68 0 135 28.5t97 50.5q0 23 1 85t0 127q0 67 -1 161
t-1 104h128q0 -8 -1.5 -73.5t-1.5 -208.5q0 -83 1 -175z" />
    <glyph glyph-name="v.superior" horiz-adv-x="795" 
d="M745 1156l-196 -402l-105 -217h-92l-97.5 198l-204.5 413l116 48l235 -503h4l228 503z" />
    <glyph glyph-name="w.superior" horiz-adv-x="1188" 
d="M1139 1156q-96 -209 -174 -405.5l-85 -213.5h-99q-4 12 -60.5 162l-120.5 307h-3l-131 -310.5t-65 -158.5h-97q-5 18 -89.5 228t-163.5 385l120 46l185 -491h4l194 469h99l179 -469h4l190 491z" />
    <glyph glyph-name="x.superior" horiz-adv-x="750" 
d="M692 594l-99 -70q-9 12 -68.5 86l-150.5 180h-3l-145 -171l-79 -96l-92 66q8 7 78.5 81.5l169.5 187.5v4l-111 127l-121 140l97 68l107.5 -133l100.5 -119h4l106.5 126.5l103.5 126.5l93 -66l-114 -121.5l-123 -133.5v-4l162 -184t84 -95z" />
    <glyph glyph-name="y.superior" horiz-adv-x="798" 
d="M749 1154l-286 -580t-157 -319l-112 37l139 265q-20 46 -96.5 205.5l-186.5 386.5l120 47l143 -322l85 -186h5l88 189l145 319z" />
    <glyph glyph-name="z.superior" horiz-adv-x="714" 
d="M657 541h-102.5h-188.5h-166.5h-106.5l-30 75q11 11 154.5 175.5l247.5 287.5l-2 4h-46h-48q-66 0 -171.5 -1t-113.5 -1v97h116.5h134.5h148h118l43 -72l-232 -266l-171 -197l2 -4q22 0 57.5 -0.5t77.5 -0.5q139 0 204.5 1t74.5 1v-99z" />
    <glyph glyph-name="e_grave.superior" horiz-adv-x="761" 
d="M583 1330l-37 -73l-328 137l51 92zM694 855h-500q7 -49 35.5 -93t86.5 -77q40 -23 88 -33.5t120 -10.5q40 0 77.5 2t46.5 3l-16 -107q-12 -1 -44.5 -3t-73.5 -2q-111 0 -194.5 26.5t-136.5 72.5q-48 40 -79.5 101.5t-31.5 134.5q0 79 27 137t70 103q42 44 102.5 68
t129.5 24q63 0 114.5 -19t89.5 -55q44 -42 66.5 -112t22.5 -160zM566 943q-7 74 -53.5 118.5t-118.5 44.5q-71 0 -124.5 -43.5t-67.5 -119.5h364z" />
    <glyph glyph-name="onehalf" unicode="&#xbd;" horiz-adv-x="1200" 
d="M678 607h-138q0 7 2 105.5t2 244.5q0 18 -0.5 131t-0.5 145l-4 2q-37 -22 -104 -70t-134 -90l-55 79q102 64 208 138.5l123 86.5l101 -51q-2 -88 -3 -204t-1 -138q0 -51 2 -207t2 -172zM971 -432q-7 0 -135.5 0.5t-183.5 0.5q-83 0 -207.5 -0.5t-134.5 -0.5l-31 88
q70 27 155 76t139 91q73 57 106 103.5t33 101.5q0 54 -29 85t-69 50q-44 21 -102.5 27.5t-131.5 6.5q-17 0 -32.5 -0.5t-24.5 -0.5l10 112q8 0 28 1t40 1q93 0 170.5 -12t137.5 -43q71 -37 108.5 -90.5t37.5 -128.5q0 -72 -41.5 -133t-102.5 -109q-55 -41 -107.5 -72
t-88.5 -49l1 -4q38 2 75.5 2t64.5 1q79 0 193 0.5t122 0.5v-105zM1044 411h-890v95h890v-95z" />
    <glyph glyph-name="onequarter" unicode="&#xbc;" horiz-adv-x="1200" 
d="M1044 411h-890v95h890v-95zM975 -205q-83 1 -131.5 1h-89.5q-2 -120 -1 -179.5t1 -68.5h-127q0 8 1 76t1 172h-367l-61 97l301.5 300l147.5 149l106 -48q-3 -120 -2.5 -243t0.5 -155h92t129 1v-102zM629 -104v289l-3 1l-281 -288l1 -2q17 0 48 -0.5t77 -0.5h63t95 1z
M688 607h-138q0 7 2 105.5t2 244.5q0 18 -0.5 131t-0.5 145l-4 2q-37 -22 -104 -70t-134 -90l-55 79q102 64 208 138.5l123 86.5l101 -51q-2 -88 -3 -204t-1 -138q0 -51 2 -207t2 -172z" />
    <glyph glyph-name="threequarters" unicode="&#xbe;" horiz-adv-x="1200" 
d="M1044 411h-890v95h890v-95zM903 846q0 -57 -41 -111.5t-119 -87.5q-65 -28 -167 -37t-211 -9q-13 0 -19 0.5t-10 0.5l-17 107h25t34 1q65 2 141 4t121 15q65 19 94 43t29 66q0 35 -26.5 56.5t-68.5 33.5q-28 8 -64 8.5t-83 0.5h-46.5h-28.5l-15 95q31 4 69.5 7t79.5 13
q59 14 95.5 35.5t36.5 66.5q0 38 -25 57.5t-67 30.5q-31 9 -89 12.5t-101 3.5h-40.5h-31.5l23 107h20h22q69 0 151 -6.5t139 -28.5q62 -21 102 -59.5t40 -97.5q0 -56 -44.5 -100t-102.5 -64v-2q85 -12 140 -52.5t55 -108.5zM985 -205q-83 1 -131.5 1h-89.5
q-2 -120 -1 -179.5t1 -68.5h-127q0 8 1 76t1 172h-367l-61 97l301.5 300l147.5 149l106 -48q-3 -120 -2.5 -243t0.5 -155h92t129 1v-102zM639 -104v289l-3 1l-281 -288l1 -2q17 0 48 -0.5t77 -0.5h63t95 1z" />
    <glyph glyph-name="a_macron" unicode="&#x101;" horiz-adv-x="1052" 
d="M878 570q0 -248 -1 -404t-1 -168q-10 -1 -93 -7.5t-214 -6.5q-82 0 -165 15t-143 43q-80 37 -129.5 101t-49.5 154q0 95 58.5 164.5t162.5 112.5q65 27 173.5 48.5t247.5 32.5q-6 78 -39 128t-97 76q-44 18 -98 25.5t-126 7.5q-45 0 -76.5 -2t-85.5 -5l16 133
q15 1 59.5 3.5t121.5 2.5q118 0 210.5 -24.5t153.5 -79.5q57 -52 86 -128.5t29 -221.5zM725 329v86t-1 120q-44 -2 -154 -17.5t-185 -44.5q-56 -21 -99.5 -63t-43.5 -104q0 -68 37 -109.5t101 -63.5q49 -17 108.5 -24.5t125.5 -7.5q20 0 49 1t61 2q0 7 0.5 66t0.5 159z
M839 1239q-11 0 -127.5 0.5t-196.5 0.5q-84 0 -201 -0.5t-129 -0.5v112q15 0 130.5 -0.5t194.5 -0.5q85 0 202 0.5t127 0.5v-112z" />
    <glyph glyph-name="a_breve" unicode="&#x103;" horiz-adv-x="1052" 
d="M878 570q0 -248 -1 -404t-1 -168q-10 -1 -93 -7.5t-214 -6.5q-82 0 -165 15t-143 43q-80 37 -129.5 101t-49.5 154q0 95 58.5 164.5t162.5 112.5q65 27 173.5 48.5t247.5 32.5q-6 78 -39 128t-97 76q-44 18 -98 25.5t-126 7.5q-45 0 -76.5 -2t-85.5 -5l16 133
q15 1 59.5 3.5t121.5 2.5q118 0 210.5 -24.5t153.5 -79.5q57 -52 86 -128.5t29 -221.5zM725 329v86t-1 120q-44 -2 -154 -17.5t-185 -44.5q-56 -21 -99.5 -63t-43.5 -104q0 -68 37 -109.5t101 -63.5q49 -17 108.5 -24.5t125.5 -7.5q20 0 49 1t61 2q0 7 0.5 66t0.5 159z
M835 1427q-29 -125 -111 -208t-211 -83t-211 83t-112 208l104 41q43 -126 95.5 -179.5t123.5 -53.5t123.5 53.5t93.5 180.5z" />
    <glyph glyph-name="a_ogonek" unicode="&#x105;" horiz-adv-x="1052" 
d="M725 329q0 89 -0.5 113.5t-0.5 92.5q-39 -2 -147.5 -16.5t-191.5 -45.5q-55 -20 -99 -63t-44 -104q0 -68 37.5 -110t100.5 -63q49 -17 109.5 -24.5t124.5 -7.5q20 0 49.5 1l60.5 2q0 6 0.5 65.5t0.5 159.5zM738 -12q-3 -20 -4 -37.5t-1 -28.5q0 -36 7.5 -58.5t20.5 -37.5
q19 -22 65.5 -37t124.5 -15l-43 -109q-69 0 -122.5 15t-86.5 38q-49 34 -68.5 81t-19.5 108q0 15 2 36t6 41h-24h-26q-81 0 -164.5 15t-143.5 43q-78 36 -128.5 100t-50.5 155q0 95 59 165t162 112q69 28 176 49t245 32q-6 77 -39 127.5t-97 76.5q-44 18 -98 25.5t-126 7.5
q-43 0 -76 -2l-86 -5l16 133q16 1 60.5 3.5t120.5 2.5q118 0 211 -24.5t153 -79.5q57 -52 86 -129t29 -221q0 -248 -1 -405t-1 -167q-5 0 -43 -3.5t-95 -6.5z" />
    <glyph glyph-name="c_acute" unicode="&#x107;" horiz-adv-x="930" 
d="M850 130l-12 -134h-25.5h-29.5q-129 0 -241 24.5t-201 72.5q-121 66 -189 175t-68 243q0 120 62 220.5t162 164.5q90 58 215.5 88.5t259.5 30.5h22.5h18.5l8 -134h-15.5h-15.5q-111 0 -189.5 -13.5t-152.5 -44.5q-99 -40 -157 -126t-58 -184q0 -117 54.5 -196.5
t144.5 -122.5q70 -34 158 -49t186 -15h36h27zM865 1363l-439 -232l-60 93l429 252z" />
    <glyph glyph-name="c_caron" unicode="&#x10d;" horiz-adv-x="930" 
d="M850 130l-12 -134h-25.5h-29.5q-129 0 -241 24.5t-201 72.5q-121 66 -189 175t-68 243q0 120 62 220.5t162 164.5q90 58 215.5 88.5t259.5 30.5h22.5h18.5l8 -134h-15.5h-15.5q-111 0 -189.5 -13.5t-152.5 -44.5q-99 -40 -157 -126t-58 -184q0 -117 54.5 -196.5
t144.5 -122.5q70 -34 158 -49t186 -15h36h27zM886 1399l-262 -289h-123l-261 289l89 68l233 -258h2l233 258z" />
    <glyph glyph-name="d_caron" unicode="&#x10f;" horiz-adv-x="1135" 
d="M952 -16q-6 0 -38 -0.5t-51 -0.5q-189 0 -296 16.5t-209 65.5q-133 64 -202 170t-69 236q0 152 77 269.5t222 183.5q85 40 195 60.5t216 20.5l-3 461h158q0 -20 -2 -280t-2 -527q0 -211 1.5 -381.5zM797 687v88v97q-100 0 -188.5 -17t-151.5 -46q-100 -46 -155 -131.5
t-55 -200.5q0 -103 53 -177t132 -116q69 -37 155.5 -55.5t181.5 -18.5h13h13q0 9 1 149.5t1 427.5zM1335 1414l-201 -369l-96 44l178 387z" />
    <glyph glyph-name="d_bar.croat" unicode="&#x111;" horiz-adv-x="1135" 
d="M1163 1158q-5 0 -68.5 1t-145.5 1q0 -102 -0.5 -233.5t-0.5 -267.5q0 -211 1.5 -381.5l2.5 -293.5q-7 0 -38.5 -0.5t-50.5 -0.5q-189 0 -296 16.5t-209 65.5q-133 64 -202 170t-69 236q0 152 77 269.5t222 183.5q85 40 195 59t216 19v158q-75 0 -180.5 -1t-115.5 -1v94
q7 0 107.5 -1t188.5 -1l-2 216h156q0 -11 -0.5 -64.5t-0.5 -151.5q73 0 139 1t74 1v-94zM797 687v88v94q-100 0 -188 -15.5t-151 -44.5q-100 -46 -155.5 -131.5t-55.5 -200.5q0 -103 53 -177t132 -116q69 -37 155.5 -55.5t181.5 -18.5h13h13q0 9 1 149.5t1 427.5z" />
    <glyph glyph-name="eth" unicode="&#xf0;" horiz-adv-x="1128" 
d="M1029 447q0 -107 -34 -191t-92 -140q-76 -74 -154.5 -108t-187.5 -34q-102 0 -181.5 32t-144.5 96q-65 63 -102 152.5t-37 190.5q0 118 66.5 223.5t189.5 174.5q78 44 148 68.5t130 42.5v3q-25 26 -68.5 75l-102.5 112l-93 -80l-96 -82l-58 70l97 76.5l93 75.5
l-79.5 84.5l-89.5 89.5l106 90l80.5 -87.5l84.5 -91.5l126.5 108t59.5 53l59 -70q-16 -12 -58 -46l-132 -106l106 -116t140 -162q119 -141 171.5 -257t52.5 -246zM870 447q0 108 -42.5 210t-122.5 192q-44 -9 -104 -28t-125 -50q-92 -44 -156.5 -132.5t-64.5 -200.5
q0 -74 23 -138.5t73 -115.5q43 -42 89.5 -64.5t124.5 -22.5q64 0 116 21.5t97 65.5q47 46 69.5 115t22.5 148z" />
    <glyph glyph-name="e_macron" unicode="&#x113;" horiz-adv-x="1044" 
d="M963 543h-723q1 -106 45 -194.5t135 -146.5q58 -37 132 -55.5t178 -18.5q57 0 104.5 3t58.5 4l-18 -133q-8 -1 -53 -3.5t-106 -2.5q-160 0 -278.5 41.5t-194.5 114.5q-65 61 -110.5 156t-45.5 211q0 114 34 206t102 171q59 68 146.5 105t181.5 37q93 0 165 -28t125 -85
q59 -64 90 -157.5t32 -224.5zM808 655q-16 124 -84.5 194.5t-180.5 70.5t-187 -71.5t-104 -193.5h556zM889 1239q-11 0 -127.5 0.5t-196.5 0.5q-84 0 -201 -0.5t-129 -0.5v112q15 0 130.5 -0.5t194.5 -0.5q85 0 202 0.5t127 0.5v-112z" />
    <glyph glyph-name="e_dot.accent" unicode="&#x117;" horiz-adv-x="1044" 
d="M963 543h-723q1 -106 45 -194.5t135 -146.5q58 -37 132 -55.5t178 -18.5q57 0 104.5 3t58.5 4l-18 -133q-8 -1 -53 -3.5t-106 -2.5q-160 0 -278.5 41.5t-194.5 114.5q-65 61 -110.5 156t-45.5 211q0 114 34 206t102 171q59 68 146.5 105t181.5 37q93 0 165 -28t125 -85
q59 -64 90 -157.5t32 -224.5zM808 655q-16 124 -84.5 194.5t-180.5 70.5t-187 -71.5t-104 -193.5h556zM636 1206h-171v170h171v-170z" />
    <glyph glyph-name="e_ogonek" unicode="&#x119;" horiz-adv-x="1044" 
d="M808 655q-15 123 -84 194t-181 71q-114 0 -188 -72t-103 -193h556zM580 5q-4 -24 -6 -46t-2 -37q0 -35 6.5 -57.5t21.5 -38.5q19 -22 65 -37t125 -15l-43 -109q-70 0 -123 15t-86 38q-51 36 -69.5 83.5t-18.5 105.5q0 25 5 58.5t11 62.5q-66 20 -123.5 51.5t-99.5 72.5
q-64 60 -110 155.5t-46 211.5q0 112 35.5 207.5t100.5 170.5q57 66 146 103.5t182 37.5t166 -29t124 -84q59 -64 90.5 -158t31.5 -224h-723q0 -106 45 -195t135 -146q58 -37 132.5 -55.5t177.5 -18.5q57 0 105 3.5t58 3.5l-18 -133q-7 0 -52.5 -3t-106.5 -3q-35 0 -69.5 2
t-66.5 7z" />
    <glyph glyph-name="e_caron" unicode="&#x11b;" horiz-adv-x="1044" 
d="M963 543h-723q1 -106 45 -194.5t135 -146.5q58 -37 132 -55.5t178 -18.5q57 0 104.5 3t58.5 4l-18 -133q-8 -1 -53 -3.5t-106 -2.5q-160 0 -278.5 41.5t-194.5 114.5q-65 61 -110.5 156t-45.5 211q0 114 34 206t102 171q59 68 146.5 105t181.5 37q93 0 165 -28t125 -85
q59 -64 90 -157.5t32 -224.5zM808 655q-16 124 -84.5 194.5t-180.5 70.5t-187 -71.5t-104 -193.5h556zM876 1399l-262 -289h-123l-261 289l89 68l233 -258h2l233 258z" />
    <glyph glyph-name="g_breve" unicode="&#x11f;" horiz-adv-x="1128" 
d="M948 1021q0 -22 -1.5 -198t-1.5 -335q0 -108 1 -220t1 -205q0 -171 -58.5 -268t-166.5 -155q-85 -44 -207 -69.5t-296 -25.5l-16 127q117 2 210 12.5t169 38.5q117 44 163 116.5t48 176.5h-24h-24q-119 0 -245 28.5t-215 90.5q-88 59 -143 154t-55 235t77 247t206 170
q92 45 200.5 62.5t262.5 17.5h55.5h59.5zM795 489q0 72 -0.5 180t-2.5 225h-13h-13q-93 0 -162.5 -12t-146.5 -45q-102 -44 -156 -129t-54 -192q0 -110 53.5 -188t143.5 -121q61 -29 141.5 -47t170.5 -18h20h17q0 12 1 111.5t1 235.5zM941 1427q-29 -125 -111 -208t-211 -83
t-211 83t-112 208l104 41q43 -126 95.5 -179.5t123.5 -53.5t123.5 53.5t93.5 180.5z" />
    <glyph glyph-name="g_comma.accent" unicode="&#x123;" horiz-adv-x="1128" 
d="M948 1021q0 -22 -1.5 -198t-1.5 -335q0 -108 1 -220t1 -205q0 -171 -58.5 -268t-166.5 -155q-85 -44 -207 -69.5t-296 -25.5l-16 127q117 2 210 12.5t169 38.5q117 44 163 116.5t48 176.5h-24h-24q-119 0 -245 28.5t-215 90.5q-88 59 -143 154t-55 235t77 247t206 170
q92 45 200.5 62.5t262.5 17.5h55.5h59.5zM795 489q0 72 -0.5 180t-2.5 225h-13h-13q-93 0 -162.5 -12t-146.5 -45q-102 -44 -156 -129t-54 -192q0 -110 53.5 -188t143.5 -121q61 -29 141.5 -47t170.5 -18h20h17q0 12 1 111.5t1 235.5zM953 1363l-439 -232l-60 93l429 252z
" />
    <glyph glyph-name="g_comma.accent" unicode="&#x1f5;" horiz-adv-x="1128" 
d="M948 1021q0 -22 -1.5 -198t-1.5 -335q0 -108 1 -220t1 -205q0 -171 -58.5 -268t-166.5 -155q-85 -44 -207 -69.5t-296 -25.5l-16 127q117 2 210 12.5t169 38.5q117 44 163 116.5t48 176.5h-24h-24q-119 0 -245 28.5t-215 90.5q-88 59 -143 154t-55 235t77 247t206 170
q92 45 200.5 62.5t262.5 17.5h55.5h59.5zM795 489q0 72 -0.5 180t-2.5 225h-13h-13q-93 0 -162.5 -12t-146.5 -45q-102 -44 -156 -129t-54 -192q0 -110 53.5 -188t143.5 -121q61 -29 141.5 -47t170.5 -18h20h17q0 12 1 111.5t1 235.5zM953 1363l-439 -232l-60 93l429 252z
" />
    <glyph glyph-name="g_cedilla" horiz-adv-x="1128" 
d="M948 1021q0 -22 -1.5 -198t-1.5 -335q0 -108 1 -220t1 -205q0 -171 -58.5 -268t-166.5 -155q-85 -44 -207 -69.5t-296 -25.5l-16 127q117 2 210 12.5t169 38.5q117 44 163 116.5t48 176.5h-24h-24q-119 0 -245 28.5t-215 90.5q-88 59 -143 154t-55 235t77 247t206 170
q92 45 200.5 62.5t262.5 17.5h55.5h59.5zM795 489q0 72 -0.5 180t-2.5 225h-13h-13q-93 0 -162.5 -12t-146.5 -45q-102 -44 -156 -129t-54 -192q0 -110 53.5 -188t143.5 -121q61 -29 141.5 -47t170.5 -18h20h17q0 12 1 111.5t1 235.5zM797 -528l-352 -275l-75 81l338 293z
" />
    <glyph glyph-name="i_macron" unicode="&#x12b;" horiz-adv-x="545" 
d="M352 0h-158q1 16 2.5 197t1.5 299q0 103 -0.5 226.5t-3.5 289.5h158q-2 -144 -3.5 -269.5t-1.5 -223.5q0 -233 2.5 -374t2.5 -145zM546 1239q-11 0 -109.5 0.5t-162.5 0.5q-67 0 -165.5 -0.5t-110.5 -0.5v112q15 0 112 -0.5t160 -0.5q68 0 167 0.5t109 0.5v-112z" />
    <glyph glyph-name="i_turk" horiz-adv-x="545" 
d="M361 1206h-176v172h176v-172zM352 0h-158q1 16 2.5 197t1.5 299q0 103 -0.5 226.5t-3.5 289.5h158q-2 -144 -3.5 -269.5t-1.5 -223.5q0 -233 2.5 -374t2.5 -145z" />
    <glyph glyph-name="i_ogonek" unicode="&#x12f;" horiz-adv-x="545" 
d="M361 1206h-176v172h176v-172zM194 0q1 16 2.5 197t1.5 299q0 103 -0.5 226.5t-3.5 289.5h158q-2 -144 -3.5 -269.5t-1.5 -223.5q0 -233 2.5 -374t2.5 -145h-39q-3 -24 -5 -43.5t-2 -34.5q0 -35 7 -57.5t21 -38.5q19 -22 65 -37t125 -15l-43 -109q-70 0 -123 15t-86 38
q-51 36 -69.5 83.5t-18.5 105.5q0 25 3 45z" />
    <glyph glyph-name="i.dotless.2" horiz-adv-x="545" 
d="M352 0h-158q1 16 2.5 197t1.5 299q0 103 -0.5 226.5t-3.5 289.5h158q-2 -144 -3.5 -269.5t-1.5 -223.5q0 -233 2.5 -374t2.5 -145z" />
    <glyph glyph-name="k_cedilla" unicode="&#x137;" horiz-adv-x="1075" 
d="M341 0q0 -82 -34 -161t-110 -120q-31 -17 -87.5 -36t-122.5 -23l-18 109q75 4 123.5 21.5t69.5 38.5q29 28 44.5 65.5t15.5 105.5h-39q1 18 2.5 270t1.5 516q0 113 -0.5 285t-3.5 395h158q-3 -177 -3.5 -411t-0.5 -278q0 -103 2 -431.5t2 -345.5zM1057 20l-95 -87
l-394.5 392l-191.5 184v2q24 22 210 212.5l301 312.5l97 -100l-249.5 -242.5l-163.5 -159.5v-1l146.5 -154z" />
    <glyph glyph-name="k_comma.accent" horiz-adv-x="1075" 
d="M341 0h-158q1 18 2.5 270t1.5 516q0 113 -0.5 285t-3.5 395h158q-3 -177 -3.5 -411t-0.5 -278q0 -103 2 -431.5t2 -345.5zM1057 20l-95 -87l-394.5 392l-191.5 184v2q24 22 210 212.5l301 312.5l97 -100l-249.5 -242.5l-163.5 -159.5v-1l146.5 -154zM757 -160l-352 -275
l-75 81l338 293z" />
    <glyph glyph-name="l_acute" unicode="&#x13a;" horiz-adv-x="546" 
d="M546 1786l-374 -238l-62 93l359 255zM352 0h-158q1 12 2.5 292.5t1.5 465.5q0 119 -0.5 300.5t-3.5 407.5h158q-2 -154 -3 -356.5t-1 -341.5q0 -303 2 -530t2 -238z" />
    <glyph glyph-name="l_cedilla" unicode="&#x13c;" horiz-adv-x="546" 
d="M352 0q0 -82 -34 -160.5t-110 -120.5q-31 -17 -87.5 -36t-122.5 -23l-18 109q75 4 123.5 21.5t69.5 38.5q29 28 44.5 65.5t15.5 105.5h-39q1 12 2.5 292.5t1.5 465.5q0 119 -0.5 300.5t-3.5 407.5h158q-2 -154 -3 -356.5t-1 -341.5q0 -303 2 -530t2 -238z" />
    <glyph glyph-name="l_caron" unicode="&#x13e;" horiz-adv-x="546" 
d="M352 0h-158q1 12 2.5 292.5t1.5 465.5q0 119 -0.5 300.5t-3.5 407.5h158q-2 -154 -3 -356.5t-1 -341.5q0 -303 2 -530t2 -238zM726 1414l-201 -369l-96 44l178 387z" />
    <glyph glyph-name="l_dot.accent" unicode="&#x140;" horiz-adv-x="662" 
d="M352 0h-158q1 12 2.5 292.5t1.5 465.5q0 119 -0.5 300.5t-3.5 407.5h158q-2 -154 -3 -356.5t-1 -341.5q0 -303 2 -530t2 -238zM689 450h-171v170h171v-170z" />
    <glyph glyph-name="l_slash" unicode="&#x142;" horiz-adv-x="546" 
d="M348 803l137 68l62 32l46 -94q-8 -4 -82 -36.5l-163 -72.5q0 -281 2 -486.5t2 -213.5h-158q0 7 2 223.5t2 410.5q-62 -29 -117.5 -58l-67.5 -35l-47 93q14 7 86.5 40l145.5 67q0 115 -0.5 302t-3.5 423h158q0 -145 -2 -335t-2 -328z" />
    <glyph glyph-name="l_comma.accent" horiz-adv-x="546" 
d="M352 0h-158q1 12 2.5 292.5t1.5 465.5q0 119 -0.5 300.5t-3.5 407.5h158q-2 -154 -3 -356.5t-1 -341.5q0 -303 2 -530t2 -238zM487 -160l-352 -275l-75 81l338 293z" />
    <glyph glyph-name="n_acute" unicode="&#x144;" horiz-adv-x="1190" 
d="M1013 0h-158q1 28 2.5 185t1.5 194q0 52 -0.5 153.5t-1.5 148.5q-3 115 -44 165t-142 50q-61 0 -151 -36t-182 -92q0 -11 -1 -119t-1 -197q0 -116 2.5 -280t2.5 -172h-158q0 7 2 122.5t2 343.5q0 105 -0.5 246t-3.5 300h156l-1 -115l1 -2q140 80 233.5 111.5t155.5 31.5
q128 0 205.5 -80.5t77.5 -220.5q0 -126 -1.5 -217.5t-1.5 -148.5q0 -91 2.5 -227.5t2.5 -143.5zM933 1363l-439 -232l-60 93l429 252z" />
    <glyph glyph-name="n_cedilla" unicode="&#x146;" horiz-adv-x="1190" 
d="M1013 0h-158q1 28 2.5 185t1.5 194q0 52 -0.5 153.5t-1.5 148.5q-3 115 -44 165t-142 50q-61 0 -151 -36t-182 -92q0 -11 -1 -119t-1 -197q0 -116 2.5 -280t2.5 -172q0 -82 -34 -160.5t-110 -120.5q-31 -17 -87.5 -36t-122.5 -23l-18 109q75 4 123.5 21.5t69.5 38.5
q29 28 44.5 65.5t15.5 105.5h-39q0 7 2 122.5t2 343.5q0 105 -0.5 246t-3.5 300h156l-1 -115l1 -2q140 80 233.5 111.5t155.5 31.5q128 0 205.5 -80.5t77.5 -220.5q0 -126 -1.5 -217.5t-1.5 -148.5q0 -91 2.5 -227.5t2.5 -143.5z" />
    <glyph glyph-name="n_caron" unicode="&#x148;" horiz-adv-x="1190" 
d="M1013 0h-158q1 28 2.5 185t1.5 194q0 52 -0.5 153.5t-1.5 148.5q-3 115 -44 165t-142 50q-61 0 -151 -36t-182 -92q0 -11 -1 -119t-1 -197q0 -116 2.5 -280t2.5 -172h-158q0 7 2 122.5t2 343.5q0 105 -0.5 246t-3.5 300h156l-1 -115l1 -2q140 80 233.5 111.5t155.5 31.5
q128 0 205.5 -80.5t77.5 -220.5q0 -126 -1.5 -217.5t-1.5 -148.5q0 -91 2.5 -227.5t2.5 -143.5zM928 1399l-262 -289h-123l-261 289l89 68l233 -258h2l233 258z" />
    <glyph glyph-name="n_comma.accent" unicode="&#x149;" horiz-adv-x="1190" 
d="M1013 0h-158q1 28 2.5 185t1.5 194q0 52 -0.5 153.5t-1.5 148.5q-3 115 -44 165t-142 50q-61 0 -151 -36t-182 -92q0 -11 -1 -119t-1 -197q0 -116 2.5 -280t2.5 -172h-158q0 7 2 122.5t2 343.5q0 105 -0.5 246t-3.5 300h156l-1 -115l1 -2q140 80 233.5 111.5t155.5 31.5
q128 0 205.5 -80.5t77.5 -220.5q0 -126 -1.5 -217.5t-1.5 -148.5q0 -91 2.5 -227.5t2.5 -143.5zM764 -160l-352 -275l-75 81l338 293z" />
    <glyph glyph-name="o_macron" unicode="&#x14d;" horiz-adv-x="1165" 
d="M1072 506q0 -116 -41.5 -222t-119.5 -181q-66 -63 -146.5 -96t-182.5 -33q-96 0 -180 32.5t-150 95.5q-76 73 -117.5 180t-41.5 226q0 115 35.5 211.5t110.5 173.5q67 70 156 107.5t188 37.5q104 0 188.5 -34.5t150.5 -103.5q76 -79 113 -177.5t37 -216.5zM912 499
q0 94 -30.5 183t-94.5 150q-39 38 -92.5 58.5t-111.5 20.5q-69 0 -120 -22t-96 -69q-53 -54 -83.5 -138t-30.5 -174q0 -102 31 -187.5t100 -147.5q39 -35 90 -53.5t108 -18.5q63 0 117.5 22t95.5 64q57 58 87 140t30 172zM910 1239q-11 0 -127.5 0.5t-196.5 0.5
q-84 0 -201 -0.5t-129 -0.5v112q15 0 130.5 -0.5t194.5 -0.5q85 0 202 0.5t127 0.5v-112z" />
    <glyph glyph-name="o_umlaut.hungarian" unicode="&#x151;" horiz-adv-x="1165" 
d="M1072 506q0 -116 -41.5 -222t-119.5 -181q-66 -63 -146.5 -96t-182.5 -33q-96 0 -180 32.5t-150 95.5q-76 73 -117.5 180t-41.5 226q0 115 35.5 211.5t110.5 173.5q67 70 156 107.5t188 37.5q104 0 188.5 -34.5t150.5 -103.5q76 -79 113 -177.5t37 -216.5zM912 499
q0 94 -30.5 183t-94.5 150q-39 38 -92.5 58.5t-111.5 20.5q-69 0 -120 -22t-96 -69q-53 -54 -83.5 -138t-30.5 -174q0 -102 31 -187.5t100 -147.5q39 -35 90 -53.5t108 -18.5q63 0 117.5 22t95.5 64q57 58 87 140t30 172zM738 1399l-286 -273l-78 66l266 288zM1046 1396
l-286 -273l-78 66l266 288z" />
    <glyph glyph-name="r_acute" unicode="&#x155;" horiz-adv-x="788" 
d="M768 894q-55 -13 -168.5 -55t-261.5 -112q0 -11 -1 -100.5t-1 -166.5q0 -118 2.5 -280t2.5 -180h-158q0 17 2 112t2 325q0 93 -1 260t-3 315h155v-152l1 -1q113 64 223 111t176 64zM733 1363l-439 -232l-60 93l429 252z" />
    <glyph glyph-name="r_cedilla" unicode="&#x157;" horiz-adv-x="788" 
d="M768 894q-55 -13 -168.5 -55t-261.5 -112q0 -11 -1 -100.5t-1 -166.5q0 -118 2.5 -280t2.5 -180q0 -82 -34 -160.5t-110 -120.5q-31 -17 -87.5 -36t-122.5 -23l-18 109q75 4 123.5 21.5t69.5 38.5q29 28 44.5 65.5t15.5 105.5h-39q0 17 2 112t2 325q0 93 -1 260t-3 315
h155v-152l1 -1q113 64 223 111t176 64z" />
    <glyph glyph-name="r_caron" unicode="&#x159;" horiz-adv-x="788" 
d="M768 894q-55 -13 -168.5 -55t-261.5 -112q0 -11 -1 -100.5t-1 -166.5q0 -118 2.5 -280t2.5 -180h-158q0 17 2 112t2 325q0 93 -1 260t-3 315h155v-152l1 -1q113 64 223 111t176 64zM746 1399l-262 -289h-123l-261 289l89 68l233 -258h2l233 258z" />
    <glyph glyph-name="r_comma.accent" horiz-adv-x="788" 
d="M768 894q-55 -13 -168.5 -55t-261.5 -112q0 -11 -1 -100.5t-1 -166.5q0 -118 2.5 -280t2.5 -180h-158q0 17 2 112t2 325q0 93 -1 260t-3 315h155v-152l1 -1q113 64 223 111t176 64zM617 -160l-352 -275l-75 81l338 293z" />
    <glyph glyph-name="s_acute" unicode="&#x15b;" horiz-adv-x="833" 
d="M733 293q0 -74 -36 -132t-94 -94q-61 -38 -144.5 -57.5t-184.5 -19.5q-49 0 -101.5 4.5t-59.5 5.5l-6 131q9 -1 69.5 -5.5t120.5 -4.5q35 0 90 6t91 22q50 22 74 54t24 77q0 41 -21 66.5t-58 49.5q-40 27 -109.5 57.5t-116.5 58.5q-67 41 -102.5 97t-35.5 130t40.5 133
t108.5 95q59 32 130.5 42.5t138.5 10.5q61 0 100 -2t45 -2l11 -133q-7 0 -61.5 4t-119.5 4q-46 0 -87.5 -8t-70.5 -23q-43 -22 -61.5 -53t-18.5 -60q0 -40 26 -69t61 -49q41 -24 112 -57t103 -53q70 -44 106.5 -98t36.5 -128zM756 1363l-439 -232l-60 93l429 252z" />
    <glyph glyph-name="s_cedilla" unicode="&#x15f;" horiz-adv-x="833" 
d="M733 293q0 -74 -36 -132t-94 -94q-19 -12 -40 -22.5t-44 -17.5q0 -121 -33.5 -199.5t-109.5 -120.5q-31 -17 -87 -36t-122 -23l-18 109q75 4 123 21.5t69 38.5q31 30 45 72t14 110q-29 -5 -60.5 -7t-65.5 -2q-49 0 -101.5 4.5t-59.5 5.5l-6 131q9 -1 69.5 -5.5
t120.5 -4.5q35 0 90 6t91 22q50 22 74 54t24 77q0 41 -21 66.5t-58 49.5q-40 27 -109.5 57.5t-116.5 58.5q-67 41 -102.5 97t-35.5 130t40.5 133t108.5 95q59 32 130.5 42.5t138.5 10.5q61 0 100 -2t45 -2l11 -133q-7 0 -61.5 4t-119.5 4q-46 0 -87.5 -8t-70.5 -23
q-43 -22 -61.5 -53t-18.5 -60q0 -40 26 -69t61 -49q41 -24 112 -57t103 -53q70 -44 106.5 -98t36.5 -128z" />
    <glyph glyph-name="s_comma.accent" unicode="&#x219;" horiz-adv-x="833" 
d="M733 293q0 -74 -36 -132t-94 -94q-61 -38 -144.5 -57.5t-184.5 -19.5q-49 0 -101.5 4.5t-59.5 5.5l-6 131q9 -1 69.5 -5.5t120.5 -4.5q35 0 90 6t91 22q50 22 74 54t24 77q0 41 -21 66.5t-58 49.5q-40 27 -109.5 57.5t-116.5 58.5q-67 41 -102.5 97t-35.5 130t40.5 133
t108.5 95q59 32 130.5 42.5t138.5 10.5q61 0 100 -2t45 -2l11 -133q-7 0 -61.5 4t-119.5 4q-46 0 -87.5 -8t-70.5 -23q-43 -22 -61.5 -53t-18.5 -60q0 -40 26 -69t61 -49q41 -24 112 -57t103 -53q70 -44 106.5 -98t36.5 -128zM617 -160l-352 -275l-75 81l338 293z" />
    <glyph glyph-name="s_caron" unicode="&#x161;" horiz-adv-x="833" 
d="M733 293q0 -74 -36 -132t-94 -94q-61 -38 -144.5 -57.5t-184.5 -19.5q-49 0 -101.5 4.5t-59.5 5.5l-6 131q9 -1 69.5 -5.5t120.5 -4.5q35 0 90 6t91 22q50 22 74 54t24 77q0 41 -21 66.5t-58 49.5q-40 27 -109.5 57.5t-116.5 58.5q-67 41 -102.5 97t-35.5 130t40.5 133
t108.5 95q59 32 130.5 42.5t138.5 10.5q61 0 100 -2t45 -2l11 -133q-7 0 -61.5 4t-119.5 4q-46 0 -87.5 -8t-70.5 -23q-43 -22 -61.5 -53t-18.5 -60q0 -40 26 -69t61 -49q41 -24 112 -57t103 -53q70 -44 106.5 -98t36.5 -128zM781 1399l-262 -289h-123l-261 289l89 68
l233 -258h2l233 258z" />
    <glyph glyph-name="t_cedilla" unicode="&#x163;" horiz-adv-x="803" 
d="M733 24q0 -106 -34 -185t-110 -120q-31 -17 -87.5 -36t-122.5 -23l-18 109q75 4 123.5 22t69.5 39q29 28 45 68t16 97q-194 0 -295.5 88t-101.5 259q0 111 1.5 238t1.5 315h-168v117h177v237h145v-237h358v-117h-358q0 -9 -1.5 -119t-1.5 -160v-103v-145
q0 -130 70 -187.5t216 -57.5q18 0 43 0.5t32 0.5v-100z" />
    <glyph glyph-name="t_comma.accent" unicode="&#x21b;" horiz-adv-x="803" 
d="M733 124l-18 -127q-7 -1 -34.5 -2t-47.5 -1q-205 0 -310 85.5t-105 262.5q0 111 1.5 238t1.5 315h-168v117h177v237h145v-237h358v-117h-358q0 -21 -1.5 -125t-1.5 -154v-103v-145q0 -130 70 -187.5t216 -57.5q18 0 43 0.5t32 0.5zM707 -160l-352 -275l-75 81l338 293z
" />
    <glyph glyph-name="t_caron" unicode="&#x165;" horiz-adv-x="803" 
d="M733 124l-18 -127q-7 -1 -34.5 -2t-47.5 -1q-205 0 -310 85.5t-105 262.5q0 111 1.5 238t1.5 315h-168v117h177v237h145v-237h358v-117h-358q0 -21 -1.5 -125t-1.5 -154v-103v-145q0 -130 70 -187.5t216 -57.5q18 0 43 0.5t32 0.5zM758 1414l-186 -335l-101 48l170 349z
" />
    <glyph glyph-name="u_ring" unicode="&#x16f;" horiz-adv-x="1190" 
d="M1007 0h-153v116l-1 1q-70 -46 -174.5 -94.5t-205.5 -48.5q-138 0 -216 82t-78 230q0 80 1.5 190.5t1.5 160.5q0 91 -2.5 224.5t-2.5 150.5h158q0 -13 -2 -144t-2 -209q0 -69 1 -172t1 -146q2 -118 41 -173t126 -55q89 0 195.5 48t156.5 84q0 12 1 110.5t1 245.5
q0 105 -2.5 251.5t-2.5 159.5h158q0 -17 -2 -112.5t-2 -325.5q0 -129 1 -226.5t3 -347.5zM790 1279q0 -79 -57 -134.5t-137 -55.5t-135 55t-55 135q0 82 57 136t135 54t135 -54.5t57 -135.5zM702 1280q0 45 -29.5 75t-73.5 30q-45 0 -75 -29.5t-30 -75.5q0 -47 30.5 -77
t74.5 -30t73.5 31t29.5 76z" />
    <glyph glyph-name="u_macron" unicode="&#x16b;" horiz-adv-x="1190" 
d="M1007 0h-153v116l-1 1q-70 -46 -174.5 -94.5t-205.5 -48.5q-138 0 -216 82t-78 230q0 80 1.5 190.5t1.5 160.5q0 91 -2.5 224.5t-2.5 150.5h158q0 -13 -2 -144t-2 -209q0 -69 1 -172t1 -146q2 -118 41 -173t126 -55q89 0 195.5 48t156.5 84q0 12 1 110.5t1 245.5
q0 105 -2.5 251.5t-2.5 159.5h158q0 -17 -2 -112.5t-2 -325.5q0 -129 1 -226.5t3 -347.5zM928 1239q-11 0 -127.5 0.5t-196.5 0.5q-84 0 -201 -0.5t-129 -0.5v112q15 0 130.5 -0.5t194.5 -0.5q85 0 202 0.5t127 0.5v-112z" />
    <glyph glyph-name="u_ogonek" unicode="&#x173;" horiz-adv-x="1190" 
d="M854 0v116l-1 1q-70 -46 -174.5 -94.5t-205.5 -48.5q-138 0 -216 82t-78 230q0 80 1.5 190.5t1.5 160.5q0 91 -2.5 224.5t-2.5 150.5h158q0 -13 -2 -144t-2 -209q0 -69 1 -172t1 -146q2 -118 41 -173t126 -55q89 0 195.5 48t156.5 84q0 12 1 110.5t1 245.5
q0 105 -2.5 251.5t-2.5 159.5h158q0 -17 -2 -112.5t-2 -325.5q0 -129 1 -226.5t3 -347.5h-34q-3 -24 -5 -43.5t-2 -34.5q0 -35 6.5 -57.5t21.5 -38.5q19 -22 65 -37t125 -15l-43 -109q-70 0 -123 16.5t-86 36.5q-51 32 -70 81.5t-19 107.5q0 25 3.5 44.5t7.5 48.5z" />
    <glyph glyph-name="u_umlaut.hungarian" unicode="&#x171;" horiz-adv-x="1190" 
d="M1007 0h-153v116l-1 1q-70 -46 -174.5 -94.5t-205.5 -48.5q-138 0 -216 82t-78 230q0 80 1.5 190.5t1.5 160.5q0 91 -2.5 224.5t-2.5 150.5h158q0 -13 -2 -144t-2 -209q0 -69 1 -172t1 -146q2 -118 41 -173t126 -55q89 0 195.5 48t156.5 84q0 12 1 110.5t1 245.5
q0 105 -2.5 251.5t-2.5 159.5h158q0 -17 -2 -112.5t-2 -325.5q0 -129 1 -226.5t3 -347.5zM728 1399l-286 -273l-78 66l266 288zM1036 1396l-286 -273l-78 66l266 288z" />
    <glyph glyph-name="y_acute" unicode="&#xfd;" horiz-adv-x="1096" 
d="M1039 971l-410.5 -913.5l-229.5 -514.5l-138 51l207 429q-8 20 -125.5 292l-286.5 650l150 65l224 -549.5l120 -285.5h2q6 10 114 266l236 565zM917 1363l-439 -232l-60 93l429 252z" />
    <glyph glyph-name="z_acute" unicode="&#x17a;" horiz-adv-x="977" 
d="M911 6q-5 0 -168.5 0.5t-241.5 0.5q-100 0 -241.5 -0.5t-148.5 -0.5l-33 94l264.5 340.5l336.5 436.5l-1 2q-43 0 -87.5 0.5t-85.5 0.5q-96 0 -244.5 -1.5t-156.5 -1.5v125q9 0 163 -0.5t189 -0.5q70 0 217.5 0.5t160.5 0.5l51 -94l-368 -471.5l-231 -301.5l1 -2
q38 0 99.5 -0.5t132.5 -0.5q202 0 294 1.5t98 1.5v-129zM803 1363l-439 -232l-60 93l429 252z" />
    <glyph glyph-name="z_dot.accent" unicode="&#x17c;" horiz-adv-x="977" 
d="M911 6q-5 0 -168.5 0.5t-241.5 0.5q-100 0 -241.5 -0.5t-148.5 -0.5l-33 94l264.5 340.5l336.5 436.5l-1 2q-43 0 -87.5 0.5t-85.5 0.5q-96 0 -244.5 -1.5t-156.5 -1.5v125q9 0 163 -0.5t189 -0.5q70 0 217.5 0.5t160.5 0.5l51 -94l-368 -471.5l-231 -301.5l1 -2
q38 0 99.5 -0.5t132.5 -0.5q202 0 294 1.5t98 1.5v-129zM578 1206h-171v170h171v-170z" />
    <glyph glyph-name="z_caron" unicode="&#x17e;" horiz-adv-x="977" 
d="M911 6q-5 0 -168.5 0.5t-241.5 0.5q-100 0 -241.5 -0.5t-148.5 -0.5l-33 94l264.5 340.5l336.5 436.5l-1 2q-43 0 -87.5 0.5t-85.5 0.5q-96 0 -244.5 -1.5t-156.5 -1.5v125q9 0 163 -0.5t189 -0.5q70 0 217.5 0.5t160.5 0.5l51 -94l-368 -471.5l-231 -301.5l1 -2
q38 0 99.5 -0.5t132.5 -0.5q202 0 294 1.5t98 1.5v-129zM816 1399l-262 -289h-123l-261 289l89 68l233 -258h2l233 258z" />
    <glyph glyph-name="thorn" unicode="&#xfe;" horiz-adv-x="1136" 
d="M1049 537q0 -155 -69 -263.5t-186 -171.5q-102 -54 -224 -76t-232 -22l4 -459h-159q0 23 2 265.5t2 691.5q0 212 -1 485t-3 479h158l-3 -445q180 -1 290.5 -23t203.5 -77q101 -59 159 -157.5t58 -226.5zM889 532q0 98 -46 172t-120 117q-67 38 -152.5 55.5t-185.5 17.5
h-22h-23q0 -20 -1.5 -159.5t-1.5 -259.5q0 -52 0.5 -170t0.5 -176q94 0 188 17.5t155 47.5q102 50 155 133t53 205z" />
    <glyph glyph-name="A_V" horiz-adv-x="1954" 
d="M918 605l-114 255l-126 278h-4l-123 -270.5l-119 -262.5l1 -1h484zM1937 1292l-173 -382l-423 -930h-141l-219 497h-604l-163.5 -361t-63.5 -143l-134 72q26 52 215 458.5l392 854.5h137l211 -471l311 -689h4l313 705t199 461z" />
    <glyph glyph-name="C_A" horiz-adv-x="2383" 
d="M1942 605l-114 255l-126 278h-4l-123 -270.5l-119 -262.5l1 -1h484zM1648 1358h130l392.5 -866.5l201.5 -438.5l-156 -80l-64.5 153l-152.5 351h-598l-156.5 -349l-61.5 -138q-14 -1 -40 -2t-56 -1q-261 0 -450.5 58.5t-311.5 176.5q-85 81 -134.5 194t-49.5 258
q0 130 49 237.5t128 187.5q115 116 309 184t415 68h22h23q2 -21 4 -58t7 -85h-17h-17q-125 0 -258.5 -27t-231.5 -83q-126 -72 -194 -184.5t-68 -242.5q0 -135 61 -245.5t193 -185.5q103 -59 234.5 -88t278.5 -29l173.5 373z" />
    <glyph glyph-name="C_C" horiz-adv-x="1260" 
d="M1115 432l-9 -127h-13.5h-16.5q-87 0 -168.5 16t-141.5 49q-87 48 -136 127.5t-49 173.5q0 87 45.5 159t115.5 119q66 42 156.5 62t177.5 20h11.5h9.5l8 -127h-7.5h-8.5q-79 0 -123 -5.5t-103 -29.5q-65 -27 -102.5 -80t-37.5 -117q0 -75 36 -123t94 -76
q45 -22 103 -31.5t123 -9.5h20h16zM1120 123q-1 -13 -5.5 -52.5t-8.5 -88.5h-17.5h-17.5q-244 0 -434 61.5t-312 178.5q-85 81 -134.5 194t-49.5 258q0 130 49 237.5t128 187.5q115 116 309 184t415 68h25h20l4 -54.5t7 -88.5h-17h-17q-125 0 -258.5 -27t-231.5 -83
q-126 -72 -195 -184.5t-69 -242.5q0 -135 61.5 -245.5t193.5 -185.5q108 -62 242 -90t266 -28h19t28 1z" />
    <glyph glyph-name="C_O" horiz-adv-x="1377" 
d="M1264 670q0 -72 -31 -142t-84 -116q-52 -43 -109.5 -63t-124.5 -20q-68 0 -128 21.5t-106 60.5q-54 47 -84 115t-30 145q0 73 26.5 135.5t78.5 111.5q47 43 108.5 67.5t135.5 24.5q73 0 133.5 -22t107.5 -66q54 -50 80.5 -113.5t26.5 -138.5zM1120 123q-3 -24 -6 -51.5
t-8 -89.5h-17.5h-17.5q-244 0 -434 61.5t-312 178.5q-85 81 -134.5 194t-49.5 258q0 130 49 237.5t128 187.5q115 116 309 184t415 68h25h20q0 -13 3.5 -54l7.5 -89h-17h-17q-125 0 -258.5 -27t-231.5 -83q-126 -72 -195 -184.5t-69 -242.5q0 -135 61.5 -245.5t193.5 -185.5
q108 -62 242 -90t266 -28h19t28 1zM1126 666q0 55 -19.5 103t-60.5 84q-26 23 -58.5 35t-70.5 12q-43 0 -76.5 -13t-61.5 -40q-35 -32 -54.5 -77.5t-19.5 -98.5q0 -57 20.5 -104.5t64.5 -83.5q27 -22 58 -32t68 -10q41 0 74 13t60 37q36 32 56 77.5t20 97.5z" />
    <glyph glyph-name="C_T" horiz-adv-x="2116" 
d="M1528 1334q242 0 402.5 1t177.5 1v-139q-13 0 -132.5 1t-358.5 1q-2 -135 -3 -289.5t-1 -310.5q0 -250 2 -417.5t2 -181.5h-165q0 22 2.5 180.5t2.5 426.5v247t-3 345h-102.5h-187.5q-202 0 -343.5 -20t-245.5 -79q-127 -74 -195 -186.5t-68 -244.5q0 -135 61 -244.5
t193 -184.5q108 -62 241.5 -88.5t265.5 -26.5h12.5h14.5l-14 -140h-7h-8q-246 0 -435.5 60.5t-310.5 176.5q-85 81 -134.5 193t-49.5 257q0 130 50 238.5t129 187.5q128 128 323 182t489 54h158.5h237.5z" />
    <glyph glyph-name="H_E" horiz-adv-x="2204" 
d="M1200 1336q71 0 177.5 -1t219.5 -1q191 0 308.5 1t132.5 1v-139q-12 0 -126.5 1.5t-286.5 1.5q-75 0 -147 -0.5t-114 -0.5q0 -113 -2 -226t-2 -213q48 0 121.5 -0.5t124.5 -0.5q184 0 298 2t134 2v-139q-13 0 -125 2t-297 2q-51 0 -129 -0.5t-127 -0.5q0 -189 1 -300
t2 -186q59 -1 143 -1.5t181 -0.5q149 0 249 1t115 1v-139q-12 0 -134.5 1t-305.5 1q-95 0 -201 -1t-209 -1q0 11 2 179.5t2 445.5h-153.5h-269.5q-99 0 -235 -0.5t-153 -0.5q0 -278 2 -444.5t2 -181.5h-165q0 12 2.5 189t2.5 541q0 110 -1.5 268t-3.5 341h165
q0 -152 -2 -299.5t-2 -279.5q16 0 132.5 -0.5t256.5 -0.5q108 0 258.5 0.5t163.5 0.5q0 99 -2.5 254.5t-2.5 321.5z" />
    <glyph glyph-name="L_A" horiz-adv-x="2228" 
d="M644 4q-117 0 -227.5 -1t-183.5 -1q2 172 3.5 348.5t1.5 346.5q0 284 -2.5 446t-2.5 196h165q-2 -129 -3 -298t-1 -277q0 -263 1 -431t1 -194q47 0 119 -0.5t125 -0.5h141t152 1l195.5 421.5l364.5 797.5h131l394 -870.5t200 -434.5l-156 -80q-8 22 -64.5 154.5
l-152.5 349.5h-598l-127.5 -287l-82.5 -188q-11 0 -112.5 1t-280.5 1zM1788 605l-114 255l-126 278h-4l-123 -270.5l-119 -262.5l1 -1h484z" />
    <glyph glyph-name="L_E" horiz-adv-x="1316" 
d="M1063 2q-15 0 -128 1t-291 1q-117 0 -227.5 -1t-183.5 -1q2 172 3.5 348.5t1.5 346.5q0 284 -2.5 452t-2.5 190h165q-2 -129 -3 -298t-1 -277q0 -263 1 -437t1 -188q46 0 104 -0.5t110 -0.5q179 0 308 1.5t145 1.5v-139zM854 964h72h88q46 0 112 1t73 1v-113q-7 0 -77 1
t-126 1h-88h-54q0 -77 1 -177t1 -110q35 0 81 -0.5t77 -0.5q52 0 135.5 1t90.5 1v-119q-7 0 -98.5 1t-145.5 1q-81 0 -148 -1t-134 -1q2 152 3.5 244t1.5 187q0 123 -2.5 283t-2.5 173q67 0 134 -1t148 -1q56 0 142.5 1t91.5 1v-118q-6 0 -87.5 1t-128.5 1q-32 0 -77.5 -0.5
t-80.5 -0.5q-1 -86 -1.5 -142t-0.5 -114z" />
    <glyph glyph-name="L_I" horiz-adv-x="1104" 
d="M1053 2q-15 0 -123 1t-286 1q-117 0 -227.5 -1t-183.5 -1q2 172 3.5 348.5t1.5 346.5q0 284 -2.5 452t-2.5 190h165q-2 -129 -3 -298t-1 -277q0 -263 1 -437t1 -188q46 0 104 -0.5t110 -0.5q179 0 303 1.5t140 1.5v-139zM934 450h-148q2 152 3.5 244t1.5 187
q0 123 -2.5 285.5t-2.5 172.5h148q-2 -115 -2.5 -201.5t-0.5 -196.5q0 -137 1 -263t2 -228z" />
    <glyph glyph-name="L_L" horiz-adv-x="1204" 
d="M1063 2q-15 0 -128 1t-291 1q-117 0 -227.5 -1t-183.5 -1q2 172 3.5 348.5t1.5 346.5q0 284 -2.5 452t-2.5 190h165q-2 -129 -3 -298t-1 -277q0 -263 1 -437t1 -188q46 0 104 -0.5t110 -0.5q179 0 308 1.5t145 1.5v-139zM1240 450q-12 0 -101 1t-143 1q-81 0 -148 -1
t-134 -1q2 152 3.5 244t1.5 187q0 123 -2.5 286t-2.5 172h146q-2 -115 -2.5 -201.5t-0.5 -196.5q0 -117 0.5 -236t0.5 -134q35 0 80 -0.5t76 -0.5q52 0 132.5 1t93.5 1v-122z" />
    <glyph glyph-name="M_B" horiz-adv-x="2556" 
d="M1623 2l-153 1110h-2q-29 -57 -157 -335l-289 -650h-133l-255.5 605.5l-158.5 374.5h-3q-6 -23 -79.5 -371t-144.5 -746l-154 28q100 431 187 854t95 459l159 23q10 -23 135 -334t298 -689h2l278 612t180 392q56 3 159 7t179 4q116 0 206.5 -13.5t150.5 -37.5
q91 -36 143 -103.5t52 -165.5q0 -102 -67 -181t-155 -110v-10q69 -6 132.5 -32.5t112.5 -75.5q43 -43 65 -95t22 -128q0 -100 -51.5 -180t-149.5 -131q-87 -45 -196 -65.5t-243 -20.5q-60 0 -104.5 1.5t-60.5 3.5zM1763 129q116 0 211.5 11.5t165.5 50.5q56 31 86.5 81
t30.5 117q0 51 -18 91.5t-54 77.5q-34 34 -93.5 55t-129.5 21q-57 0 -79 -1t-27 -1l-16 120q54 3 110 17.5t101 46.5q49 36 72.5 82t23.5 99q0 61 -30 105.5t-82 70.5q-44 21 -112 31.5t-153 10.5q-46 0 -98 -2t-63 -3l24.5 -180l52.5 -380q23 -167 49.5 -339.5t27.5 -181.5
z" />
    <glyph glyph-name="M_D" horiz-adv-x="2700" 
d="M1624 -6l-154 1118h-2q-29 -57 -157 -335l-289 -650h-133l-255.5 605.5l-158.5 374.5h-3q-6 -23 -79.5 -371t-144.5 -746l-154 28q100 431 187 854t95 459l159 23q10 -23 135 -334t298 -689h2l283 623t176 385q15 0 97.5 1t88.5 1q207 0 367.5 -37t286.5 -117
q146 -93 217 -223.5t71 -301.5q0 -175 -85.5 -309.5t-226.5 -217.5q-120 -71 -267 -106t-331 -35h-12.5h-10.5zM2133 236q113 67 183 175t70 252q0 130 -56 236t-177 182q-93 59 -227 93t-273 34h-25h-19q2 -13 26 -194l45 -338l50.5 -336t32.5 -208q96 10 193 33t177 71z
" />
    <glyph glyph-name="M_E" horiz-adv-x="2475" 
d="M1623 2l-153 1110h-2q-29 -57 -157 -335l-289 -650h-133l-255.5 605.5l-158.5 374.5h-3q-6 -23 -79.5 -371t-144.5 -746l-154 28q100 431 187 854t95 459l159 23q10 -23 135 -334t298 -689h2l280.5 617l177.5 388q86 0 207.5 -1t234.5 -1q192 0 309.5 1t128.5 1v-139
q-18 0 -127.5 1.5t-282.5 1.5q-75 0 -163 -0.5t-130 -0.5l58 -438q45 0 110 -0.5t113 -0.5q183 0 297.5 1.5t128.5 1.5v-138q-10 0 -110 1.5t-286 1.5q-50 0 -118 -0.5t-115 -0.5l77 -486q70 -1 130.5 -1.5t123.5 -0.5q154 0 234.5 1t90.5 1v-139q-11 0 -113 1t-288 1
q-82 0 -191 -1t-124 -1z" />
    </font>
</defs>
</svg>
